<svg xmlns="http://www.w3.org/2000/svg" xmlns:xlink="http://www.w3.org/1999/xlink" viewBox="0 0 256.12 215.19"><defs><style>.cls-1,.cls-7{fill:none;}.cls-2{clip-path:url(#clip-path);}.cls-3{clip-path:url(#clip-path-2);}.cls-4,.cls-6,.cls-8{fill:#adadad;}.cls-5{clip-path:url(#clip-path-3);}.cls-6,.cls-7{stroke:#adadad;}.cls-7{stroke-width:3px;}.cls-8{stroke:#000;stroke-miterlimit:10;stroke-width:0.5px;}</style><clipPath id="clip-path"><rect class="cls-1" x="32.41" y="16.03" width="243.62" height="188.26"/></clipPath><clipPath id="clip-path-2"><path class="cls-1" d="M184.32,85.11c-.75,7.62-3.77,16.08-5,24.39H159.57c7.83-8.55,16.58-16.17,24.75-24.39m-4.66-18.65c-3.56,2.06-7.56,6.49-11.12,10-6.87,6.87-14.66,14.39-21.52,20.8-3.8,3.55-8.41,7.1-10.4,11.12-3.41,6.88.5,15.51,4.66,17.93,1.71,0,3.45.05,5.2.05,5,0,10-.11,15-.11,4.4,0,8.71.09,12.78.42-1.45,6.74-5,15.33,1.43,18.65a15.35,15.35,0,0,0,6.7,1.38,13,13,0,0,0,7.64-2.09c5.18-3.94,4-13.84,6.81-20.8,5.42,6.75,14.62,9.84,23.91,9.84,9.71,0,19.53-3.38,25.23-9.49,3.21-3.43,10.11-13.7,7.53-20.08-1-2.55-4.4-3-8.26-3-2,0-4.1.12-6.09.12-2.59,0-5.52-.32-8.13-.32a13.11,13.11,0,0,0-4.78.68c-2,.81-4.4,5.2-3.95,7.89.77,4.58,7.49,4.14,14,4.66-1.43,4.7-6.27,6.8-11.21,6.8s-9.88-2.07-11.75-5.73c-6.26-12.3,5.54-24.88,16.67-24.88a13.53,13.53,0,0,1,11.66,6.59,1,1,0,0,0,1,.72h0a14.7,14.7,0,0,0,2.81.28c5.27,0,9.09-3.21,8-9.25-1.4-7.47-12.89-11.24-21.16-11.83q-1.16-.08-2.31-.08c-10.44,0-19.91,4.95-25,8.69,1.2-5.63,4.3-13,.72-17.57-2.11-2.69-7.87-4.09-13.76-4.09-4.63,0-9.34.87-12.42,2.65"/></clipPath><clipPath id="clip-path-3"><path class="cls-1" d="M108.48,68s14.62-5.51,29.62,7a9.14,9.14,0,0,1,1.52,11c-3.75,6.88-12.53,2.66-12.53,2.66s-18.7-9.73-30.52-5.6C85.82,86.82,71.5,118.52,44.3,101.43A21.5,21.5,0,0,0,58.11,116c11.68,4.27,19.22,2.28,28.77-3.27s21.66,1.34,22.07,9.4c.35,6.74-3.31,14.86-19.51,7.12,0,0,.57,13.39,14.38,14.38S128,138.18,133,136.47s10.77-2.38,12.53.43a5.56,5.56,0,0,1-.71,6.8c-2.23,2.38-6.55.89-6.55.89s9.4,12.82,30.47-3.56c0,0,0-.36-.06-1q-.05-.51-.07-1.06c0-.56,0-1.13,0-1.71a26.34,26.34,0,0,1,1.09-7.36v-.11c-2.4-.1-5.09-.15-8.28-.15-2.47,0-5,0-7.47.06s-5,.06-7.54.06c-1.95,0-3.67,0-5.28-.05l-.87,0-.75-.44c-2.87-1.67-5.37-5.1-6.68-9.17a17.45,17.45,0,0,1,.7-13.16c1.87-3.77,5.36-6.9,8.74-9.93.83-.75,1.62-1.45,2.37-2.16,7-6.57,14.84-14.12,21.44-20.72.62-.62,1.24-1.25,1.9-1.92,2-2.07,4.11-4.19,6.2-6l-3.49-1.69a80.83,80.83,0,0,0-31.18-6.76c-10.18,0-21.36,2.42-31.1,10.18"/></clipPath></defs><title>Ресурс 3</title><g id="Слой_2" data-name="Слой 2"><g id="Layer_1" data-name="Layer 1"><g class="cls-2"><g class="cls-3"><rect class="cls-4" x="133.21" y="63.8" width="122.91" height="82.93"/></g><g class="cls-5"><rect class="cls-4" x="32.91" y="26.19" width="152.73" height="162.82" transform="translate(-39.5 144.8) rotate(-58.6)"/></g><g class="cls-2"><path class="cls-6" d="M207.68,149.66a1.16,1.16,0,0,1,1,.46,1.31,1.31,0,0,1,.2,1.12,2,2,0,0,1-.71,1.15,1.81,1.81,0,0,1-1.18.46h-7.13a1.17,1.17,0,0,1-1-.46,1.49,1.49,0,0,1-.23-1.15l2.63-11.9a2,2,0,0,1,.71-1.12,1.91,1.91,0,0,1,1.24-.46,1.19,1.19,0,0,1,1,.46,1.26,1.26,0,0,1,.23,1.12l-2.28,10.31Z"/><path class="cls-7" d="M207.68,149.66a1.16,1.16,0,0,1,1,.46,1.31,1.31,0,0,1,.2,1.12,2,2,0,0,1-.71,1.15,1.81,1.81,0,0,1-1.18.46h-7.13a1.17,1.17,0,0,1-1-.46,1.49,1.49,0,0,1-.23-1.15l2.63-11.9a2,2,0,0,1,.71-1.12,1.91,1.91,0,0,1,1.24-.46,1.19,1.19,0,0,1,1,.46,1.26,1.26,0,0,1,.23,1.12l-2.28,10.31Z"/><path class="cls-4" d="M222.69,137.77a1.18,1.18,0,0,1,1,.47,1.34,1.34,0,0,1,.2,1.14,2,2,0,0,1-.7,1.14A1.89,1.89,0,0,1,222,141h-2.59l-2.28,10.31a2.05,2.05,0,0,1-.69,1.15,1.82,1.82,0,0,1-1.21.46,1.17,1.17,0,0,1-1-.46,1.36,1.36,0,0,1-.19-1.15L216.29,141h-2.61a1.2,1.2,0,0,1-1-.45,1.3,1.3,0,0,1-.2-1.14,2,2,0,0,1,.7-1.13,1.82,1.82,0,0,1,1.2-.47Z"/><path class="cls-7" d="M222.69,137.77a1.18,1.18,0,0,1,1,.47,1.34,1.34,0,0,1,.2,1.14,2,2,0,0,1-.7,1.14A1.89,1.89,0,0,1,222,141h-2.59l-2.28,10.31a2.05,2.05,0,0,1-.69,1.15,1.82,1.82,0,0,1-1.21.46,1.17,1.17,0,0,1-1-.46,1.36,1.36,0,0,1-.19-1.15L216.29,141h-2.61a1.2,1.2,0,0,1-1-.45,1.3,1.3,0,0,1-.2-1.14,2,2,0,0,1,.7-1.13,1.82,1.82,0,0,1,1.2-.47Z"/><path class="cls-8" d="M233.68,149.7a1.16,1.16,0,0,1,1,.47,1.31,1.31,0,0,1,.2,1.11,2,2,0,0,1-.7,1.15,1.84,1.84,0,0,1-1.2.46h-6.62a1.19,1.19,0,0,1-1-.46,1.29,1.29,0,0,1-.22-1.15l2.63-11.9a2.11,2.11,0,0,1,.69-1.11,1.78,1.78,0,0,1,1.22-.5h6.62a1.16,1.16,0,0,1,1,.47,1.35,1.35,0,0,1,.2,1.14,2,2,0,0,1-.7,1.14,1.86,1.86,0,0,1-1.2.45h-5.09l-.59,2.7h3.54a1.17,1.17,0,0,1,1,.47,1.32,1.32,0,0,1,.21,1.14,2,2,0,0,1-.71,1.12,1.85,1.85,0,0,1-1.19.46h-3.54l-.63,2.84Z"/><path class="cls-7" d="M233.68,149.7a1.16,1.16,0,0,1,1,.47,1.31,1.31,0,0,1,.2,1.11,2,2,0,0,1-.7,1.15,1.84,1.84,0,0,1-1.2.46h-6.62a1.19,1.19,0,0,1-1-.46,1.29,1.29,0,0,1-.22-1.15l2.63-11.9a2.11,2.11,0,0,1,.69-1.11,1.78,1.78,0,0,1,1.22-.5h6.62a1.16,1.16,0,0,1,1,.47,1.35,1.35,0,0,1,.2,1.14,2,2,0,0,1-.7,1.14,1.86,1.86,0,0,1-1.2.45h-5.09l-.59,2.7h3.54a1.17,1.17,0,0,1,1,.47,1.32,1.32,0,0,1,.21,1.14,2,2,0,0,1-.71,1.12,1.85,1.85,0,0,1-1.19.46h-3.54l-.63,2.84Z"/></g></g></g></g></svg>