<svg xmlns="http://www.w3.org/2000/svg" viewBox="0 0 216.4 274.41"><defs><style>.cls-1{fill:#adadad;}</style></defs><title>Ресурс 1</title><g id="Слой_2" data-name="Слой 2"><g id="svg4101"><g id="g4046"><path id="path3194" class="cls-1" d="M91.11,4A92.1,92.1,0,0,0,80,8.28l3.4,9.89A82.75,82.75,0,0,1,94.17,14C140.8-.3,191.24,29.13,206.79,79.84c.2.64.41,1.29.59,1.93l9-3c-.17-.57-.35-1.13-.52-1.7C198.64,20.83,142.81-11.85,91.11,4Z"/><path id="path3194-4" class="cls-1" d="M96.44,30.07A69.7,69.7,0,0,0,88,33.31l3.09,9.1a62.71,62.71,0,0,1,8.17-3.16c35.36-10.84,71.05,10.54,82.84,49,.15.49.31,1,.45,1.46l8.89-2.94c-.13-.43-.26-.86-.4-1.29C178,42.84,135.65,18.05,96.44,30.07Z"/><path id="path3194-0" class="cls-1" d="M101.31,53.88a49.48,49.48,0,0,0-6,2.3l2.93,8.75a44.51,44.51,0,0,1,5.79-2.24c25.52-6.32,45.41,5.78,55.13,33.38.11.34.22.69.32,1l9.19-3c-.09-.31-.19-.61-.28-.92-9.27-30.24-39.3-47.82-67.11-39.29Z"/></g><g id="g4061"><path id="path4401" class="cls-1" d="M44.3,196c-8.2,26.13-15.84,52.24-29.32,78.37,48.73-.07,59-.23,107.74-.3A365.12,365.12,0,0,1,100.9,222C80.48,218.44,61.79,211,44.3,196Zm3.32,14.64L55.35,216c-6.75,24.33-19,44.84-28.34,52.69C34.43,250.39,40,237.63,47.62,210.68Z"/><path id="path3423-9-5" class="cls-1" d="M1.24,65.87A127.34,127.34,0,0,0,213,177.82L1.24,65.87ZM12.09,87.43,30.46,97.74c.58,30.14,8.18,47,18.72,70.8C27.32,147.09,12.65,121.08,12.09,87.43Z"/><g id="g4055"><rect id="rect4051" class="cls-1" x="97.35" y="110.49" width="25.94" height="10.54" transform="translate(-43.43 159.69) rotate(-62.33)"/><path id="path4053" class="cls-1" d="M127.16,107.2c-3.12,5.95-10,8.49-15.34,5.69s-7.16-9.9-4-15.85,10-8.49,15.34-5.69S130.28,101.25,127.16,107.2Z"/></g></g></g></g></svg>