<svg xmlns="http://www.w3.org/2000/svg" xmlns:xlink="http://www.w3.org/1999/xlink" viewBox="0 0 349.9 82.34"><defs><style>.cls-1{fill:none;}.cls-2{clip-path:url(#clip-path);}.cls-3,.cls-4{fill:#adadad;}.cls-3{fill-rule:evenodd;}</style><clipPath id="clip-path"><rect class="cls-1" x="0.05" width="349.85" height="82.34"/></clipPath></defs><title>Ресурс 2</title><g id="Слой_2" data-name="Слой 2"><g id="Layer_1" data-name="Layer 1"><g class="cls-2"><path class="cls-3" d="M35,20.21l7.42,7.11L35,34.06V20.21Zm0,41.92L42.4,55.4,35,48.28V62.13Zm-7.42-21L12.31,26.58l4.49-4.49,12.11,12V5.8L51.19,26.95,36.73,41.17,51.19,55.4,28.91,76.91V48.28l-12.11,12-4.49-4.49,15.24-14.6Zm4.1,41.17c18.75,0,31.84-8.23,31.84-41.17C63.5,8.61,50.41,0,31.65,0,13.09,0,0,8.61,0,41.17,0,74.11,13.09,82.34,31.65,82.34"/></g><path class="cls-3" d="M87.92,44h3.32c6.06,0,8.6,3.18,8.6,9.17,0,5.43-2.15,8.61-7.42,8.61H87.92V44Zm0-23H92c4.49,0,6.64,2.81,6.64,7.86,0,4.87-2.93,7.3-7,7.3H87.92V21ZM78,69.81H94c11.72,0,15.83-7.3,15.83-16.66,0-7.3-2.93-11.23-8.21-13.47,4.88-1.68,7.42-6.74,7.42-12,0-9.55-5.08-15-16.21-15H78V69.81"/><polygon class="cls-4" points="113.9 69.81 122.89 69.81 122.89 12.73 113.9 12.73 113.9 69.81 113.9 69.81"/><path class="cls-4" d="M147.7,27.32V60.63c-2,1.5-4.1,2.81-5.66,2.81a3,3,0,0,1-3.32-3.18V27.32h-9.57V61.38c0,5.61,2.93,9.17,7.81,9.17,5.47,0,7.42-2.06,11.14-5.24v4.49h8.79V27.32H147.7"/><path class="cls-3" d="M171.73,42.86V40.8c0-5.24,2-7.11,5.27-7.11s4.88,1.87,4.88,7.11v2.06Zm19.34-.56c0-9.36-3.71-15.72-14.07-15.72-10.75,0-14.46,6.36-14.46,15.72V54.65c0,9.54,3.71,15.91,14.46,15.91,10,0,14.07-6.36,14.07-15.16h-9.18v.93c0,4.68-1.56,7.11-4.88,7.11s-5.27-2.43-5.27-7.11v-6h19.34v-8"/><path class="cls-4" d="M199.28,34.43V61c0,6.36,3.71,9.54,10.75,9.54a14.59,14.59,0,0,0,4.49-.38V62.5h-2.73c-2.54,0-3.32-1.5-3.32-3.55V34.43h6.05V27.32h-6.05V15.72h-9.18v11.6H194v7.11h5.27"/><path class="cls-3" d="M237.76,56.33c0,4.68-1.76,7.11-5.08,7.11S227.8,61,227.8,56.33V40.8c0-5.24,1.56-7.11,4.88-7.11s5.08,1.87,5.08,7.11V56.33Zm-19.54-1.68c0,9.54,3.71,15.91,14.45,15.91,10.36,0,14.46-6.36,14.46-15.91V42.29c0-9.36-4.1-15.72-14.46-15.72-10.74,0-14.45,6.36-14.45,15.72V54.65"/><path class="cls-3" d="M271.17,56.33c0,4.68-1.76,7.11-5.08,7.11-3.13,0-4.88-2.43-4.88-7.11V40.8c0-5.24,1.76-7.11,4.88-7.11,3.32,0,5.08,1.87,5.08,7.11V56.33Zm-19.34-1.68c0,9.54,3.71,15.91,14.26,15.91,10.35,0,14.06-6.36,14.06-15.91V42.29c0-9.36-3.71-15.72-14.06-15.72-10.55,0-14.26,6.36-14.26,15.72V54.65"/><path class="cls-4" d="M288.56,34.43V61c0,6.36,3.71,9.54,10.55,9.54a16.77,16.77,0,0,0,4.69-.38V62.5h-3.32c-2.15,0-2.93-1.5-2.93-3.55V34.43h6.25V27.32h-6.25V15.72h-9v11.6h-5.47v7.11h5.47"/><path class="cls-4" d="M318.65,69.81V36.49c2-1.68,3.71-2.8,5.67-2.8,2.15,0,3.32,1.12,3.32,3.18V69.81h9.18V35.18c0-5.43-2.93-8.61-7.42-8.61-5.47,0-7.43,1.87-10.75,4.68V12.73h-9.18V69.81h9.18"/><polyline class="cls-4" points="336.82 12.73 336.82 13.85 338.38 13.85 338.38 20.21 339.75 20.21 339.75 13.85 341.31 13.85 341.31 12.73 336.82 12.73"/><polyline class="cls-4" points="344.63 20.21 344.63 14.22 346.2 20.21 347.17 20.21 348.74 14.22 348.74 20.21 349.9 20.21 349.9 12.73 347.95 12.73 346.59 17.4 345.42 12.73 343.46 12.73 343.46 20.21 344.63 20.21"/></g></g></svg>