<?xml version="1.0" encoding="UTF-8" ?>
<!DOCTYPE svg PUBLIC "-//W3C//DTD SVG 1.1//EN" "http://www.w3.org/Graphics/SVG/1.1/DTD/svg11.dtd">
<svg width="198pt" height="199pt" viewBox="0 0 198 199" version="1.1" xmlns="http://www.w3.org/2000/svg">
<g id="#22222266">
<path fill="#222222" opacity="0.40" d=" M 78.64 3.65 C 99.54 -1.98 122.34 0.11 142.02 9.07 C 164.96 19.41 183.78 39.16 191.90 63.10 C 195.38 71.86 197.11 81.17 198.00 90.52 L 198.00 101.34 C 196.32 120.30 189.77 138.96 177.96 154.00 C 163.28 173.28 140.94 186.12 117.11 190.10 C 115.66 193.40 113.84 197.13 109.95 197.98 C 104.05 200.47 96.96 195.32 97.25 189.01 C 96.93 183.02 103.11 177.99 108.93 179.37 C 112.83 179.89 114.97 183.44 116.97 186.40 C 133.58 183.57 149.48 176.36 162.25 165.32 C 179.94 150.22 191.49 128.17 193.82 105.03 C 195.98 84.84 191.00 64.03 180.18 46.88 C 169.09 29.18 151.71 15.58 131.91 8.96 C 113.00 2.51 91.99 2.53 73.09 9.01 C 53.75 15.44 36.76 28.58 25.59 45.62 C 25.24 46.43 24.44 47.31 24.82 48.26 C 25.76 51.41 27.61 54.71 26.05 58.00 C 24.06 64.09 15.67 66.33 10.82 62.23 C 5.94 58.61 6.02 50.48 10.92 46.91 C 13.82 44.33 17.86 45.10 21.39 45.39 C 28.95 33.60 38.88 23.29 50.72 15.77 C 59.24 10.12 68.92 6.60 78.64 3.65 M 14.20 47.21 C 8.75 48.92 7.22 56.83 11.61 60.46 C 15.86 64.62 23.90 61.89 24.69 55.99 C 25.99 50.27 19.61 44.93 14.20 47.21 M 104.36 181.48 C 98.43 183.23 97.21 192.15 102.48 195.40 C 106.99 198.80 114.24 195.64 114.79 190.02 C 115.84 184.41 109.65 179.35 104.36 181.48 Z" />
<path fill="#222222" opacity="0.40" d=" M 0.00 85.03 C 1.75 80.64 5.86 76.72 10.93 77.48 C 17.24 77.86 21.53 85.19 18.89 90.91 C 17.68 94.65 13.73 95.98 10.49 97.41 C 10.75 113.53 15.37 129.53 23.72 143.33 C 34.00 160.53 50.21 173.99 68.85 181.27 C 71.68 178.83 74.90 175.94 78.96 176.69 C 85.14 177.12 89.36 184.25 86.90 189.90 C 84.87 195.83 76.69 198.01 71.87 194.09 C 68.78 192.03 68.38 188.11 67.64 184.81 C 49.94 177.60 34.09 165.53 23.42 149.57 C 17.13 140.68 13.19 130.41 10.07 120.05 C 7.81 112.50 7.21 104.60 6.71 96.77 C 3.91 94.89 1.27 92.60 0.00 89.37 L 0.00 85.03 M 6.15 80.23 C 1.08 82.67 0.60 90.63 5.38 93.63 C 9.94 97.11 17.32 93.80 17.73 88.08 C 18.79 82.01 11.41 77.05 6.15 80.23 M 74.24 179.34 C 69.27 181.77 68.42 189.85 73.34 192.84 C 77.96 196.33 85.38 192.87 85.68 187.10 C 86.56 181.16 79.45 176.35 74.24 179.34 Z" />
</g>
</svg>
