<?xml version="1.0" encoding="UTF-8" ?>
<!DOCTYPE svg PUBLIC "-//W3C//DTD SVG 1.1//EN" "http://www.w3.org/Graphics/SVG/1.1/DTD/svg11.dtd">
<svg width="194pt" height="191pt" viewBox="0 0 194 191" version="1.1" xmlns="http://www.w3.org/2000/svg">
<g id="#22222266">
<path fill="#222222" opacity="0.40" d=" M 92.71 0.00 L 105.93 0.00 C 114.19 1.12 122.46 2.47 130.32 5.34 C 133.11 3.25 136.34 1.03 140.03 1.87 C 146.39 2.66 150.24 10.47 147.08 16.02 C 144.36 21.74 135.86 23.05 131.56 18.41 C 128.78 15.91 128.66 12.01 128.74 8.55 C 114.09 3.61 98.23 2.24 83.00 4.96 C 62.50 8.46 43.39 19.31 29.79 35.01 C 31.44 38.30 32.69 42.29 30.84 45.78 C 28.42 51.34 20.49 53.13 15.91 49.15 C 11.13 45.53 11.17 37.53 15.95 33.94 C 18.99 31.24 23.27 31.63 26.87 32.73 C 43.39 13.65 67.57 1.81 92.71 0.00 M 135.22 4.30 C 129.74 6.44 128.98 14.81 133.92 17.96 C 138.59 21.60 146.20 17.93 146.30 12.02 C 146.95 6.33 140.34 1.69 135.22 4.30 M 19.22 34.19 C 13.92 35.98 12.44 43.65 16.64 47.31 C 20.59 51.36 28.28 49.28 29.61 43.77 C 31.69 37.93 24.83 31.73 19.22 34.19 Z" />
<path fill="#222222" opacity="0.40" d=" M 160.01 22.04 C 164.38 17.65 172.60 19.05 175.28 24.62 C 177.50 28.46 176.06 33.00 173.73 36.40 C 185.43 51.41 192.31 69.81 194.00 88.73 L 194.00 101.35 C 192.33 125.10 181.90 148.19 164.55 164.59 C 148.67 180.03 127.26 189.15 105.27 191.00 L 92.77 191.00 C 72.36 189.42 52.39 181.61 36.89 168.14 C 18.89 152.81 6.93 130.59 4.21 107.09 C 2.95 97.11 3.49 87.00 5.19 77.11 C 2.98 75.28 1.02 73.11 0.00 70.39 L 0.00 65.92 C 1.44 61.04 6.44 57.32 11.60 58.51 C 18.01 59.53 21.59 67.66 18.06 73.10 C 16.24 76.54 12.31 77.68 8.74 78.22 C 4.77 98.74 8.07 120.59 18.01 138.99 C 27.65 157.03 43.47 171.68 62.25 179.82 C 83.18 189.02 107.60 189.88 129.14 182.24 C 149.24 175.21 166.63 160.89 177.48 142.59 C 187.97 125.14 192.28 104.13 189.71 83.95 C 187.69 67.42 180.96 51.57 170.70 38.48 C 167.42 38.97 163.73 39.33 160.96 37.10 C 156.05 33.79 155.57 25.95 160.01 22.04 M 163.19 22.10 C 157.83 24.42 157.30 32.74 162.29 35.75 C 166.90 39.15 174.21 35.66 174.51 29.95 C 175.36 24.08 168.40 19.18 163.19 22.10 M 7.37 60.55 C 2.07 61.95 0.01 69.24 3.73 73.24 C 7.26 77.75 15.27 76.38 17.05 70.91 C 19.64 65.12 13.31 58.34 7.37 60.55 Z" />
</g>
</svg>
