<?xml version="1.0" encoding="UTF-8" ?>
<!DOCTYPE svg PUBLIC "-//W3C//DTD SVG 1.1//EN" "http://www.w3.org/Graphics/SVG/1.1/DTD/svg11.dtd">
<svg width="256pt" height="256pt" viewBox="0 0 256 256" version="1.1" xmlns="http://www.w3.org/2000/svg">
<g id="#323232ff">
<path fill="#323232" opacity="1.00" d=" M 66.77 0.00 L 256.00 0.00 L 256.00 191.96 C 254.55 208.54 247.14 224.56 235.15 236.13 C 223.72 247.52 208.21 254.49 192.18 256.00 L 0.00 256.00 L 0.00 66.94 C 0.83 49.64 8.18 32.73 20.50 20.52 C 32.67 8.22 49.52 0.89 66.77 0.00 M 132.04 56.87 C 123.45 58.27 114.54 63.26 111.54 71.87 C 108.72 80.30 109.47 89.32 109.33 98.06 C 103.66 98.02 97.99 98.17 92.32 97.94 C 92.25 105.28 92.23 112.62 92.33 119.96 C 98.00 119.79 103.67 119.90 109.34 119.87 C 109.38 146.74 109.29 173.62 109.38 200.49 C 118.38 200.41 127.38 200.40 136.38 200.50 C 136.50 173.61 136.29 146.72 136.49 119.83 C 143.52 119.89 150.55 119.88 157.57 119.86 C 157.47 112.56 157.59 105.26 157.51 97.97 C 150.49 98.15 143.46 98.05 136.43 98.03 C 136.58 92.81 135.80 87.40 137.47 82.34 C 138.44 79.17 141.76 77.30 144.95 77.18 C 149.89 76.87 154.91 77.29 159.70 78.61 C 161.16 72.33 162.14 65.94 163.52 59.64 C 153.39 56.55 142.56 55.29 132.04 56.87 Z" />
</g>
<g id="#ffffffff">
<path fill="#ffffff" opacity="1.00" d=" M 132.04 56.87 C 142.56 55.29 153.39 56.55 163.52 59.64 C 162.14 65.94 161.16 72.33 159.70 78.61 C 154.91 77.29 149.89 76.87 144.95 77.18 C 141.76 77.30 138.44 79.17 137.47 82.34 C 135.80 87.40 136.58 92.81 136.43 98.03 C 143.46 98.05 150.49 98.15 157.51 97.97 C 157.59 105.26 157.47 112.56 157.57 119.86 C 150.55 119.88 143.52 119.89 136.49 119.83 C 136.29 146.72 136.50 173.61 136.38 200.50 C 127.38 200.40 118.38 200.41 109.38 200.49 C 109.29 173.62 109.38 146.74 109.34 119.87 C 103.67 119.90 98.00 119.79 92.33 119.96 C 92.23 112.62 92.25 105.28 92.32 97.94 C 97.99 98.17 103.66 98.02 109.33 98.06 C 109.47 89.32 108.72 80.30 111.54 71.87 C 114.54 63.26 123.45 58.27 132.04 56.87 Z" />
</g>
</svg>
