<?xml version="1.0" encoding="utf-8"?>
<!-- Generator: Adobe Illustrator 20.1.0, SVG Export Plug-In . SVG Version: 6.00 Build 0)  -->
<svg version="1.1" id="Слой_1" xmlns="http://www.w3.org/2000/svg" xmlns:xlink="http://www.w3.org/1999/xlink" x="0px" y="0px" viewBox="0 0 405.9 419.8" style="enable-background:new 0 0 405.9 419.8;" xml:space="preserve">
	<style type="text/css">
		.st0 {
			fill: #921D2E;
		}
		.st1 {
			opacity: 0.2;
			enable-background: new;
		}
		.st2 {
			fill: #414042;
		}
		.st3 {
			fill: #393938;
		}
		.st4 {
			fill: #4D4D4F;
		}
		.st5 {
			fill: #D8D8D8;
		}
		.st6 {
			fill: none;
			stroke: #D8D8D8;
			stroke-width: 0.75;
			stroke-miterlimit: 10;
		}
		.st7 {
			fill: #622A3B;
		}
		.st8 {
			fill: #AA202D;
			stroke: #FFFFFF;
			stroke-width: 2;
			stroke-miterlimit: 10;
		}
		.st9 {
			fill: none;
			stroke: #3E3E3E;
			stroke-width: 6;
			stroke-miterlimit: 10;
		}
		.st10 {
			fill: #F0F8FD;
			stroke: #96979B;
			stroke-width: 3;
			stroke-miterlimit: 10;
		}
		.st11 {
			fill: none;
			stroke: #96979B;
			stroke-width: 3;
			stroke-miterlimit: 10;
		}
		.st12 {
			fill: none;
			stroke: #565A5B;
			stroke-width: 5;
			stroke-miterlimit: 10;
		}
		.st13 {
			fill: #221F1F;
		}
		.st14 {
			fill: #DC1F25;
		}
		.st15 {
			fill: none;
			stroke: #646769;
			stroke-width: 3;
			stroke-miterlimit: 10;
		}
		.st16 {
			fill: #58585B;
		}
		.st17 {
			fill: none;
			stroke: #221F1F;
			stroke-miterlimit: 10;
		}

		#tree-circle-1 {
		    transform-origin: 176.9px 370.3px;
		}

		#tree-circle-2 {
		    transform-origin: 250.6px 325.2px;
		}

		#tree-circle-3 {
		    transform-origin: 323.4px 371.3px;
		}

		#satellite-circle {
		    transform-origin: 180.4px 68.5px;
		}

		#antena {
		    transform-origin: 207px 210px;
		}



		@keyframes satellite-circle1 {
		    100% {transform:  translateX(27px) translateY(-117px) scale(0)}
		}
		#tree-circle-1 {animation-name: satellite-circle1; animation-duration: 1ms; animation-fill-mode: both; }

		@keyframes satellite-circle2 {
		    100% {transform:  translateX(-26.9px) translateY(-76px) scale(0)}
		}
		#tree-circle-2 {animation-name: satellite-circle2; animation-duration: 1ms; animation-fill-mode: both; }

		@keyframes satellite-circle3 {
		    100% {transform:  translateX(-89px) translateY(-129px) scale(0)}
		}
		#tree-circle-3 {animation-name: satellite-circle3; animation-duration: 1ms; animation-fill-mode: both; }


        @keyframes antena {
            0% {transform: rotate(0deg)}
            25% {transform: rotate(0deg)}
            50% {transform: rotate(26deg)}
            100% {transform: rotate(-19deg)}
        }
        .active #antena {animation-name: antena; animation-duration: 3000ms; animation-fill-mode: both; animation-delay: 1000ms}

        @keyframes satellite-circleActive1 {
            0% {transform:  translateX(27px) translateY(-117px) scale(0)}
		    100% {transform:  translateX0px) translateY(0px) scale(1)}
		}
		.active #tree-circle-1 {animation-name: satellite-circleActive1; animation-duration: 500ms; animation-fill-mode: both; animation-delay: 2500ms}

        @keyframes satellite-circleActive2 {
            0% {transform: translateX(-26.9px) translateY(-76px) scale(0)}
		    100% {transform: translateX0px) translateY(0px) scale(1)}
		}
		.active #tree-circle-2 {animation-name: satellite-circleActive2; animation-duration: 500ms; animation-fill-mode: both; animation-delay: 1000ms}

		@keyframes satellite-circleActive3 {
            0% {transform:  translateX(-89px) translateY(-129px) scale(0)}
		    100% {transform: translateX0px) translateY(0px) scale(1)}
		}
		.active #tree-circle-3 {animation-name: satellite-circleActive3; animation-duration: 500ms; animation-fill-mode: both; animation-delay: 3800ms}




		@keyframes satellite-bigCircle {
            0% {transform: scale(1)}
            5% {transform: scale(.9)}
            10% {transform: scale(1)}

            50% {transform: scale(1)}
            55% {transform: scale(.9)}
            60% {transform: scale(1)}

            90% {transform: scale(1)}
            95% {transform: scale(.9)}
            100% {transform: scale(1)}

		}
		.active #satellite-circle {animation-name: satellite-bigCircle; animation-duration: 3000ms; animation-fill-mode: both; animation-delay: 900ms}
		


	</style>
	<title>Ресурс 1</title>
	<g id="items-box-3">
		<g id="tree-circle-2">
			<circle class="st0" cx="250.6" cy="325.2" r="47.5"/>
			<path class="st1" d="M298,327.4l-29.1-29.1c-12.2,17.8-24.4,35.7-36.7,53.5l20.9,20.9C277.5,371.3,296.9,351.8,298,327.4z"/>
			<rect x="232.1" y="298.4" class="st2" width="36.8" height="53.4"/>
			<rect x="232.2" y="298.3" class="st3" width="4.9" height="47.9"/>
			<rect x="264.1" y="298.3" class="st3" width="4.9" height="47.9"/>
			<rect x="232.2" y="321.5" class="st4" width="4.2" height="19.4"/>
			<rect x="232.2" y="299.1" class="st4" width="4.2" height="19.4"/>
			<rect x="264.8" y="321.5" class="st4" width="4.2" height="19.4"/>
			<rect x="264.8" y="299.1" class="st4" width="4.2" height="19.4"/>
			<rect x="249.1" y="328.9" class="st5" width="3.5" height="4.9"/>
			<line class="st6" x1="252.2" y1="329.6" x2="256.6" y2="323.4"/>
			<line class="st6" x1="249.3" y1="329.2" x2="244.8" y2="323"/>
			<line class="st6" x1="249.1" y1="323.2" x2="244.9" y2="317.3"/>
			<line class="st6" x1="247" y1="322.6" x2="245.2" y2="320.1"/>
			<line class="st6" x1="250.9" y1="320.3" x2="246.5" y2="314.2"/>
			<line class="st6" x1="250.9" y1="327.6" x2="249.1" y2="325.1"/>
			<path class="st5" d="M251.8,333l1.3,1.7h0.6c-0.5-0.7-1-1.3-1.5-2L251.8,333z"/>
			<path class="st5" d="M249.3,332.9c-0.5,0.7-1,1.3-1.5,2h0.6l1.3-1.7L249.3,332.9z"/>
			<line class="st6" x1="250.8" y1="326.6" x2="253.1" y2="323.4"/>
			<line class="st6" x1="252.1" y1="316.3" x2="254" y2="313.6"/>
			<line class="st6" x1="254.9" y1="325.9" x2="254.9" y2="322.4"/>
			<line class="st6" x1="249.1" y1="325.3" x2="249.1" y2="321"/>
			<line class="st6" x1="246.9" y1="326" x2="246.9" y2="322.5"/>
			<line class="st6" x1="250" y1="334.8" x2="250" y2="331.2"/>
			<line class="st6" x1="251.6" y1="334.8" x2="251.6" y2="331.3"/>
			<line class="st6" x1="253" y1="323.5" x2="253" y2="320"/>
			<line class="st6" x1="246.6" y1="319.7" x2="246.6" y2="317.6"/>
			<line class="st6" x1="245" y1="317.4" x2="245" y2="315"/>
			<line class="st6" x1="252.2" y1="318.3" x2="252.2" y2="311.6"/>
			<line class="st6" x1="246.5" y1="314.3" x2="246.5" y2="310.6"/>
			<line class="st6" x1="249.7" y1="318.5" x2="249.7" y2="314.9"/>
			<line class="st6" x1="253.1" y1="320.1" x2="252.1" y2="318.3"/>
			<line class="st6" x1="250.9" y1="328.9" x2="250.9" y2="320.2"/>
			<line class="st6" x1="255.2" y1="321.7" x2="255.2" y2="316.3"/>
			<line class="st6" x1="254.8" y1="322.5" x2="257" y2="318.3"/>
			<circle class="st5" cx="256.6" cy="323.2" r="0.7"/>
			<circle class="st5" cx="256.9" cy="318.6" r="0.7"/>
			<circle class="st5" cx="255.2" cy="316.3" r="0.7"/>
			<circle class="st5" cx="249.1" cy="320.5" r="0.7"/>
			<circle class="st5" cx="246.6" cy="317.1" r="0.7"/>
			<circle class="st5" cx="245" cy="319.8" r="0.7"/>
			<circle class="st5" cx="244.8" cy="322.8" r="0.7"/>
			<circle class="st5" cx="245" cy="314.5" r="0.7"/>
			<circle class="st5" cx="254.1" cy="313.5" r="0.7"/>
			<circle class="st5" cx="252.2" cy="311.6" r="0.7"/>
			<circle class="st5" cx="249.7" cy="314.9" r="0.7"/>
			<circle class="st5" cx="246.5" cy="310.6" r="0.7"/>
			<g>
				<rect x="232.2" y="346.2" class="st4" width="36.7" height="5.5"/>
				<circle class="st7" cx="237.9" cy="348.9" r="1.4"/>
				<circle class="st7" cx="244.1" cy="348.9" r="1.4"/>
				<circle class="st7" cx="250.4" cy="348.9" r="1.4"/>
				<circle class="st7" cx="256.6" cy="348.9" r="1.4"/>
				<circle class="st7" cx="262.8" cy="349" r="1.4"/>
			</g>
		</g>
		<g id="tree-circle-3">
			<circle class="st8" cx="323.4" cy="371.3" r="47.5"/>
			<path class="st1" d="M369.9,372.7l-28.1-28.4c-12.2,17.8-24.4,35.7-36.7,53.5l20,19.9C349.5,417,369.2,397.2,369.9,372.7
			L369.9,372.7z"/>
			<rect x="305" y="344.4" class="st2" width="36.8" height="53.4"/>
			<rect x="305" y="344.4" class="st3" width="4.9" height="47.9"/>
			<rect x="336.9" y="344.4" class="st3" width="4.9" height="47.9"/>
			<rect x="305" y="367.6" class="st4" width="4.2" height="19.4"/>
			<rect x="305" y="345.2" class="st4" width="4.2" height="19.4"/>
			<rect x="337.6" y="367.6" class="st4" width="4.2" height="19.4"/>
			<rect x="337.6" y="345.2" class="st4" width="4.2" height="19.4"/>
			<rect x="322" y="375" class="st5" width="3.5" height="4.9"/>
			<line class="st6" x1="325" y1="375.7" x2="329.5" y2="369.5"/>
			<line class="st6" x1="322.2" y1="375.3" x2="317.7" y2="369.1"/>
			<line class="st6" x1="322" y1="369.3" x2="317.7" y2="363.4"/>
			<line class="st6" x1="319.8" y1="368.8" x2="318.1" y2="366.3"/>
			<line class="st6" x1="323.7" y1="366.5" x2="319.3" y2="360.3"/>
			<line class="st6" x1="323.7" y1="373.7" x2="321.9" y2="371.2"/>
			<path class="st5" d="M320.9,380.9h0.6l1.3-1.7l-0.4-0.3C321.8,379.6,321.3,380.2,320.9,380.9z"/>
			<path class="st5" d="M324.6,379.1l1.3,1.7h0.6c-0.5-0.7-1-1.3-1.5-2L324.6,379.1z"/>
			<line class="st6" x1="323.6" y1="372.7" x2="325.9" y2="369.5"/>
			<line class="st6" x1="324.9" y1="362.4" x2="326.9" y2="359.7"/>
			<line class="st6" x1="327.7" y1="372" x2="327.7" y2="368.5"/>
			<line class="st6" x1="322" y1="371.4" x2="322" y2="367.1"/>
			<line class="st6" x1="319.7" y1="372.1" x2="319.7" y2="368.6"/>
			<line class="st6" x1="322.9" y1="380.9" x2="322.9" y2="377.3"/>
			<line class="st6" x1="324.5" y1="380.9" x2="324.5" y2="377.4"/>
			<line class="st6" x1="325.8" y1="369.6" x2="325.8" y2="366.1"/>
			<line class="st6" x1="319.5" y1="365.8" x2="319.5" y2="363.8"/>
			<line class="st6" x1="317.8" y1="363.5" x2="317.8" y2="361.1"/>
			<line class="st6" x1="325" y1="364.5" x2="325" y2="357.7"/>
			<line class="st6" x1="319.3" y1="360.4" x2="319.3" y2="356.8"/>
			<line class="st6" x1="322.5" y1="364.6" x2="322.5" y2="361"/>
			<line class="st6" x1="325.9" y1="366.3" x2="324.9" y2="364.4"/>
			<line class="st6" x1="323.7" y1="375.1" x2="323.7" y2="366.3"/>
			<line class="st6" x1="328.1" y1="367.8" x2="328.1" y2="362.4"/>
			<line class="st6" x1="327.6" y1="368.6" x2="329.8" y2="364.4"/>
			<circle class="st5" cx="329.5" cy="369.3" r="0.7"/>
			<circle class="st5" cx="329.7" cy="364.7" r="0.7"/>
			<circle class="st5" cx="328.1" cy="362.4" r="0.7"/>
			<circle class="st5" cx="322" cy="366.6" r="0.7"/>
			<circle class="st5" cx="319.5" cy="363.2" r="0.7"/>
			<circle class="st5" cx="317.9" cy="365.9" r="0.7"/>
			<circle class="st5" cx="317.6" cy="368.9" r="0.7"/>
			<circle class="st5" cx="317.9" cy="360.6" r="0.7"/>
			<circle class="st5" cx="327" cy="359.7" r="0.7"/>
			<circle class="st5" cx="325" cy="357.7" r="0.7"/>
			<circle class="st5" cx="322.5" cy="361" r="0.7"/>
			<circle class="st5" cx="319.3" cy="356.7" r="0.7"/>
			<g>
				<rect x="305.1" y="392.3" class="st4" width="36.7" height="5.5"/>
				<circle class="st7" cx="310.7" cy="395" r="1.4"/>
				<circle class="st7" cx="317" cy="395" r="1.4"/>
				<circle class="st7" cx="323.2" cy="395" r="1.4"/>
				<circle class="st7" cx="329.4" cy="395" r="1.4"/>
				<circle class="st7" cx="335.7" cy="395" r="1.4"/>
			</g>
		</g>
		<g id="tree-circle-1">
			<circle class="st8" cx="176.9" cy="370.3" r="47.5"/>
			<path class="st1" d="M222.4,370.3l-28.1-28.4c-12.2,17.8-24.4,35.7-36.7,53.5l19.9,19.9C202,414.6,221.7,394.8,222.4,370.3z"/>
			<rect x="157.5" y="342" class="st2" width="36.8" height="53.4"/>
			<rect x="157.5" y="342" class="st3" width="4.9" height="47.9"/>
			<rect x="189.4" y="342" class="st3" width="4.9" height="47.9"/>
			<rect x="157.5" y="365.1" class="st4" width="4.2" height="19.4"/>
			<rect x="157.5" y="342.8" class="st4" width="4.2" height="19.4"/>
			<rect x="190.1" y="365.1" class="st4" width="4.2" height="19.4"/>
			<rect x="190.1" y="342.8" class="st4" width="4.2" height="19.4"/>
			<rect x="174.4" y="372.6" class="st5" width="3.5" height="4.9"/>
			<line class="st6" x1="177.5" y1="373.3" x2="181.9" y2="367.1"/>
			<line class="st6" x1="174.7" y1="372.9" x2="170.1" y2="366.7"/>
			<line class="st6" x1="174.4" y1="366.9" x2="170.2" y2="361"/>
			<line class="st6" x1="172.3" y1="366.3" x2="170.6" y2="363.8"/>
			<line class="st6" x1="176.2" y1="364" x2="171.8" y2="357.9"/>
			<line class="st6" x1="176.2" y1="371.3" x2="174.4" y2="368.8"/>
			<path class="st5" d="M173.3,378.5h0.7l1.3-1.7l-0.4-0.3C174.3,377.1,173.8,377.8,173.3,378.5z"/>
			<path class="st5" d="M177.1,376.7l1.3,1.7h0.7c-0.5-0.7-1-1.3-1.5-2L177.1,376.7z"/>
			<line class="st6" x1="176.1" y1="370.3" x2="178.4" y2="367.1"/>
			<line class="st6" x1="177.4" y1="360" x2="179.4" y2="357.3"/>
			<line class="st6" x1="180.2" y1="369.6" x2="180.2" y2="366.1"/>
			<line class="st6" x1="174.4" y1="369" x2="174.4" y2="364.7"/>
			<line class="st6" x1="172.2" y1="369.6" x2="172.2" y2="366.2"/>
			<line class="st6" x1="175.4" y1="378.5" x2="175.4" y2="374.9"/>
			<line class="st6" x1="176.9" y1="378.5" x2="176.9" y2="375"/>
			<line class="st6" x1="178.3" y1="367.2" x2="178.3" y2="363.7"/>
			<line class="st6" x1="171.9" y1="363.4" x2="171.9" y2="361.3"/>
			<line class="st6" x1="170.3" y1="361.1" x2="170.3" y2="358.7"/>
			<line class="st6" x1="177.5" y1="362" x2="177.5" y2="355.3"/>
			<line class="st6" x1="171.8" y1="358" x2="171.8" y2="354.3"/>
			<line class="st6" x1="175" y1="362.2" x2="175" y2="358.6"/>
			<line class="st6" x1="178.4" y1="363.8" x2="177.4" y2="362"/>
			<line class="st6" x1="176.2" y1="372.6" x2="176.2" y2="363.9"/>
			<line class="st6" x1="180.6" y1="365.4" x2="180.6" y2="360"/>
			<line class="st6" x1="180.1" y1="366.2" x2="182.3" y2="362"/>
			<circle class="st5" cx="181.9" cy="366.9" r="0.7"/>
			<circle class="st5" cx="182.2" cy="362.3" r="0.7"/>
			<circle class="st5" cx="180.6" cy="359.9" r="0.7"/>
			<circle class="st5" cx="174.4" cy="364.2" r="0.7"/>
			<circle class="st5" cx="171.9" cy="360.8" r="0.7"/>
			<circle class="st5" cx="170.4" cy="363.5" r="0.7"/>
			<circle class="st5" cx="170.1" cy="366.5" r="0.7"/>
			<circle class="st5" cx="170.4" cy="358.2" r="0.7"/>
			<circle class="st5" cx="179.4" cy="357.2" r="0.7"/>
			<circle class="st5" cx="177.5" cy="355.3" r="0.7"/>
			<circle class="st5" cx="175" cy="358.6" r="0.7"/>
			<circle class="st5" cx="171.8" cy="354.3" r="0.7"/>
			<g>
				<rect x="157.6" y="389.9" class="st4" width="36.7" height="5.5"/>
				<circle class="st7" cx="163.2" cy="392.6" r="1.4"/>
				<circle class="st7" cx="169.5" cy="392.6" r="1.4"/>
				<circle class="st7" cx="175.7" cy="392.6" r="1.4"/>
				<circle class="st7" cx="181.9" cy="392.6" r="1.4"/>
				<circle class="st7" cx="188.2" cy="392.6" r="1.4"/>
			</g>
		</g>
		<g id="satellite">
			<g id="wind-right">
				<line class="st9" x1="254" y1="147.8" x2="221.1" y2="150.2"/>

				<rect x="242.7" y="120.9" transform="matrix(0.9921 -0.1253 0.1253 0.9921 -14.7982 41.5249)" class="st10" width="160" height="35"/>
				<line class="st11" x1="378.8" y1="113.5" x2="383.2" y2="148.3"/>
				<line class="st11" x1="368" y1="115.2" x2="372.4" y2="149.9"/>
				<line class="st11" x1="357" y1="117.2" x2="361.4" y2="151.9"/>
				<line class="st11" x1="345.5" y1="118" x2="349.8" y2="152.7"/>
				<line class="st11" x1="333.9" y1="119.5" x2="338.3" y2="154.2"/>
				<line class="st11" x1="321.8" y1="121" x2="326.1" y2="155.7"/>
				<line class="st11" x1="310.1" y1="123.6" x2="314.5" y2="158.3"/>
				<line class="st11" x1="298.6" y1="125.2" x2="303" y2="159.9"/>
				<line class="st11" x1="286" y1="127" x2="290.4" y2="161.8"/>
				<line class="st11" x1="273.1" y1="128.3" x2="277.5" y2="163"/>
				<line class="st11" x1="261.6" y1="130" x2="266" y2="164.7"/>
				<line class="st11" x1="251.2" y1="130.9" x2="255.6" y2="165.6"/>
				<line class="st11" x1="389.4" y1="111.8" x2="393.8" y2="146.5"/>
			</g>
			<g id="wind-left">
				<line class="st9" x1="149" y1="173.5" x2="179.6" y2="161.1"/>

				<rect x="3.2" y="178" transform="matrix(0.9452 -0.3264 0.3264 0.9452 -59.2557 37.8629)" class="st10" width="160" height="35"/>
				<line class="st11" x1="21.9" y1="198" x2="33.3" y2="231.1"/>
				<line class="st11" x1="32.3" y1="194.7" x2="43.7" y2="227.8"/>
				<line class="st11" x1="43" y1="191.6" x2="54.4" y2="224.7"/>
				<line class="st11" x1="53.8" y1="187.2" x2="65.2" y2="220.3"/>
				<line class="st11" x1="64.8" y1="183.4" x2="76.2" y2="216.5"/>
				<line class="st11" x1="76.4" y1="179.4" x2="87.8" y2="212.5"/>
				<line class="st11" x1="87.9" y1="176.6" x2="99.4" y2="209.7"/>
				<line class="st11" x1="98.9" y1="173" x2="110.4" y2="206.1"/>
				<line class="st11" x1="111.1" y1="169.1" x2="122.5" y2="202.1"/>
				<line class="st11" x1="123.3" y1="164.4" x2="134.7" y2="197.5"/>
				<line class="st11" x1="134.3" y1="160.9" x2="145.7" y2="194"/>
				<line class="st11" x1="144" y1="157.1" x2="155.4" y2="190.2"/>
				<line class="st11" x1="11.6" y1="201.1" x2="23" y2="234.2"/>
			</g>
			<g id="body">
				<line class="st12" x1="208.5" y1="190.2" x2="213.8" y2="213"/>
				<path class="st13" d="M171.8,141.1h-0.2l13.8,58.4l48.7-11.5l-13.8-58.4h-0.1c-7,4.8-14.8,8.3-23.1,10.3
				C188.8,141.9,180.2,142.3,171.8,141.1z"/>
			</g>
			<g id="satellite-circle">
				<circle class="st14" cx="180.4" cy="68.5" r="68.5"/>
				<path class="st1" d="M248.8,71.6l-42-42c-17.6,25.7-35.2,51.4-52.9,77.2l30.1,30.1C219.2,135,247.2,106.8,248.8,71.6z"/>
				<rect x="153.9" y="29.7" class="st2" width="53" height="77"/>
				<rect x="153.9" y="98.8" class="st4" width="53" height="8"/>
				<circle class="st7" cx="162.1" cy="102.7" r="2"/>
				<circle class="st7" cx="171.1" cy="102.7" r="2"/>
				<circle class="st7" cx="180.1" cy="102.7" r="2"/>
				<circle class="st7" cx="189.1" cy="102.7" r="2"/>
				<circle class="st7" cx="198.1" cy="102.8" r="2"/>
				<rect x="153.9" y="29.7" class="st3" width="7" height="69"/>
				<rect x="199.9" y="29.7" class="st3" width="7" height="69"/>
				<rect x="153.9" y="63.1" class="st4" width="6" height="28"/>
				<rect x="153.9" y="30.9" class="st4" width="6" height="28"/>
				<rect x="200.9" y="63.1" class="st4" width="6" height="28"/>
				<rect x="200.9" y="30.9" class="st4" width="6" height="28"/>
				<g id="tree">
					<rect x="178.3" y="73.8" class="st5" width="5" height="7"/>
					<line class="st6" x1="182.7" y1="74.8" x2="189.1" y2="65.9"/>
					<line class="st6" x1="178.6" y1="74.3" x2="172.1" y2="65.3"/>
					<line class="st6" x1="178.3" y1="65.6" x2="172.2" y2="57.1"/>
					<line class="st6" x1="175.2" y1="64.8" x2="172.7" y2="61.2"/>
					<line class="st6" x1="180.8" y1="61.5" x2="174.5" y2="52.6"/>
					<line class="st6" x1="180.8" y1="72" x2="178.2" y2="68.4"/>
					<path class="st5" d="M176.7,82.3h0.9l1.8-2.4l-0.6-0.4C178,80.4,177.3,81.3,176.7,82.3z"/>
					<path class="st5" d="M182.1,79.8l1.8,2.4h0.9c-0.7-1-1.4-1.9-2.1-2.9L182.1,79.8z"/>
					<line class="st6" x1="180.7" y1="70.5" x2="184" y2="65.9"/>
					<line class="st6" x1="182.6" y1="55.7" x2="185.4" y2="51.8"/>
					<line class="st6" x1="186.6" y1="69.5" x2="186.6" y2="64.5"/>
					<line class="st6" x1="178.3" y1="68.6" x2="178.3" y2="62.5"/>
					<line class="st6" x1="175.1" y1="69.6" x2="175.1" y2="64.6"/>
					<line class="st6" x1="179.6" y1="82.3" x2="179.6" y2="77.2"/>
					<line class="st6" x1="181.9" y1="82.3" x2="181.9" y2="77.3"/>
					<line class="st6" x1="183.9" y1="66.1" x2="183.9" y2="61"/>
					<line class="st6" x1="174.7" y1="60.6" x2="174.7" y2="57.6"/>
					<line class="st6" x1="172.3" y1="57.3" x2="172.3" y2="53.8"/>
					<line class="st6" x1="182.7" y1="58.6" x2="182.7" y2="48.9"/>
					<line class="st6" x1="174.5" y1="52.8" x2="174.5" y2="47.5"/>
					<line class="st6" x1="179.1" y1="58.9" x2="179.1" y2="53.7"/>
					<line class="st6" x1="184" y1="61.2" x2="182.6" y2="58.5"/>
					<line class="st6" x1="180.8" y1="73.9" x2="180.8" y2="61.3"/>
					<line class="st6" x1="187.1" y1="63.4" x2="187.1" y2="55.7"/>
					<line class="st6" x1="186.5" y1="64.6" x2="189.6" y2="58.5"/>
					<circle class="st5" cx="189.1" cy="65.6" r="1"/>
					<circle class="st5" cx="189.5" cy="59" r="1"/>
					<circle class="st5" cx="187.1" cy="55.6" r="1"/>
					<circle class="st5" cx="178.3" cy="61.7" r="1"/>
					<circle class="st5" cx="174.7" cy="56.8" r="1"/>
					<circle class="st5" cx="172.4" cy="60.7" r="1"/>
					<circle class="st5" cx="172" cy="65" r="1"/>
					<circle class="st5" cx="172.4" cy="53.1" r="1"/>
					<circle class="st5" cx="185.5" cy="51.7" r="1"/>
					<circle class="st5" cx="182.7" cy="48.9" r="1"/>
					<circle class="st5" cx="179.1" cy="53.7" r="1"/>
					<circle class="st5" cx="174.5" cy="47.4" r="1"/>
				</g>
			</g>
			<g id="antena">
				<line class="st15" x1="218" y1="227.1" x2="223.7" y2="249"/>
				<path class="st13" d="M189.9,238.5c-4.2-16,5.5-32.4,21.5-36.6s32.4,5.5,36.6,21.5l0,0L189.9,238.5z"/>
				<ellipse transform="matrix(0.9679 -0.2514 0.2514 0.9679 -55.4641 64.2416)" class="st16" cx="223.7" cy="249.2" rx="4" ry="4"/>
				<path class="st17" d="M220.4,256.5c3.3,2,7.5,1,9.5-2.3c0-0.1,0.1-0.2,0.1-0.2"/>
				<path class="st17" d="M219.4,259.7c4.5,2.7,10.3,1.2,13-3.2c0-0.1,0.1-0.1,0.1-0.2"/>
			</g>
		</g>
	</g>
</svg>
