<?xml version="1.0" encoding="utf-8"?>
<!-- Generator: Adobe Illustrator 20.1.0, SVG Export Plug-In . SVG Version: 6.00 Build 0)  -->
<svg version="1.1" id="item-box-1" xmlns="http://www.w3.org/2000/svg" xmlns:xlink="http://www.w3.org/1999/xlink" x="0px" y="0px"
	 viewBox="0 0 473.5 277.9" style="enable-background:new 0 0 473.5 277.9;" xml:space="preserve">
<style type="text/css">
	.st0{fill:#771B29;}
	.st1{opacity:0.2;enable-background:new    ;}
	.st2{fill:none;stroke:#CCCCCB;stroke-width:2;stroke-miterlimit:10;}
	.st3{fill:#FFFFFF;stroke:#999999;stroke-miterlimit:10;}
	.st4{fill:#999999;}
	.st5{fill:#96979B;stroke:#747576;stroke-miterlimit:10;}
	.st6{fill:#FFFFFF;stroke:#747577;stroke-miterlimit:10;}
	.st7{fill:#747577;}
	.st8{fill:#828385; transform-origin: 50% 100%;}
	.st9{fill:#CC3333; transform-origin: 50% 100%;}
	.st10{fill:#FFFFFF;}
	.st11{fill:#CCCCCB;}
	.st12{fill:#AA202D;stroke:#FFFFFF;stroke-width:3;stroke-miterlimit:10;}
	.st13{fill-opacity:0.15;}
	.st14{fill:#E6E6E7;}
	.st15{fill:#49484A;}
	.st16{fill:#ECF5FC;}
	.st17{fill:#8E8E8E;}
	.st18{fill:#BEC1C3;}
	.st19{fill:none;stroke:#EAB32B;stroke-width:15;stroke-miterlimit:10; transition: all 1s linear;}
	.st20{fill:#DC2227;stroke:#FFFFFF;stroke-width:3;stroke-miterlimit:10;}
	.st21{fill-opacity:0.1;}
	.st22{fill:#E7AA33;}
	.st23{font-family:'MicrosoftSansSerif';}
	.st24{font-size:10px;}
	.st25{font-size:9px;}
	.st26{font-size:8px;}
</style>
<g id="clock">
	<path class="st0" d="M140.7,130.3c0.6-1.1,1.1-2.1,1.7-3.1c9.7-18.6,11.1-40.4,4-60.2l-0.1,0.1c11.7,32.5-0.3,68.8-29.1,87.9v0.1
		C126.9,148.8,134.9,140.3,140.7,130.3z"/>
	<path class="st0" d="M146.3,67.1c-14-39-57-59.2-96-45.2s-59.2,57-45.2,96s57,59.2,96,45.2c5.7-2,11.1-4.7,16.1-8.1
		c-0.1-2.1-0.2-4.3-0.2-6.4C117,118.9,127.4,90,146.3,67.1z"/>
	<path class="st0" d="M150.7,92.6c0-8.7-1.5-17.3-4.4-25.4c-19,22.9-29.3,51.7-29.3,81.5c0,2.2,0.1,4.3,0.2,6.4
		C138.2,141.2,150.8,117.7,150.7,92.6z"/>
	<path class="st1" d="M123.5,100.8l-22.1-27.1c0,0.8-1,1.6-1.7,0.8c-0.7-1.1-1.4-2.1-2.2-3.1c-0.9-0.9-2.2-1.3-3.4-1.3
		c-0.3,0-0.7-0.2-0.8-0.5c-1.8-0.3-3.4-0.6-4.3-0.8c-1.3-0.2-0.7-2.2,0.5-1.9c0.4,0.1,1.6,0.3,2.9,0.5c-0.1-0.1-0.1-0.2-0.2-0.2V67
		h-0.1c-2.1-0.3-4.2-0.8-6.4-0.8c-0.1,0-0.2,0-0.3-0.1c-2.6,0-5.2,0.7-7.7,0c-0.9,0.9-2.1,1.3-3.3,1.3c-2.1,0.1-4-1.3-4.6-3.4
		L40.7,88c1.1,1.3,1.6,3,1.2,4.7c0.9,1.9,0.8,4.1-0.5,5.8c0.3,0.6,0.5,1.3,0.6,2c-0.1-0.6,0.3,1.1,0.3,1.3c0.1,0.5,0.3,1,0.5,1.5
		c0.4,1.2,0.7,2.4,1,3.7c0.2,1,0.1,2-0.2,3c0.5,0.9,0.8,2,0.8,3.1c0.3,0.1,0.6,0.2,0.8,0.4c0.2,0.1,0.4,0.2,0.7,0.3
		c1.7,0.6,2.9,2.1,3.1,3.9c0.8,2.6-0.3,5.9-3.4,6.5l35.2,43.2c1.4-0.1,3-0.2,5-0.5c3.2-0.4,5.6-0.9,6.8-1.2c0.7-0.1,3.7-0.9,7.1-2
		c5.2-1.8,10.2-4.1,14.9-6.9c-0.2-1.8-0.4-4.4-0.5-7.7c-0.1-3.1-0.3-17.1,5.1-35.8C120.4,109.1,121.8,104.9,123.5,100.8z"/>
	<path class="st1" d="M144.2,123.1l-20.8-22.3c-1.7,4-3.1,8.2-4.3,12.4c-0.1,0.3-0.2,0.7-0.4,1.3c-1.5,5.5-2.4,9.9-2.8,12.1
		c0,0-1.2,6.7-1.7,13.5c0,0-0.3,4-0.2,7.2c0,0.1,0,1.4,0,1.4l0,0c0.1,3.3,0.3,6,0.5,8.1C127.6,148.8,137.9,137,144.2,123.1
		L144.2,123.1z"/>
	<ellipse transform="matrix(0.6793 -0.7338 0.7338 0.6793 -35.4389 48.8687)" class="st2" cx="38.2" cy="65" rx="9.6" ry="9.6"/>
	<rect x="41.9" y="68.2" transform="matrix(0.6793 -0.7338 0.7338 0.6793 -37.854 55.7742)" class="st3" width="6" height="6"/>

		<rect x="62.1" y="51.6" transform="matrix(0.9896 -0.1437 0.1437 0.9896 -7.894 10.3133)" class="st4" width="10.7" height="16.4"/>

		<ellipse transform="matrix(0.9998 -1.954661e-02 1.954661e-02 0.9998 -1.9307 1.4713)" class="st5" cx="74.3" cy="99.5" rx="37.5" ry="37.5"/>

		<ellipse transform="matrix(0.9998 -1.954661e-02 1.954661e-02 0.9998 -1.9345 1.4733)" class="st6" cx="74.4" cy="99.7" rx="30" ry="30"/>

		<rect x="73.1" y="69.8" transform="matrix(0.9998 -1.954661e-02 1.954661e-02 0.9998 -1.3893 1.4572)" class="st7" width="1.5" height="4"/>

		<rect x="74.2" y="125.5" transform="matrix(0.9998 -1.954661e-02 1.954661e-02 0.9998 -2.4778 1.4894)" class="st7" width="1.5" height="4"/>

		<rect x="44.4" y="99.3" transform="matrix(0.9998 -1.954661e-02 1.954661e-02 0.9998 -1.9467 0.9261)" class="st7" width="4" height="1.5"/>

		<rect x="93.7" y="116.8" transform="matrix(0.6932 -0.7208 0.7208 0.6932 -56.6465 104.5643)" class="st7" width="1.5" height="4"/>
	<rect x="53.1" y="119.1" transform="matrix(0.6932 -0.7208 0.7208 0.6932 -69.4897 76.4947)" class="st7" width="4" height="1.5"/>
	<rect x="92.1" y="78.7" transform="matrix(0.6932 -0.7208 0.7208 0.6932 -28.4093 92.1767)" class="st7" width="4" height="1.5"/>
	<rect x="53.6" y="78.2" transform="matrix(0.6932 -0.7208 0.7208 0.6932 -41.1116 63.7925)" class="st7" width="1.5" height="4"/>

		<rect x="100.3" y="98.2" transform="matrix(0.9998 -1.954661e-02 1.954661e-02 0.9998 -1.9146 2.0185)" class="st7" width="4" height="1.5"/>

		<rect id="minute_1_" x="73.3" y="82.7"  class="st8" width="1.8" height="17"/>

		<rect id="hour" x="73.3" y="89.7"  class="st8" width="1.8" height="10"/>

		<rect id="second" x="73.7" y="83.7"  class="st9" width="1" height="16"/>

		<ellipse transform="matrix(0.9998 -1.954661e-02 1.954661e-02 0.9998 -1.9385 1.4734)" class="st7" cx="74.4" cy="99.9" rx="3.5" ry="3.5"/>
	<rect x="62.7" y="52.9" transform="matrix(0.9902 -0.14 0.14 0.9902 -6.9674 9.8607)" class="st10" width="7.8" height="3.1"/>

		<rect x="63.4" y="56.5" transform="matrix(0.9897 -0.1435 0.1435 0.9897 -7.6343 10.2586)" class="st10" width="7.8" height="3.1"/>
	<rect x="34.1" y="61.3" transform="matrix(0.6793 -0.7338 0.7338 0.6793 -35.7533 49.7713)" class="st4" width="10" height="9"/>
	<rect x="36" y="65.1" transform="matrix(0.6793 -0.7338 0.7338 0.6793 -38.6457 48.7455)" class="st11" width="1" height="7"/>
	<rect x="37" y="64" transform="matrix(0.6793 -0.7338 0.7338 0.6793 -37.5221 49.1471)" class="st11" width="1" height="7"/>
	<rect x="38" y="62.9" transform="matrix(0.6793 -0.7338 0.7338 0.6793 -36.4051 49.5218)" class="st11" width="1" height="7"/>
	<rect x="39.1" y="61.8" transform="matrix(0.6793 -0.7338 0.7338 0.6793 -35.2022 50.0107)" class="st11" width="1" height="7"/>
	<rect x="40.1" y="60.6" transform="matrix(0.6793 -0.7338 0.7338 0.6793 -34.0243 50.3701)" class="st11" width="1" height="7"/>
	<rect x="41.2" y="59.5" transform="matrix(0.6793 -0.7338 0.7338 0.6793 -32.8539 50.8303)" class="st11" width="1" height="7"/>
</g>
<g id="computer">
	<circle class="st12" cx="244.2" cy="148.4" r="128"/>
	<path class="st13" d="M368.5,122.5l-43.6-41l-107,113.9c0.4,0,0.7,0,1.1,0c2.7,0.1,5.7-0.5,8.3,0.2c4.6,1.3,1.4,6,0.2,8.6
		c-0.6,1.3-1,3-1.7,4.4c0.7,0.8,0.8,2,0.3,2.9c-0.3,0.6-0.9,1-1.5,1.2c-1.1,0.3-2.3-0.2-2.9-1.2h-0.3c-0.1,1-0.8,1.8-1.7,2.1
		c-0.2,0.1-0.4,0.2-0.7,0.3l59.8,56.2C342.3,251.5,381.2,187.5,368.5,122.5z"/>
	<polygon class="st14" points="224.7,211.6 268.1,211.6 246.4,131.2 	"/>
	<path class="st14" d="M169.6,82.2h153.6c3.1,0,5.7,2.6,5.7,5.7v103.6c0,3.1-2.6,5.7-5.7,5.7H169.6c-3.1,0-5.7-2.6-5.7-5.7V87.9
		C163.9,84.7,166.5,82.2,169.6,82.2z"/>
	<path class="st15" d="M323.9,82.2h-155c-2.8,0-5,2.2-5,5v93.6h165V87.2C328.9,84.4,326.7,82.2,323.9,82.2z"/>
	<rect x="168.9" y="88.4" class="st16" width="155" height="86.4"/>
	<path class="st14" d="M271.5,211.4h-50.2c-1.4,0-2.5,1.1-2.5,2.5l0,0H274C274,212.5,272.9,211.4,271.5,211.4z"/>
	<rect x="228.6" y="197.2" class="st17" width="35.7" height="0.1"/>
	<rect x="180.9" y="103.9" class="st18" width="30.6" height="2.1"/>
	<rect x="180.9" y="108.3" class="st18" width="30.6" height="2.1"/>
	<line id="graphic-1" class="st19" x1="292" y1="114.8" x2="292" y2="174.8"/>
	<line id="graphic-2" class="st19" x1="269.2" y1="129.8" x2="269.2" y2="174.8"/>
	<line id="graphic-3" class="st19" x1="246.5" y1="139.8" x2="246.5" y2="174.8"/>
	<line id="graphic-4" class="st19" x1="223.7" y1="149.8" x2="223.7" y2="174.8"/>
	<line id="graphic-5" class="st19" x1="201.5" y1="156.7" x2="201.5" y2="174.7"/>
</g>
<g id="pig">
	<circle class="st20" cx="392" cy="81.5" r="80"/>
	<path class="st21" d="M447.2,80.2c-1,0.3-1.9,0.6-2.5,0.8c-0.8,0.4-1.6,0.6-2.5,0.7c-0.5,0-1-0.1-1.4-0.3c-1.1,0.2-2.2,0-3.2-0.6
		c-0.7-0.4-1.3-1.1-1.7-1.9c-1.5-0.1-2.9-1-3.6-2.3c-0.6-1.1-0.7-2.3-0.4-3.5c0.1-0.2,0.1-0.3,0.2-0.5c-0.6-0.6-1.1-1.4-1.2-2.3
		c-0.9-4.4-6.5-6.3-10.2-7.8c-2.1-0.8-4.3-2-6.3-2.4l-57.3,56.3c0.7,0.8,1.1,1.8,1.2,2.8c0,0.3,0,0.6,0,0.9c0.2,0,0.5,0.1,0.6,0.3
		c0.4,0.3,0.5,0.8,0.3,1.3c0.2,0.2,0.3,0.4,0.4,0.7l0,0c0.1,0.2,0.2,0.3,0.4,0.5c0.1,0.1,0.2,0.3,0.2,0.4c0.5,0.2,0.7,0.8,0.5,1.3
		c-0.1,0.1-0.2,0.2-0.3,0.3l34,34.9c6.3-0.1,12.5-1.1,18.6-2.8c16.2-4.6,30.5-14.3,40.8-27.6c6.4-8.3,11.1-17.7,13.9-27.7
		L447.2,80.2z"/>
	<path class="st0" d="M392.6,52.4c-26.2,0-47.5,14.6-47.5,32.5s27,31.4,47.5,32.5c2,0.1,30,1.2,42.5-18c1.9-2.9,5-7.9,5-14.5
		C440.1,66.9,418.9,52.4,392.6,52.4z"/>
	<circle class="st10" cx="422.5" cy="76.3" r="4.5"/>
	<path class="st0" d="M432.8,80.5c-6.7,2.1-9.3,10.6-10,12.8c-1.3,4.3-2.4,11.4,0.2,12.7c1.4,0.7,3.4-0.4,7-2.5
		c1.9-1.1,3.7-2.3,5.3-3.7c1.1-0.9,2.3-1.8,6.6-5.9c1.8-1.7,3.3-3.1,4.3-4.1l0.8-1c0.1-0.3,0.2-0.6,0.3-0.9c0-2.6,0-5.2,0-7.9
		c-1.8-0.1-4.3-0.3-7.2-0.3C436.3,79.9,434.5,80,432.8,80.5z"/>
	<path class="st0" d="M414.3,103.8l-9.3,1.6l6.1,19.7H431l-9.4-22.6L414.3,103.8z"/>
	<path class="st0" d="M362.7,92.4c-1.1,0-2.1,0.3-3.1,0.8c-1.9,0.9-3.5,2.2-4.8,3.9c-2.5,3.2-0.9,14.7,5.8,28H379l-8.7-22.6
		C368.9,96.6,365.8,92.5,362.7,92.4z"/>
	<path class="st0" d="M346.2,71.9c-1-2.1,0.9-4.5,0.6-4.6s-5.5,5.1-3.8,8.3c1.3,2.2,5.6,2.6,6.3,1.6c0.3-0.5-0.2-1.3-0.8-2.3
		C347.5,73.1,346.7,73,346.2,71.9z"/>
	<path class="st0" d="M425.5,47.8c-2.7,1.4-5.3,3-7.8,4.8c-1.5,1-2.8,2-4,3c-2.5-2-4.7-4.5-6.3-7.3c-0.6-1-1.1-2-1.6-3.1
		c-1.1,0.4-2,1.1-2.8,2c-1.6,1.8-1.8,4-2,7.3c-0.2,2.2-0.1,4.5,0.1,6.7c17.4,4,22.5,2.9,23.5,0.8c0.9-1.9-1.3-4.8-0.2-10.5
		C424.6,50.2,425,49,425.5,47.8z"/>
	<path class="st10" d="M377,58.1c-5.5,1.6-10.4,4.8-14.1,9.2c10.8-5.4,22.9-7.9,34.9-7.1C391.4,57,384,56.2,377,58.1z"/>
	<g id="coin-1">
		<circle class="st22" cx="379.1" cy="51.2" r="8"/>
		<text transform="matrix(1 0 0 1 376.22 54.8)" class="st10 st23 st24">$</text>
	</g>
	<g id="coin-3">
		<circle class="st22" cx="369.9" cy="27.4" r="7"/>
		<text transform="matrix(1 0 0 1 367.25 30.46)" class="st10 st23 st25">$</text>
	</g>
	<g id="coin-2">
		<circle class="st22" cx="393.5" cy="32.1" r="6"/>
		<text transform="matrix(1 0 0 1 391.0967 34.8567)" class="st10 st23 st26">$</text>
	</g>
	<path class="st0" d="M362.1,67.7c1.7-0.9,4.4-2.2,7.5-3.3c1.9-0.7,3.7-1.2,4.3-1.5c1.2-0.4,2.1-0.6,2.4-0.7
		c0.3-0.1,1.3-0.3,2.7-0.6c0.2,0,0.8-0.2,1.6-0.3c0.7-0.1,1.7-0.3,2.9-0.5c0.4-0.1,1.2-0.2,2.4-0.3c1.4-0.1,3.4-0.3,6-0.4
		c1.8,0,4,0,6.5,0.2c0.2,0.9,2.2,10.3-4.2,17.4c-5.5,6.1-14.9,8.1-22.4,4.3C363.7,77.7,362.2,68.7,362.1,67.7z"/>
</g>
</svg>
