<?xml version="1.0" encoding="UTF-8" ?>
<!DOCTYPE svg PUBLIC "-//W3C//DTD SVG 1.1//EN" "http://www.w3.org/Graphics/SVG/1.1/DTD/svg11.dtd">
<svg width="256pt" height="256pt" viewBox="0 0 256 256" version="1.1" xmlns="http://www.w3.org/2000/svg">
<g id="#323232ff">
<path fill="#323232" opacity="1.00" d=" M 66.47 0.00 L 256.00 0.00 L 256.00 192.43 C 254.37 208.82 247.06 224.64 235.17 236.11 C 223.82 247.45 208.41 254.36 192.50 256.00 L 0.00 256.00 L 0.00 66.48 C 0.97 49.56 8.08 33.05 20.03 20.99 C 32.17 8.48 49.10 1.00 66.47 0.00 M 68.53 63.44 L 68.51 64.37 C 60.46 65.31 53.75 73.64 55.49 81.73 C 57.14 86.44 60.23 91.10 65.19 92.73 C 71.90 94.92 80.53 93.95 85.00 87.95 C 91.23 80.38 87.43 66.53 77.50 64.41 L 77.52 63.53 C 74.54 63.21 71.53 63.27 68.53 63.44 M 151.08 105.93 C 145.07 108.08 140.21 112.54 136.66 117.75 C 136.66 113.71 136.67 109.66 136.77 105.62 C 126.37 105.51 115.96 105.59 105.55 105.58 C 105.99 134.54 105.77 163.51 105.57 192.48 C 115.91 192.52 126.25 192.35 136.58 192.57 C 136.83 177.39 136.62 162.20 136.68 147.02 C 136.74 143.13 136.28 138.92 138.32 135.41 C 140.86 131.10 144.95 127.25 150.10 126.60 C 155.14 125.90 161.07 126.44 164.65 130.48 C 168.51 134.99 169.32 141.24 169.28 146.98 C 169.17 162.10 169.43 177.23 169.15 192.35 C 179.62 192.65 190.11 192.34 200.58 192.51 C 200.65 177.67 200.59 162.83 200.61 148.00 C 200.58 142.68 200.96 137.26 199.30 132.12 C 197.48 121.33 190.86 110.79 180.44 106.56 C 171.19 102.89 160.45 102.39 151.08 105.93 M 57.57 105.58 C 57.63 134.55 57.60 163.51 57.58 192.48 C 67.89 192.45 78.20 192.47 88.52 192.48 C 88.49 163.51 88.45 134.55 88.54 105.59 C 78.22 105.56 67.89 105.57 57.57 105.58 Z" />
</g>
<g id="#ffffffff">
<path fill="#ffffff" opacity="1.00" d=" M 68.53 63.44 C 71.53 63.27 74.54 63.21 77.52 63.53 L 77.50 64.41 C 87.43 66.53 91.23 80.38 85.00 87.95 C 80.53 93.95 71.90 94.92 65.19 92.73 C 60.23 91.10 57.14 86.44 55.49 81.73 C 53.75 73.64 60.46 65.31 68.51 64.37 L 68.53 63.44 Z" />
<path fill="#ffffff" opacity="1.00" d=" M 151.08 105.93 C 160.45 102.39 171.19 102.89 180.44 106.56 C 190.86 110.79 197.48 121.33 199.30 132.12 C 200.96 137.26 200.58 142.68 200.61 148.00 C 200.59 162.83 200.65 177.67 200.58 192.51 C 190.11 192.34 179.62 192.65 169.15 192.35 C 169.43 177.23 169.17 162.10 169.28 146.98 C 169.32 141.24 168.51 134.99 164.65 130.48 C 161.07 126.44 155.14 125.90 150.10 126.60 C 144.95 127.25 140.86 131.10 138.32 135.41 C 136.28 138.92 136.74 143.13 136.68 147.02 C 136.62 162.20 136.83 177.39 136.58 192.57 C 126.25 192.35 115.91 192.52 105.57 192.48 C 105.77 163.51 105.99 134.54 105.55 105.58 C 115.96 105.59 126.37 105.51 136.77 105.62 C 136.67 109.66 136.66 113.71 136.66 117.75 C 140.21 112.54 145.07 108.08 151.08 105.93 Z" />
<path fill="#ffffff" opacity="1.00" d=" M 57.57 105.58 C 67.89 105.57 78.22 105.56 88.54 105.59 C 88.45 134.55 88.49 163.51 88.52 192.48 C 78.20 192.47 67.89 192.45 57.58 192.48 C 57.60 163.51 57.63 134.55 57.57 105.58 Z" />
</g>
</svg>
