<?xml version="1.0" encoding="UTF-8" ?>
<!DOCTYPE svg PUBLIC "-//W3C//DTD SVG 1.1//EN" "http://www.w3.org/Graphics/SVG/1.1/DTD/svg11.dtd">
<svg width="256pt" height="256pt" viewBox="0 0 256 256" version="1.1" xmlns="http://www.w3.org/2000/svg">
<g id="#323232ff">
<path fill="#323232" opacity="1.00" d=" M 64.61 0.00 L 256.00 0.00 L 256.00 193.40 C 254.00 208.47 247.76 223.10 237.14 234.10 C 225.59 246.64 209.29 254.27 192.41 256.00 L 0.00 256.00 L 0.00 65.60 C 1.31 48.29 8.89 31.50 21.54 19.54 C 33.06 8.23 48.63 1.63 64.61 0.00 M 147.40 86.07 C 147.60 85.06 147.80 84.05 147.99 83.05 C 136.56 90.23 130.47 103.10 125.72 115.24 C 122.18 113.23 119.62 109.87 115.96 108.05 C 103.66 101.67 90.76 96.52 77.65 92.07 C 77.31 99.54 82.94 105.38 89.06 108.73 C 86.37 109.13 83.68 109.57 81.01 110.10 C 81.84 112.92 83.08 115.69 85.19 117.80 C 88.06 120.91 92.32 121.85 96.10 123.36 C 92.91 123.95 89.68 124.77 87.15 126.94 C 90.66 132.76 97.32 135.78 104.02 135.30 C 101.90 136.95 98.72 138.78 99.53 141.98 C 100.86 145.90 105.53 146.76 109.17 146.67 C 99.86 156.42 84.79 159.35 71.98 156.04 C 66.49 154.86 61.76 151.81 57.07 148.89 C 66.25 160.65 79.78 168.52 94.17 172.05 C 114.04 176.96 135.68 174.25 153.81 164.82 C 167.26 157.70 179.15 146.03 183.17 130.99 C 189.29 130.86 195.44 129.19 200.15 125.14 C 195.03 124.92 189.83 125.06 184.85 123.64 C 190.18 121.75 196.82 120.77 199.42 114.92 C 194.01 116.38 188.37 117.58 182.77 116.38 C 180.08 102.28 167.25 90.79 152.75 90.47 C 156.19 88.72 160.41 88.98 163.55 86.59 C 164.28 85.40 163.95 84.67 162.56 84.40 C 158.93 84.22 155.49 85.72 152.09 86.78 C 154.09 85.53 156.49 84.44 157.40 82.08 C 153.79 82.57 150.42 84.06 147.40 86.07 Z" />
</g>
<g id="#ffffffff">
<path fill="#ffffff" opacity="1.00" d=" M 147.40 86.07 C 150.42 84.06 153.79 82.57 157.40 82.08 C 156.49 84.44 154.09 85.53 152.09 86.78 C 155.49 85.72 158.93 84.22 162.56 84.40 C 163.95 84.67 164.28 85.40 163.55 86.59 C 160.41 88.98 156.19 88.72 152.75 90.47 C 167.25 90.79 180.08 102.28 182.77 116.38 C 188.37 117.58 194.01 116.38 199.42 114.92 C 196.82 120.77 190.18 121.75 184.85 123.64 C 189.83 125.06 195.03 124.92 200.15 125.14 C 195.44 129.19 189.29 130.86 183.17 130.99 C 179.15 146.03 167.26 157.70 153.81 164.82 C 135.68 174.25 114.04 176.96 94.17 172.05 C 79.78 168.52 66.25 160.65 57.07 148.89 C 61.76 151.81 66.49 154.86 71.98 156.04 C 84.79 159.35 99.86 156.42 109.17 146.67 C 105.53 146.76 100.86 145.90 99.53 141.98 C 98.72 138.78 101.90 136.95 104.02 135.30 C 97.32 135.78 90.66 132.76 87.15 126.94 C 89.68 124.77 92.91 123.95 96.10 123.36 C 92.32 121.85 88.06 120.91 85.19 117.80 C 83.08 115.69 81.84 112.92 81.01 110.10 C 83.68 109.57 86.37 109.13 89.06 108.73 C 82.94 105.38 77.31 99.54 77.65 92.07 C 90.76 96.52 103.66 101.67 115.96 108.05 C 119.62 109.87 122.18 113.23 125.72 115.24 C 130.47 103.10 136.56 90.23 147.99 83.05 C 147.80 84.05 147.60 85.06 147.40 86.07 Z" />
</g>
</svg>
