<svg xmlns="http://www.w3.org/2000/svg" viewBox="0 0 203.79 78.71"><defs><style>.cls-1{fill:#adadad;stroke:#adadad;stroke-miterlimit:10;stroke-width:3px;}</style></defs><title>Ресурс 4</title><g id="Слой_2" data-name="Слой 2"><g id="Layer_1" data-name="Layer 1"><path class="cls-1" d="M50.2,1.5h9.85v43q0,11.22-2.54,17.82a21.75,21.75,0,0,1-9.17,10.74Q41.72,77.22,31,77.21q-10.46,0-17.11-3.61a20.57,20.57,0,0,1-9.5-10.44Q1.5,56.34,1.5,44.51V1.5h9.85v43q0,9.7,1.8,14.29a13.68,13.68,0,0,0,6.2,7.08,21.48,21.48,0,0,0,10.74,2.49q10.87,0,15.49-4.93T50.2,44.46Z"/><path class="cls-1" d="M76.76,75.95V1.5h9.85V32.07h38.7V1.5h9.85V75.95H125.3V40.86H86.61V75.95Z"/><path class="cls-1" d="M152.07,75.95V1.5h50.22v8.79H161.92V33.34h34.94v8.79H161.92V75.95Z"/></g></g></svg>