<?xml version="1.0" encoding="utf-8"?>
<!-- Generator: Adobe Illustrator 20.1.0, SVG Export Plug-In . SVG Version: 6.00 Build 0)  -->
<svg version="1.1" id="Слой_1" xmlns="http://www.w3.org/2000/svg" xmlns:xlink="http://www.w3.org/1999/xlink" x="0px" y="0px"
	 viewBox="0 0 223.1 144.3" style="enable-background:new 0 0 223.1 144.3;" xml:space="preserve">
<style type="text/css">
	.st0{fill:#ADADAD;}
	.st1{fill:#FFFFFF;}
	.st2{enable-background:new    ;}
</style>
<title>Ресурс 1</title>
<g id="Слой_2">
	<g id="Layer_1">
		<path class="st0" d="M34.7,27.2h139.7c19.2,0,34.7,15.5,34.7,34.7v22.9c0,19.2-15.5,34.7-34.7,34.7H34.7
			C15.5,119.5,0,103.9,0,84.8V61.9C0,42.8,15.5,27.2,34.7,27.2z"/>
		<ellipse class="st0" cx="104.6" cy="72.1" rx="71.7" ry="72.2"/>
		<path class="st1" d="M94.4,112.7l80.8-0.1c0,0,26.3-3.2,26.3-27.1V61.7c0,0-3.1-27.2-27.5-27.2H137c0,0-28.2,1-28.2,28.9v21.2
			C108.8,84.6,110,98.9,94.4,112.7z"/>
		<polygon class="st1" points="73.4,49.1 60.4,49.1 56.4,76.2 51.5,49.3 39.8,49.3 34.8,76.2 30.9,49.3 17.6,49.3 28.7,95.4 
			40.4,95.4 45.5,67 50.7,95.4 62.5,95.4 		"/>
		<rect x="78.9" y="61.8" class="st1" width="11.9" height="33.4"/>
		<ellipse class="st1" cx="85" cy="52.4" rx="6.9" ry="6"/>
		<rect x="171.9" y="61.8" class="st0" width="11.9" height="33.4"/>
		<ellipse class="st0" cx="178" cy="52.4" rx="6.9" ry="6"/>
		<polygon class="st0" points="125,49.3 164.6,49.3 164.6,60.1 137.7,60.1 137.7,70.3 161.9,70.3 161.9,81.1 137.7,81.1 137.7,95 
			125,95 		"/>
		<g class="st2">
			<path class="st0" d="M205,38.1v-8.9h-3.3V28h8v1.2h-3.3v8.9H205z"/>
			<path class="st0" d="M211,38.1V28h2l2.4,7.1c0.2,0.7,0.4,1.2,0.5,1.5c0.1-0.4,0.3-0.9,0.5-1.6l2.4-7h1.8v10h-1.3v-8.4l-2.9,8.4
				h-1.2l-2.9-8.5v8.5H211z"/>
		</g>
	</g>
</g>
</svg>
