<?xml version="1.0" standalone="no"?>
<!DOCTYPE svg PUBLIC "-//W3C//DTD SVG 20010904//EN"
 "http://www.w3.org/TR/2001/REC-SVG-20010904/DTD/svg10.dtd">
<svg version="1.0" xmlns="http://www.w3.org/2000/svg"
 width="300.000000pt" height="300.000000pt" viewBox="0 0 300.000000 300.000000"
 preserveAspectRatio="xMidYMid meet">
<metadata>
Created by potrace 1.11, written by Peter Selinger 2001-2013
</metadata>
<g transform="translate(0.000000,300.000000) scale(0.100000,-0.100000)"
fill="#000000" stroke="none">
<path d="M1340 2994 c-352 -45 -659 -192 -900 -434 -214 -213 -356 -481 -416
-785 -26 -126 -26 -424 0 -550 123 -617 584 -1078 1201 -1201 126 -26 424 -26
550 0 617 123 1078 584 1201 1201 26 126 26 424 0 550 -123 615 -586 1080
-1196 1200 -83 16 -364 28 -440 19z m425 -721 c-26 -109 -398 -1430 -404
-1436 -5 -4 -37 -7 -73 -5 l-65 3 88 315 c48 173 141 503 205 733 l117 417 70
0 69 0 -7 -27z m-655 -321 l0 -88 -365 -150 c-201 -82 -365 -152 -365 -155 0
-3 163 -74 363 -156 l362 -150 3 -88 c3 -80 1 -87 -15 -81 -10 4 -222 93 -471
199 l-452 192 2 85 3 85 465 197 c256 108 466 197 468 197 1 1 2 -39 2 -87z
m1245 -110 l470 -199 0 -84 0 -83 -460 -197 c-253 -109 -466 -198 -472 -198
-10 -1 -13 22 -13 83 l0 84 83 34 c45 19 211 88 369 154 158 65 284 122 280
126 -4 3 -162 70 -352 148 -189 78 -353 146 -362 151 -15 8 -18 24 -18 94 0
47 1 85 3 85 1 0 214 -89 472 -198z"/>
</g>
</svg>
