<?xml version="1.0" standalone="no"?>
<!DOCTYPE svg PUBLIC "-//W3C//DTD SVG 20010904//EN"
 "http://www.w3.org/TR/2001/REC-SVG-20010904/DTD/svg10.dtd">
<svg version="1.0" xmlns="http://www.w3.org/2000/svg"
 width="300.000000pt" height="300.000000pt" viewBox="0 0 300.000000 300.000000"
 preserveAspectRatio="xMidYMid meet">
<metadata>
Created by potrace 1.11, written by Peter Selinger 2001-2013
</metadata>
<g transform="translate(0.000000,300.000000) scale(0.100000,-0.100000)"
fill="#000000" stroke="none">
<path d="M1612 2168 c-5 -18 -87 -309 -182 -647 -95 -338 -174 -621 -177 -628
-4 -11 8 -13 57 -11 l63 3 183 655 c101 360 184 656 184 658 0 1 -27 2 -60 2
-58 0 -59 -1 -68 -32z"/>
<path d="M717 1783 l-418 -177 3 -74 3 -74 418 -179 c230 -98 421 -179 423
-179 2 0 4 35 4 79 l0 79 -305 126 c-167 69 -317 131 -332 137 -32 12 -64 -3
395 184 l242 99 0 78 c0 43 -3 78 -7 78 -5 0 -196 -80 -426 -177z"/>
<path d="M1840 1883 l0 -78 330 -135 c181 -74 326 -138 322 -141 -4 -3 -152
-66 -329 -139 l-323 -133 0 -79 c0 -43 1 -78 3 -78 1 0 189 80 417 178 l415
178 0 78 0 78 -400 169 c-220 93 -408 172 -417 175 -16 5 -18 -3 -18 -73z"/>
</g>
</svg>
