<svg xmlns="http://www.w3.org/2000/svg" viewBox="0 0 24.29 25"><defs><style>.cls-1{fill:#ea2f2f;}</style></defs><title>logo</title><g id="Слой_2" data-name="Слой 2"><g id="Слой_1-2" data-name="Слой 1"><path class="cls-1" d="M10.58.06A12.14,12.14,0,0,0,3.31,3.92,12.53,12.53,0,0,0,.18,10.1a15.86,15.86,0,0,0,0,4.8,12.23,12.23,0,0,0,3.38,6.43,11.7,11.7,0,0,0,6.26,3.47,14.59,14.59,0,0,0,4.67,0,11.7,11.7,0,0,0,6.26-3.47,12.23,12.23,0,0,0,3.38-6.43,10.94,10.94,0,0,0,.17-2.4,10.94,10.94,0,0,0-.17-2.4,12.23,12.23,0,0,0-3.38-6.43A11.61,11.61,0,0,0,14.68.24,16.32,16.32,0,0,0,10.58.06Zm2.21,2.32a.9.9,0,0,1,.27.56.52.52,0,0,1-.23.62c-.29.25-.33.38-.31.91,0,.29,0,.29.69.41a7.2,7.2,0,0,1,5,3.4,5.32,5.32,0,0,1,.68,3.12l0,1.51-6.73,0-6.74,0v-1.3a11,11,0,0,1,.1-1.83,7,7,0,0,1,5.17-4.77,5.58,5.58,0,0,1,.89-.14c.26,0,.27,0,.27-.43a.75.75,0,0,0-.33-.73.81.81,0,0,1-.13-1.19c.16-.21.26-.25.68-.25A1,1,0,0,1,12.79,2.38ZM20.65,13.5a21.25,21.25,0,0,1,.08,2.24v2.17H3.62V13.48l.26,0C4.39,13.39,20.59,13.43,20.65,13.5Z"/><path class="cls-1" d="M8.8,8.65a1.2,1.2,0,0,0-.49,1.64,1.3,1.3,0,0,0,1.14.7,1.27,1.27,0,0,0,.7-2.4A1.57,1.57,0,0,0,8.8,8.65Z"/><path class="cls-1" d="M14,8.65a1.22,1.22,0,0,0-.5,1.67,1.39,1.39,0,0,0,2.15.31,1.13,1.13,0,0,0-.09-1.88A1.36,1.36,0,0,0,14,8.65Z"/></g></g></svg>