<svg xmlns="http://www.w3.org/2000/svg" viewBox="0 0 30.15 30.18"><defs><style>.cls-1{fill:#3c6;}</style></defs><title>logo</title><g id="Слой_2" data-name="Слой 2"><g id="Слой_1-2" data-name="Слой 1"><path class="cls-1" d="M13.13.07a15.2,15.2,0,0,0-9,4.66A15,15,0,0,0,.23,12.19a18.62,18.62,0,0,0,0,5.8,14.64,14.64,0,0,0,4.19,7.77,14.64,14.64,0,0,0,7.77,4.19,18.62,18.62,0,0,0,5.8,0,14.64,14.64,0,0,0,7.77-4.19A14.64,14.64,0,0,0,29.94,18a12.85,12.85,0,0,0,.21-2.9,12.85,12.85,0,0,0-.21-2.9,14.64,14.64,0,0,0-4.19-7.77A14.51,14.51,0,0,0,18.23.29,20.82,20.82,0,0,0,13.13.07ZM11,7.7a22.31,22.31,0,0,1,6.45,1.94c2.39,1.22,3.89,2.83,4.42,4.75a6.84,6.84,0,0,1-.09,4.06l-.19.62-.54-.91A15.5,15.5,0,0,0,14.54,12a19.09,19.09,0,0,0-3-1.25,10.12,10.12,0,0,0,1,.8c3.63,2.82,6.68,6.49,8,9.64a9,9,0,0,1,.84,3.21.86.86,0,0,1-1.07.47c-.29-.09-.35-.22-.64-1.34a16.75,16.75,0,0,0-.65-2l-.33-.78-1.57,0c-4.27-.07-6.24-1.6-7-5.46C9.11,11,8.75,10,7.56,8.53A2.66,2.66,0,0,1,7,7.64,14.31,14.31,0,0,1,11,7.7Z"/></g></g></svg>