<?xml version="1.0" standalone="no"?>
<!DOCTYPE svg PUBLIC "-//W3C//DTD SVG 20010904//EN"
 "http://www.w3.org/TR/2001/REC-SVG-20010904/DTD/svg10.dtd">
<svg version="1.0" xmlns="http://www.w3.org/2000/svg"
 width="300.000000pt" height="300.000000pt" viewBox="0 0 300.000000 300.000000"
 preserveAspectRatio="xMidYMid meet">
<metadata>
Created by potrace 1.11, written by Peter Selinger 2001-2013
</metadata>
<g transform="translate(0.000000,300.000000) scale(0.100000,-0.100000)"
fill="#000000" stroke="none">
<path d="M1325 2994 c-92 -14 -239 -50 -328 -80 -419 -145 -766 -492 -911
-911 -66 -192 -81 -284 -81 -503 0 -219 15 -311 81 -503 145 -419 492 -766
911 -911 192 -66 284 -81 503 -81 219 0 311 15 503 81 419 145 766 492 911
911 66 192 81 284 81 503 0 219 -15 311 -81 503 -144 414 -488 762 -899 907
-179 63 -282 81 -480 85 -99 2 -193 1 -210 -1z m445 -696 c1 -7 -91 -340 -202
-740 l-203 -728 -73 0 c-67 0 -73 2 -67 19 3 10 95 339 205 731 110 391 202
716 206 721 9 14 134 11 134 -3z m-660 -347 l0 -88 -365 -149 c-200 -82 -365
-151 -365 -154 0 -3 163 -73 363 -156 l362 -150 3 -87 c1 -48 -1 -87 -5 -87
-4 0 -215 89 -470 197 l-463 198 0 85 0 85 468 197 c257 109 468 198 470 198
1 0 2 -40 2 -89z m1250 -109 l465 -197 0 -85 0 -85 -460 -197 c-253 -108 -466
-197 -473 -198 -10 0 -12 21 -10 86 l3 85 370 154 370 153 -45 19 c-25 11
-192 80 -372 154 l-328 134 0 88 c0 48 3 87 8 86 4 0 216 -89 472 -197z"/>
</g>
</svg>
