<?xml version="1.0" standalone="no"?>
<!DOCTYPE svg PUBLIC "-//W3C//DTD SVG 20010904//EN"
 "http://www.w3.org/TR/2001/REC-SVG-20010904/DTD/svg10.dtd">
<svg version="1.0" xmlns="http://www.w3.org/2000/svg"
 width="309.000000pt" height="309.000000pt" viewBox="0 0 309.000000 309.000000"
 preserveAspectRatio="xMidYMid meet">
<metadata>
Created by potrace 1.11, written by Peter Selinger 2001-2013
</metadata>
<g transform="translate(0.000000,309.000000) scale(0.100000,-0.100000)"
fill="#000000" stroke="none">
<path d="M1380 3084 c-352 -45 -659 -192 -900 -434 -214 -213 -356 -481 -416
-785 -26 -126 -26 -424 0 -550 123 -617 584 -1078 1201 -1201 126 -26 424 -26
550 0 617 123 1078 584 1201 1201 26 126 26 424 0 550 -123 615 -586 1080
-1196 1200 -83 16 -364 28 -440 19z m266 -614 c287 -36 466 -161 520 -364 21
-78 18 -231 -6 -309 -48 -155 -166 -268 -346 -331 -136 -48 -225 -60 -431 -61
l-193 0 0 -367 0 -368 -110 0 -110 0 0 905 0 905 298 0 c164 0 334 -5 378 -10z"/>
<path d="M1190 1947 l0 -335 67 -8 c37 -4 124 -4 193 -1 256 12 412 83 474
216 31 67 30 219 -1 277 -28 53 -74 99 -124 124 -83 43 -145 52 -381 57 l-228
5 0 -335z"/>
</g>
</svg>
