<svg xmlns="http://www.w3.org/2000/svg" viewBox="0 0 458.19 458.19"><defs><style>.cls-1,.cls-3{fill:none;stroke:#2b2a29;}.cls-1{stroke-width:7px;}.cls-2{fill:#2b2a29;}.cls-3{stroke-width:5px;}</style></defs><title>223 обучение</title><g id="Слой_2" data-name="Слой 2"><g id="Слой_1-2" data-name="Слой 1"><g id="Слой_1-3" data-name="Слой_1"><rect class="cls-1" x="3.5" y="3.5" width="451.19" height="451.19" rx="22.68" ry="22.68"/><path class="cls-2" d="M192.77,267.89V254.34H165.36v-.2l7.14-5.36c10.6-8.62,18.79-17.43,18.79-28.46,0-13.24-9.55-21.94-25.2-21.94-10.2,0-19,3.46-24.69,8L146.56,218c4-3.06,9.64-6.32,16-6.32,8.62,0,12,4.62,12,10.2-.23,7.34-7.46,14.37-24.46,28.46L140.67,258v9.86Zm62.79,0V254.34H228.15v-.2l7.14-5.36c10.63-8.62,18.82-17.43,18.82-28.46,0-13.24-9.58-21.94-25.23-21.94-10.18,0-19,3.46-24.66,8L209.35,218c4-3.06,9.67-6.32,16.07-6.32,8.62,0,12,4.62,12,10.2-.2,7.34-7.46,14.37-24.46,28.46L203.48,258v9.86Zm10.2-4.08c4.31,2.72,12.59,5.36,22.56,5.36,18.09,0,29.62-8.42,29.62-21,0-8.82-7.14-15.14-15.85-16.38v-.23c9.13-2.92,13.32-8.7,13.32-16,0-9.55-8.7-17.21-24.15-17.21-9.86,0-18.91,2.72-23.53,5.67l3.8,11.85a35.87,35.87,0,0,1,16.16-4.51c7.34,0,10.71,3.15,10.71,6.94,0,5.44-6.83,7.46-12.27,7.46h-7.88v12h8.08c7,0,14.06,3.06,14.06,9.47,0,4.93-4.28,8.82-13.12,8.82-7.46,0-15-3.15-17.86-4.62Zm-93.17,51.14v6.52c-14.49,1-33,9.67-33,32.57,0,21.94,16.7,30.44,32.77,31.38V392h16v-6.63c16.61-1.25,33.08-10.06,33.08-32,0-22.48-16.89-31-32.85-31.92v-6.52Zm-.09,58.93c-7.06-.74-16-6.72-16-20.38,0-14.71,9-20,16-20.69Zm16-41.07c7.57.85,16.07,6.09,16.07,20.58,0,14.83-9.24,19.87-16.07,20.49Zm40.28,23.53v10.91h29.71V356.33Zm42.38-21.63c4.39-2.1,11.23-4.54,17.43-4.54,7.14,0,11.34,2.95,11.34,7.57,0,5.36-5.16,8.73-12.7,8.73h-8.42v12.27h8.31c6.29,0,15,1,15,8.82,0,6-5.36,9.16-13.66,9.16-7.46,0-15.85-3.15-19.22-4.73l-3.77,12.61c6.83,4,15.73,5.56,23.53,5.56,13.44,0,30.87-4.73,30.87-21.32,0-9.35-8.42-15.45-17.43-16.5v-.2c8.62-2,14.91-7.46,14.91-16.92,0-10.71-10.09-18.37-26.16-18.37A47.73,47.73,0,0,0,266.92,323Z"/><line class="cls-3" x1="138.83" y1="292.95" x2="313.44" y2="292.95"/><g id="_1964776578784" data-name=" 1964776578784"><path d="M333.42,107.3a11.69,11.69,0,1,0,0-23.39H244.79a11.54,11.54,0,0,0,.79-4.22A11.71,11.71,0,0,0,233.87,68h-7.94A11.71,11.71,0,0,0,214.23,79.7a11.54,11.54,0,0,0,.79,4.22H126.38a11.69,11.69,0,1,0,0,23.39h48v11.48L160.28,154.1a7.83,7.83,0,0,0,.14,6,7.7,7.7,0,0,0,4.45,4.08l55.84,19.7a27.36,27.36,0,0,0,18.37,0l55.84-19.7a7.71,7.71,0,0,0,4.59-10.12l-14.12-35.32V107.3h36.34V200a11.71,11.71,0,0,0-4.85,19,11.76,11.76,0,0,0-3.12,8v23.9a3.73,3.73,0,0,0,3.71,3.74h15.93a3.74,3.74,0,0,0,3.74-3.74V227a11.66,11.66,0,0,0-3.15-8,11.55,11.55,0,0,0,3.15-8,11.76,11.76,0,0,0-8-11.08V107.3Zm-3.74,139.86h-8.45V227a4.22,4.22,0,0,1,8.45,0Zm-4.22-31.83a4.24,4.24,0,1,1,4.22-4.25A4.24,4.24,0,0,1,325.46,215.33ZM221.68,79.7a4.24,4.24,0,0,1,4.25-4.22h7.94a4.22,4.22,0,1,1,0,8.45h-7.94A4.24,4.24,0,0,1,221.68,79.7ZM122.16,95.63a4.23,4.23,0,0,1,4.22-4.22h207a4.22,4.22,0,1,1,0,8.45h-207A4.23,4.23,0,0,1,122.16,95.63Zm170.42,61.43a.17.17,0,0,1-.14.14l-55.81,19.7a20.23,20.23,0,0,1-13.44,0l-55.81-19.7a.17.17,0,0,1-.14-.14.16.16,0,0,1,0-.2l13.44-33.62h98.48l13.44,33.62A.16.16,0,0,1,292.58,157.05Zm-14.66-41.27h-96V107.3h96Z"/></g></g></g></g></svg>