<svg xmlns="http://www.w3.org/2000/svg" viewBox="0 0 458.19 458.19"><defs><style>.cls-1,.cls-3{fill:none;stroke:#2b2a29;}.cls-1{stroke-width:7px;}.cls-2{fill:#2b2a29;}.cls-3{stroke-width:5px;}</style></defs><title>44 обучение_1</title><g id="Слой_2" data-name="Слой 2"><g id="Слой_1-2" data-name="Слой 1"><g id="Слой_1-3" data-name="Слой_1"><rect class="cls-1" x="3.5" y="3.5" width="451.19" height="451.19" rx="22.68" ry="22.68"/><path class="cls-2" d="M216.16,276.76V260.49h8.62v-12.3h-8.62V208.5H194.53l-27,41.27v10.71h32.54v16.27Zm-32.77-28.57.11-.2,9.75-15.14c2.44-4.39,4.42-8.7,6.83-13.32h.43c-.2,4.62-.43,8.93-.43,13.24v15.42ZM279,276.76V260.49h8.62v-12.3H279V208.5H257.34l-27,41.27v10.71H262.9v16.27ZM246.2,248.19l.11-.2,9.75-15.14c2.41-4.39,4.42-8.7,6.83-13.32h.43c-.23,4.62-.43,8.93-.43,13.24v15.42Zm-75.69,75.63v6.52c-14.49,1-33,9.64-33,32.54,0,21.94,16.7,30.47,32.77,31.41v6.6h16v-6.6c16.58-1.28,33.08-10.09,33.08-32,0-22.48-16.89-31-32.85-31.92v-6.52Zm-.09,58.9c-7.06-.74-16-6.72-16-20.35,0-14.71,9-20,16-20.69Zm16-41c7.57.82,16.07,6.09,16.07,20.58,0,14.8-9.24,19.84-16.07,20.47Zm40,23.53v10.91h29.74V365.2Zm42.12-21.66c4.42-2.1,11.25-4.51,17.43-4.51,7.14,0,11.34,2.95,11.34,7.57,0,5.36-5.13,8.7-12.7,8.7h-8.39v12.3h8.28c6.32,0,15,1,15,8.82,0,6-5.36,9.13-13.66,9.13-7.46,0-15.85-3.15-19.22-4.71l-3.77,12.59c6.83,4,15.76,5.58,23.53,5.58,13.44,0,30.87-4.73,30.87-21.34,0-9.33-8.39-15.42-17.43-16.47V361c8.62-2,14.91-7.46,14.91-16.89,0-10.71-10.06-18.4-26.14-18.4a48.05,48.05,0,0,0-24.26,6.21Z"/><line class="cls-3" x1="136.76" y1="305.19" x2="311.37" y2="305.19"/><g id="_1964488379696" data-name=" 1964488379696"><path d="M332.43,96.7a11.69,11.69,0,0,0,0-23.39H243.79a11.7,11.7,0,0,0-10.91-15.93h-8A11.7,11.7,0,0,0,214,73.32H125.36a11.69,11.69,0,0,0,0,23.39h48v11.48l-14.12,35.29a7.58,7.58,0,0,0,.14,6,7.66,7.66,0,0,0,4.45,4.11l55.81,19.7a27.91,27.91,0,0,0,18.4,0l55.81-19.7a7.79,7.79,0,0,0,4.48-4.11,7.7,7.7,0,0,0,.11-6l-14.12-35.29V96.7h36.34V189.4a11.68,11.68,0,0,0-4.82,19,11.6,11.6,0,0,0-3.15,8v23.9A3.73,3.73,0,0,0,316.5,244h15.93a3.71,3.71,0,0,0,3.71-3.71v-23.9a11.71,11.71,0,0,0-3.12-8,11.72,11.72,0,0,0-4.82-19V96.7Zm-3.74,139.86h-8.45V216.41a4.22,4.22,0,0,1,8.45,0Zm-4.22-31.86a4.22,4.22,0,1,1,4.22-4.22A4.23,4.23,0,0,1,324.47,204.7ZM220.69,69.07a4.23,4.23,0,0,1,4.22-4.22h8a4.24,4.24,0,0,1,0,8.48h-8A4.24,4.24,0,0,1,220.69,69.07ZM121.14,85a4.23,4.23,0,0,1,4.22-4.22H332.43a4.24,4.24,0,0,1,0,8.48H125.36A4.24,4.24,0,0,1,121.14,85Zm170.45,61.46c-.06.09-.11.11-.14.11l-55.84,19.7a20.15,20.15,0,0,1-13.41,0l-55.81-19.7a.25.25,0,0,1-.17-.11.42.42,0,0,1,0-.2l13.46-33.62h98.48l13.44,33.62A.42.42,0,0,1,291.59,146.45Zm-14.66-41.3H180.86V96.7h96.07Z"/></g></g></g></g></svg>