<svg xmlns="http://www.w3.org/2000/svg" viewBox="0 0 458.19 458.19"><defs><style>.cls-1,.cls-3{fill:none;stroke:#2b2a29;}.cls-1{stroke-width:7px;}.cls-2{fill:#2b2a29;}.cls-3{stroke-width:5px;}</style></defs><title>44</title><g id="Слой_2" data-name="Слой 2"><g id="Слой_1-2" data-name="Слой 1"><g id="Слой_1-3" data-name="Слой_1"><rect class="cls-1" x="3.5" y="3.5" width="451.19" height="451.19" rx="22.68" ry="22.68"/><path class="cls-2" d="M217.6,201.78V185.51h8.59v-12.3H217.6V133.53H195.94L169,174.8v10.71h32.57v16.27Zm-32.77-28.57.09-.2,9.78-15.14c2.41-4.39,4.39-8.7,6.83-13.32H202c-.23,4.62-.43,8.93-.43,13.24v15.42Zm95.56,28.57V185.51H289v-12.3h-8.62V133.53H258.76l-27,41.27v10.71h32.54v16.27Zm-32.77-28.57.11-.2,9.75-15.14c2.44-4.39,4.42-8.7,6.83-13.32h.43c-.2,4.62-.43,8.93-.43,13.24v15.42ZM172,248.84v6.52c-14.51,1-33,9.67-33,32.54,0,22,16.7,30.47,32.77,31.41v6.6h16v-6.6c16.61-1.25,33.11-10.09,33.11-32,0-22.48-16.92-31-32.88-31.92v-6.52Zm-.11,58.9c-7-.71-16-6.72-16-20.35,0-14.71,9-20,16-20.69Zm16-41c7.57.82,16.07,6.09,16.07,20.58,0,14.8-9.24,19.84-16.07,20.47Zm40,23.53v10.91h29.71V290.22ZM270,268.6c4.39-2.13,11.23-4.54,17.43-4.54,7.11,0,11.34,2.95,11.34,7.57,0,5.36-5.16,8.7-12.73,8.7h-8.39v12.3h8.31c6.29,0,15,1,15,8.82,0,6-5.36,9.16-13.66,9.16-7.46,0-15.87-3.17-19.22-4.73l-3.8,12.59c6.83,4,15.76,5.58,23.53,5.58,13.46,0,30.9-4.73,30.9-21.32,0-9.35-8.42-15.45-17.43-16.5V286c8.59-2,14.91-7.48,14.91-16.92,0-10.71-10.09-18.37-26.16-18.37a48.24,48.24,0,0,0-24.26,6.18Z"/><line class="cls-3" x1="138.2" y1="230.24" x2="312.79" y2="230.24"/></g></g></g></svg>