<svg xmlns="http://www.w3.org/2000/svg" viewBox="0 0 458.19 458.19"><defs><style>.cls-1{fill:none;stroke:#2b2a29;stroke-width:7px;}</style></defs><title>аккредитация</title><g id="Слой_2" data-name="Слой 2"><g id="Слой_1-2" data-name="Слой 1"><g id="Слой_1-3" data-name="Слой_1"><rect class="cls-1" x="3.5" y="3.5" width="451.19" height="451.19" rx="22.68" ry="22.68"/><g id="_1964662923312" data-name=" 1964662923312"><path d="M274.86,274a3.74,3.74,0,1,0,0,7.48,7.51,7.51,0,0,1,7.48,7.48,3.74,3.74,0,0,0,7.48,0A15,15,0,0,0,274.86,274Z"/><path d="M308.51,109.43H151.44a11.25,11.25,0,0,0-11.23,11.23V322.6a11.23,11.23,0,0,0,11.23,11.23h82.32a3.61,3.61,0,0,0,.31,1.08,3.68,3.68,0,0,0,2.72,2.1l9.69,1.76,8.59,8.9a3.71,3.71,0,0,0,2.69,1.13,2.44,2.44,0,0,0,.45,0,3.69,3.69,0,0,0,2.78-1.84l7.48-13.1h12.67l7.4,13.07a3.77,3.77,0,0,0,2.78,1.87,2.75,2.75,0,0,0,.48,0,3.75,3.75,0,0,0,2.69-1.13l8.56-8.9,9.72-1.76a3.72,3.72,0,0,0,2.58-5.5,11.34,11.34,0,0,0,4.37-8.9V120.66A11.23,11.23,0,0,0,308.51,109.43ZM147.7,322.6V120.66a3.74,3.74,0,0,1,3.74-3.74H308.51a3.74,3.74,0,0,1,3.74,3.74V322.6a3.58,3.58,0,0,1-.74,2.21L300.12,305a29.94,29.94,0,1,0-50.51,0l-12.42,21.37H151.44A3.74,3.74,0,0,1,147.7,322.6Zm127.16-11.2a22.45,22.45,0,1,1,22.45-22.45A22.47,22.47,0,0,1,274.86,311.4ZM257,338.87l-6-6.15a3.72,3.72,0,0,0-2-1.11l-5.64-1,11.37-19.53a30.09,30.09,0,0,0,14,7.2Zm15.76-12.53,2.07-3.66,2.1,3.66Zm27.78,5.27a3.89,3.89,0,0,0-2,1.08l-5.92,6.15-11.68-20.58a29.93,29.93,0,0,0,14.06-7.2l11.23,19.53Z"/><path d="M259.89,165.53a3.74,3.74,0,0,0,0-7.48H200.05a3.74,3.74,0,1,0,0,7.48Z"/><path d="M278.6,176.75H181.37a3.74,3.74,0,1,0,0,7.48H278.6a3.74,3.74,0,0,0,0-7.48Z"/><path d="M192.57,214.14h3.74a3.74,3.74,0,1,0,0-7.48h-3.74a3.74,3.74,0,0,0,0,7.48Z"/><path d="M192.57,232.85h3.74a3.74,3.74,0,1,0,0-7.48h-3.74a3.74,3.74,0,0,0,0,7.48Z"/><path d="M192.57,251.56h3.74a3.74,3.74,0,1,0,0-7.48h-3.74a3.74,3.74,0,0,0,0,7.48Z"/><path d="M267.38,206.66h-56.1a3.74,3.74,0,1,0,0,7.48h56.1a3.74,3.74,0,0,0,0-7.48Z"/><path d="M267.38,225.37h-56.1a3.74,3.74,0,1,0,0,7.48h56.1a3.74,3.74,0,0,0,0-7.48Z"/><path d="M267.38,244.08h-56.1a3.74,3.74,0,1,0,0,7.48h56.1a3.74,3.74,0,0,0,0-7.48Z"/><path d="M177.63,285.21a3.74,3.74,0,0,0,3.74,3.74H215a3.74,3.74,0,0,0,0-7.48H181.37A3.74,3.74,0,0,0,177.63,285.21Z"/><path d="M230,311.4H177.24a18.76,18.76,0,0,0-14.57-14.6V146.45a18.72,18.72,0,0,0,14.57-14.57H282.71a18.8,18.8,0,0,0,14.6,14.57V259a3.73,3.73,0,0,0,7.46,0v-116a3.75,3.75,0,0,0-3.71-3.74,11.21,11.21,0,0,1-11.23-11.2,3.74,3.74,0,0,0-3.74-3.74H173.89a3.74,3.74,0,0,0-3.74,3.74,11.23,11.23,0,0,1-11.23,11.2,3.76,3.76,0,0,0-3.74,3.74v157.1a3.74,3.74,0,0,0,3.74,3.74,11.23,11.23,0,0,1,11.23,11.23,3.76,3.76,0,0,0,3.74,3.74H230a3.74,3.74,0,1,0,0-7.48Z"/></g></g></g></g></svg>