<svg xmlns="http://www.w3.org/2000/svg" viewBox="0 0 458.19 458.19"><defs><style>.cls-1{fill:none;stroke:#2b2a29;stroke-width:7px;}</style></defs><title>банковская гарантия</title><g id="Слой_2" data-name="Слой 2"><g id="Слой_1-2" data-name="Слой 1"><g id="Слой_1-3" data-name="Слой_1"><rect class="cls-1" x="3.5" y="3.5" width="451.19" height="451.19" rx="22.68" ry="22.68"/><g id="_1962921011184" data-name=" 1962921011184"><path d="M337.31,301.65H319.87V187.75h17.43a4.49,4.49,0,0,0,2.21-8.39l-108.2-61.46a4.55,4.55,0,0,0-4.42,0L118.7,179.36a4.49,4.49,0,0,0,2.21,8.39h17.43v113.9H120.91a4.49,4.49,0,0,0-4.48,4.48V336.4a4.49,4.49,0,0,0,4.48,4.48h216.4a4.49,4.49,0,0,0,4.48-4.48V306.13A4.49,4.49,0,0,0,337.31,301.65ZM137.92,178.77h0L229.11,127l91.19,51.79Zm173,9v113.9H295.24V187.75Zm-24.66,0v113.9H270.58V187.75Zm-24.66,0v113.9H245.92V187.75Zm-24.66,0v113.9H221.29V187.75Zm-24.63,0v113.9H196.62V187.75Zm-24.66,0v113.9H172V187.75Zm-24.66,0v113.9H147.3V187.75ZM332.83,331.92H125.39V310.63H332.83Z"/><path d="M229.11,141.26a15.34,15.34,0,1,0,15.34,15.34A15.36,15.36,0,0,0,229.11,141.26Zm0,21.69a6.35,6.35,0,1,1,6.35-6.35A6.34,6.34,0,0,1,229.11,162.95Z"/><path d="M199.74,317H137.41a4.48,4.48,0,1,0,0,9h62.33a4.48,4.48,0,0,0,0-9Z"/><path d="M219.61,317h-5a4.48,4.48,0,0,0,0,9h5a4.48,4.48,0,1,0,0-9Z"/></g></g></g></g></svg>