<svg xmlns="http://www.w3.org/2000/svg" viewBox="0 0 363.03 363.06"><title>call</title><g id="Слой_2" data-name="Слой 2"><g id="Слой_1-2" data-name="Слой 1"><g id="Слой_1-3" data-name="Слой_1"><g id="_2171026091232" data-name=" 2171026091232"><path d="M219,92.27H144.06a13.15,13.15,0,0,0-13.12,13.12V257.67a13.15,13.15,0,0,0,13.12,13.12H219a13.15,13.15,0,0,0,13.12-13.12V105.39A13.15,13.15,0,0,0,219,92.27Zm-82.09,23.81h89.26v113H136.89Zm7.17-17.86H219a7.16,7.16,0,0,1,7.17,7.17v4.73H136.89v-4.73A7.16,7.16,0,0,1,144.06,98.22ZM219,264.84H144.06a7.16,7.16,0,0,1-7.17-7.17V235.08h89.26v22.59A7.16,7.16,0,0,1,219,264.84Z"/><path d="M219,93.37H144.06a12,12,0,0,0-12,12V257.67a12.09,12.09,0,0,0,3.51,8.5v0a12,12,0,0,0,8.5,3.54H219a12.09,12.09,0,0,0,8.5-3.51h0a12.09,12.09,0,0,0,3.51-8.5V105.39a12,12,0,0,0-12-12Zm-74.92-2.21H219a14.23,14.23,0,0,1,14.23,14.23V257.67A14.28,14.28,0,0,1,229,267.73h0A14.33,14.33,0,0,1,219,271.9H144.06A14.28,14.28,0,0,1,134,267.73v0a14.09,14.09,0,0,1-4.17-10V105.39a14.23,14.23,0,0,1,14.23-14.23ZM136.89,115h90.37V230.23H135.78V115ZM225,117.18H138V228H225Zm-81-20.07H219a8.32,8.32,0,0,1,8.28,8.28v5.84H135.78v-5.84a8.32,8.32,0,0,1,8.28-8.28ZM219,99.33H144.06a6.1,6.1,0,0,0-6.07,6.07V109H225v-3.63A6.1,6.1,0,0,0,219,99.33Zm0,166.62H144.06a8.32,8.32,0,0,1-8.28-8.28V234h91.47v23.7a8.32,8.32,0,0,1-8.28,8.28Zm-74.92-2.21H219a6.1,6.1,0,0,0,6.07-6.07V236.18H138v21.49a6.1,6.1,0,0,0,6.07,6.07Z"/><path d="M181.5,238.05A11.91,11.91,0,1,0,193.41,250,11.9,11.9,0,0,0,181.5,238.05Zm0,17.86a6,6,0,1,1,6-6A5.95,5.95,0,0,1,181.5,255.91Z"/><path d="M181.5,239.16a10.79,10.79,0,1,0,7.65,3.17A10.76,10.76,0,0,0,181.5,239.16Zm-9.18,1.62a13,13,0,1,1-3.8,9.18A13,13,0,0,1,172.32,240.77ZM181.5,257a7,7,0,0,1-5-2.07,7,7,0,0,1,0-10,7,7,0,1,1,5,12Zm-3.4-3.63a4.82,4.82,0,0,0,6.83,0,4.86,4.86,0,0,0,0-6.86,4.82,4.82,0,0,0-6.83,0,4.86,4.86,0,0,0,0,6.86Z"/><path d="M169.63,107.15H181.5a3,3,0,1,0,0-6H169.63a3,3,0,0,0,0,6Z"/><path d="M169.63,106H181.5a1.84,1.84,0,0,0,1.33-.54,1.92,1.92,0,0,0,0-2.66,2,2,0,0,0-1.33-.54H169.63a1.84,1.84,0,0,0-1.33.54h0a1.92,1.92,0,0,0,0,2.66h0A1.84,1.84,0,0,0,169.63,106Zm11.88,2.21H169.63a4.07,4.07,0,0,1-2.89-1.19h0a4.07,4.07,0,0,1-1.19-2.89,4.17,4.17,0,0,1,1.19-2.89h0a4.07,4.07,0,0,1,2.89-1.19H181.5a4.09,4.09,0,0,1,2.89,7h0A4.07,4.07,0,0,1,181.5,108.26Z"/><path d="M190.43,107.15h3a3,3,0,0,0,0-6h-3a3,3,0,1,0,0,6Z"/><path d="M190.43,106h3a1.84,1.84,0,0,0,1.33-.54,1.92,1.92,0,0,0,0-2.66,2,2,0,0,0-1.33-.54h-3a1.77,1.77,0,0,0-1.3.54h0a1.85,1.85,0,0,0,0,2.66h0A1.77,1.77,0,0,0,190.43,106Zm3,2.21h-3a4.05,4.05,0,0,1-2.86-1.19h0a4,4,0,0,1-1.22-2.89,4.08,4.08,0,0,1,1.22-2.89h0a4.05,4.05,0,0,1,2.86-1.19h3a4.09,4.09,0,0,1,2.89,7h0A4.07,4.07,0,0,1,193.41,108.26Z"/><path d="M260.7,105.87a3,3,0,0,0-4.22,0,3,3,0,0,0,0,4.2,28.57,28.57,0,0,1,0,40.34,3,3,0,0,0,0,4.2,3,3,0,0,0,2.1.88,3.1,3.1,0,0,0,2.13-.88A34.49,34.49,0,0,0,260.7,105.87Z"/><path d="M259.91,106.64a2,2,0,0,0-1.33-.54,1.92,1.92,0,0,0-1.3.54,1.85,1.85,0,0,0,0,2.66h0a29.67,29.67,0,0,1,0,41.87h0a1.85,1.85,0,0,0,0,2.66v0a1.45,1.45,0,0,0,.6.43h0a2.1,2.1,0,0,0,.71.14,2.13,2.13,0,0,0,.74-.14h0a1.94,1.94,0,0,0,.6-.43h0a33.36,33.36,0,0,0,0-47.14Zm-1.33-2.75a4.08,4.08,0,0,1,2.89,1.19h0a35.62,35.62,0,0,1,0,50.31h0a3.9,3.9,0,0,1-1.33.88,4.13,4.13,0,0,1-1.56.31,4.37,4.37,0,0,1-1.56-.31,4.07,4.07,0,0,1-1.3-.88v0a3.93,3.93,0,0,1-1.22-2.86,4,4,0,0,1,1.22-2.89h0a27.48,27.48,0,0,0,0-38.75h0a4,4,0,0,1,0-5.78A4.06,4.06,0,0,1,258.58,103.89Z"/><path d="M248.17,112.65a3,3,0,0,0-4.22,0,3,3,0,0,0,0,4.2,19.57,19.57,0,0,1,0,27.61,3,3,0,0,0,0,4.2,2.92,2.92,0,0,0,2.1.88,3,3,0,0,0,2.13-.88,25.53,25.53,0,0,0,0-36Z"/><path d="M247.38,113.41a1.88,1.88,0,0,0-2.64,0,1.85,1.85,0,0,0,0,2.66,20.51,20.51,0,0,1,4.45,6.66,20.84,20.84,0,0,1,0,15.82,20.51,20.51,0,0,1-4.45,6.66,1.85,1.85,0,0,0,0,2.66h0a1.69,1.69,0,0,0,.6.4h0a2.1,2.1,0,0,0,.71.14,2.13,2.13,0,0,0,.74-.14h0a2,2,0,0,0,.6-.4h0a24.29,24.29,0,0,0,0-34.47ZM246,110.66a4.08,4.08,0,0,1,2.89,1.19h0a26.66,26.66,0,0,1,5.75,29,26.72,26.72,0,0,1-5.75,8.62h0a3.9,3.9,0,0,1-1.33.88,4.13,4.13,0,0,1-1.56.31,4.37,4.37,0,0,1-1.56-.31,4.07,4.07,0,0,1-1.3-.88h0a4,4,0,0,1,0-5.78,18.36,18.36,0,0,0,0-26,4,4,0,0,1,0-5.78A4.06,4.06,0,0,1,246,110.66Z"/><path d="M106.55,110.07a3,3,0,0,0,0-4.2,3,3,0,0,0-4.22,0,34.49,34.49,0,0,0,0,48.73,3,3,0,0,0,4.22,0,3,3,0,0,0,0-4.2A28.57,28.57,0,0,1,106.55,110.07Z"/><path d="M105.76,109.3a1.85,1.85,0,0,0,0-2.66,1.88,1.88,0,0,0-2.64,0,33.4,33.4,0,0,0,0,47.17,1.66,1.66,0,0,0,.6.43,2.13,2.13,0,0,0,.74.14,2.1,2.1,0,0,0,.71-.14h0a1.66,1.66,0,0,0,.6-.43v0a1.85,1.85,0,0,0,0-2.66h0a29.67,29.67,0,0,1,0-41.87Zm1.56,1.56h0a27.48,27.48,0,0,0,0,38.75h0a4.11,4.11,0,0,1,1.22,2.89,4,4,0,0,1-1.22,2.86v0a4.07,4.07,0,0,1-1.3.88,4.37,4.37,0,0,1-1.56.31,4.13,4.13,0,0,1-1.56-.31,3.9,3.9,0,0,1-1.33-.88,35.62,35.62,0,0,1,0-50.31,4.08,4.08,0,1,1,5.75,5.78Z"/><path d="M119.08,111.83a3,3,0,0,0-4.22,0,25.53,25.53,0,0,0,0,36,3,3,0,1,0,4.22-4.2,19.5,19.5,0,0,1,0-27.61A3,3,0,0,0,119.08,111.83Z"/><path d="M118.29,112.59a1.88,1.88,0,0,0-2.64,0h0a24.57,24.57,0,0,0-5.3,26.56,24.87,24.87,0,0,0,5.3,7.91,2,2,0,0,0,.6.4h0a2.13,2.13,0,0,0,.74.14,2.1,2.1,0,0,0,.71-.14,2,2,0,0,0,.6-.4h0a1.85,1.85,0,0,0,0-2.66,21.05,21.05,0,0,1-4.48-6.66,20.84,20.84,0,0,1,0-15.82,20.59,20.59,0,0,1,4.48-6.66,1.92,1.92,0,0,0,0-2.66Zm-1.3-2.75a4.06,4.06,0,0,1,2.86,1.19h0a4.11,4.11,0,0,1,0,5.78h0a18.2,18.2,0,0,0-4,6,18.63,18.63,0,0,0,0,14.12,18.2,18.2,0,0,0,4,6,4,4,0,0,1,0,5.78h0a4.07,4.07,0,0,1-1.3.88,4.12,4.12,0,0,1-3.15,0,4.07,4.07,0,0,1-1.3-.88,26.51,26.51,0,0,1,0-37.59h0A4.08,4.08,0,0,1,117,109.84Z"/><path d="M23.22,0h316.6A23.28,23.28,0,0,1,363,23.22V339.85a23.28,23.28,0,0,1-23.22,23.22H23.22A23.28,23.28,0,0,1,0,339.85V23.22A23.28,23.28,0,0,1,23.22,0Zm316.6,11.06H23.22A12.19,12.19,0,0,0,11.06,23.22V339.85A12.19,12.19,0,0,0,23.22,352h316.6A12.19,12.19,0,0,0,352,339.85V23.22a12.19,12.19,0,0,0-12.16-12.16Z"/></g></g></g></g></svg>