<svg xmlns="http://www.w3.org/2000/svg" viewBox="0 0 458.19 458.19"><defs><style>.cls-1{fill:#fff;}.cls-2{fill:none;stroke:#fff;stroke-width:7px;}</style></defs><title>call-white</title><g id="Слой_2" data-name="Слой 2"><g id="Слой_1-2" data-name="Слой 1"><g id="Слой_1-3" data-name="Слой_1"><g id="_1964462763120" data-name=" 1964462763120"><path class="cls-1" d="M277.13,114.67H181.06a16.83,16.83,0,0,0-16.81,16.81V326.71a16.83,16.83,0,0,0,16.81,16.81h96.07a16.83,16.83,0,0,0,16.81-16.81V131.48A16.83,16.83,0,0,0,277.13,114.67ZM171.88,145.2H286.31V290.11H171.88Zm9.18-22.9h96.07a9.22,9.22,0,0,1,9.18,9.18v6.09H171.88v-6.09A9.22,9.22,0,0,1,181.06,122.3Zm96.07,213.56H181.06a9.19,9.19,0,0,1-9.18-9.16v-29H286.31v29A9.19,9.19,0,0,1,277.13,335.86Z"/><path class="cls-1" d="M229.08,301.56a15.25,15.25,0,1,0,15.28,15.25A15.27,15.27,0,0,0,229.08,301.56Zm0,22.88a7.63,7.63,0,1,1,7.65-7.63A7.65,7.65,0,0,1,229.08,324.44Z"/><path class="cls-1" d="M213.83,133.75h15.25a3.81,3.81,0,1,0,0-7.63H213.83a3.81,3.81,0,0,0,0,7.63Z"/><path class="cls-1" d="M240.53,133.75h3.83a3.81,3.81,0,0,0,0-7.63h-3.83a3.81,3.81,0,0,0,0,7.63Z"/><path class="cls-1" d="M330.59,132.11a3.81,3.81,0,0,0-5.39,5.39,36.65,36.65,0,0,1,0,51.7,3.8,3.8,0,0,0,2.69,6.49,3.82,3.82,0,0,0,2.69-1.11A44.26,44.26,0,0,0,330.59,132.11Z"/><path class="cls-1" d="M314.52,140.78a3.83,3.83,0,0,0-5.39,0,3.78,3.78,0,0,0,0,5.39,25.08,25.08,0,0,1,0,35.4,3.78,3.78,0,0,0,0,5.39,3.82,3.82,0,0,0,2.69,1.11,3.77,3.77,0,0,0,2.69-1.11,32.68,32.68,0,0,0,0-46.18Z"/><path class="cls-1" d="M133,137.49a3.81,3.81,0,1,0-5.39-5.39,44.26,44.26,0,0,0,0,62.48,3.82,3.82,0,0,0,2.69,1.11A3.8,3.8,0,0,0,133,189.2,36.65,36.65,0,0,1,133,137.49Z"/><path class="cls-1" d="M149.06,139.73a3.83,3.83,0,0,0-5.39,0,32.68,32.68,0,0,0,0,46.18,3.77,3.77,0,0,0,2.69,1.11,3.81,3.81,0,0,0,2.69-6.52,25,25,0,0,1,0-35.38A3.83,3.83,0,0,0,149.06,139.73Z"/></g><rect class="cls-2" x="3.5" y="3.5" width="451.19" height="451.19" rx="22.68" ry="22.68"/></g></g></g></svg>