<svg xmlns="http://www.w3.org/2000/svg" viewBox="0 0 458.19 458.19"><defs><style>.cls-1{fill:none;stroke:#2b2a29;stroke-width:7px;}</style></defs><title>заказчики</title><g id="Слой_2" data-name="Слой 2"><g id="Слой_1-2" data-name="Слой 1"><g id="Слой_1-3" data-name="Слой_1"><rect class="cls-1" x="3.5" y="3.5" width="451.19" height="451.19" rx="22.68" ry="22.68"/><g id="_1964784542544" data-name=" 1964784542544"><path d="M183.44,215.42a59.62,59.62,0,0,0,13.49,37.53c9,10.89,20.78,16.87,33.14,16.87s24.12-6,33.11-16.87a59.62,59.62,0,0,0,13.46-37.5V203.57a161.24,161.24,0,0,0,4.17-36c0-10.6-1.16-17.94-2.24-21.26a3.87,3.87,0,0,0-4.05-2.66,3.28,3.28,0,0,0-.91,0c-7.2,1-16.07-.77-25.46-2.64-15.19-3.06-32.34-6.49-45.47,2.61l-.37,0a23.6,23.6,0,0,0-18.43,8.31c-4.17,4.93-6.46,11.74-6.46,19.13,0,12.1,5.16,34.5,6,38.07v6.29ZM257.2,248c-7.48,9-17.12,14-27.13,14s-19.64-5-27.16-14.06a51.68,51.68,0,0,1-11.71-32.57v-4.65c0-9.61,6.43-22.65,8.9-27.24,34.89-4,58.25,5.64,63.55,8.11l5.22,12.27v11.54A51.82,51.82,0,0,1,257.2,248Zm-54.88-96.63a3.85,3.85,0,0,0,.82-.09,3.94,3.94,0,0,0,3.17-.71c10.46-7.94,25.63-4.9,40.31-2,7.88,1.59,15.39,3.09,22.37,3.09q1.45,0,2.89-.09c1.16,6.58,2.1,20.72-.54,38.24l-1.08-2.58a3.89,3.89,0,0,0-1.73-1.9c-1.11-.62-27.72-14.83-71.06-9.41a3.93,3.93,0,0,0-3.17,2,107.48,107.48,0,0,0-6.55,13.86c-1.33-7.2-2.55-15.28-2.55-20.75C185.2,157.48,193.82,151.38,202.32,151.38Z"/><path d="M296.94,278.4a.83.83,0,0,0-.26-.06l-23.1-4.85-6.09-9.24a1.2,1.2,0,0,0-.14-.2,6.91,6.91,0,0,0-4.65-2.69,7,7,0,0,0-5.13,1.5s-.06.06-.09.06L230,286.57l-27.47-23.64s-.06,0-.09-.06a7,7,0,0,0-5.13-1.5,6.91,6.91,0,0,0-4.65,2.69,1.2,1.2,0,0,0-.14.2l-6.09,9.24-23.1,4.85a.83.83,0,0,0-.26.06,29.48,29.48,0,0,0-16.53,12,33.49,33.49,0,0,0-5.78,18.6v7.29c0,6.41,5.7,11.62,12.73,11.62h153c7,0,12.73-5.22,12.73-11.62V309a33.49,33.49,0,0,0-5.78-18.6A29.48,29.48,0,0,0,296.94,278.4Zm-35.26-8.84,4.82,7.31-19.28,26.53L235.74,291.9Zm-34.19,42.89h5.07l1.56,7.74h-8.19Zm6.41-9.89c0,1.28-.77,2.13-1.28,2.13h-5.19c-.51,0-1.28-.85-1.28-2.13v-1.5L230,297.2l3.86,3.86v1.5Zm-35.52-33,25.94,22.34-11.48,11.51-19.28-26.53Zm-49.8,46.77V309c0-9.16,5.67-20,16.53-23.13l22.08-4.62,22.05,30.33a3.78,3.78,0,0,0,2.83,1.59,1.16,1.16,0,0,0,.31,0,3.89,3.89,0,0,0,2.72-1.13l4.54-4.54a8.59,8.59,0,0,0,.68,1.08L218,320.19H153.54C150.84,320.19,148.58,318.43,148.58,316.33Zm162.91,0c0,2.1-2.27,3.86-4.93,3.86H242l-2.3-11.54a8.59,8.59,0,0,0,.68-1.08l4.54,4.54a3.89,3.89,0,0,0,2.72,1.13,1.06,1.06,0,0,0,.31,0,3.78,3.78,0,0,0,2.83-1.59l22.05-30.33L295,285.92c10.86,3.09,16.53,14,16.53,23.13Z"/><path d="M137,222.7a37.53,37.53,0,0,0,9,24.92,29.35,29.35,0,0,0,22.22,10.46,28.66,28.66,0,0,0,17.6-6.09,3.88,3.88,0,1,0-4.73-6.15,21.13,21.13,0,0,1-12.87,4.48c-13,0-23.5-12.39-23.5-27.61v-2.27c0-6.15,2.52-14.26,3.86-18.09,8.39-.77,15.87.34,22,1.25l.71.11a3.61,3.61,0,0,0,.57,0,3.87,3.87,0,0,0,.54-7.71l-.68-.11c-7.14-1-16-2.35-26.36-1,0,0,0,0-.06,0h0a1.42,1.42,0,0,0-.34.06.4.4,0,0,0-.17.06.53.53,0,0,0-.2.06.45.45,0,0,0-.23.09s-.06,0-.11,0-.14.09-.23.11-.06,0-.11.06a.46.46,0,0,1-.2.11l-.11.09-.17.14s-.09.06-.14.11-.09.06-.11.11a.75.75,0,0,0-.17.14.39.39,0,0,0-.09.11.75.75,0,0,0-.14.17l-.09.11c-.06.06-.09.14-.14.2l-.09.17-.09.14-.17.34h0v.06c-.09.17-.37.88-.77,2a55.83,55.83,0,0,1-.51-6.66c0-8.39,4.05-12.13,8.08-12.13a3.47,3.47,0,0,0,.54-.06,3.65,3.65,0,0,0,2.92-.74c3.6-2.75,8.28-3.69,15.14-3a3.87,3.87,0,1,0,.77-7.71c-5.27-.54-12.87-.68-19.5,3.74-9.24.09-15.7,8.25-15.7,19.9,0,8.19,3.23,23.07,3.86,25.85Z"/><path d="M133,293H115.7c-1.22,0-2.13-.74-2.13-1.39v-5c0-5.78,3.54-12.59,10.32-14.54l14.14-3,7.29,10.54a4,4,0,0,0,3.2,1.67,3.8,3.8,0,0,0,2.21-.71,3.87,3.87,0,0,0,1-5.39l-7.26-10.49,2.15-3.26,15.14,11.31a3.89,3.89,0,0,0,4.65-6.24l-16.64-12.39a5.88,5.88,0,0,0-8.33,1.08c-.06.06-.09.14-.14.2l-3.88,5.87-15.22,3.2a.83.83,0,0,0-.26.06c-10.54,2.95-16.1,13.32-16.1,22.05v5c0,5,4.45,9.13,9.89,9.13H133a3.87,3.87,0,1,0,0-7.74Z"/><path d="M288.18,172.67a134.25,134.25,0,0,1,18.11,2.13c4.62.77,9,1.47,12.87,1.7-.14,9.21-.74,17.46-1.42,24.12,0,0,0,0,0,0l-.2-.11s-.06-.06-.09-.06-.06-.06-.09-.06,0,0,0,0c-7.77-4.68-17.18-7.37-28.77-8.22a3.88,3.88,0,0,0-.6,7.74c9.89.74,17.91,2.89,24.46,6.6a37.91,37.91,0,0,1,2.92,14v2.27c0,15.22-10.54,27.61-23.5,27.61A21.13,21.13,0,0,1,279,245.83a3.88,3.88,0,1,0-4.73,6.15,28.66,28.66,0,0,0,17.6,6.09,29.35,29.35,0,0,0,22.22-10.46,37.53,37.53,0,0,0,9-24.92v-4.2A264.57,264.57,0,0,0,327,173.66a4.35,4.35,0,0,0,.11-1.22,3.87,3.87,0,0,0-3.91-3.63h-.31c-3.77.2-9.38-.71-15.31-1.67a139.45,139.45,0,0,0-19.22-2.21,3.87,3.87,0,1,0-.14,7.74Z"/><path d="M338.16,264.63a.83.83,0,0,0-.26-.06l-15.22-3.2-3.88-5.87a.86.86,0,0,0-.14-.2,5.76,5.76,0,0,0-4-2.3,5.85,5.85,0,0,0-4.34,1.22l-16.61,12.39a3.88,3.88,0,0,0,4.62,6.24l15.14-11.31,2.15,3.26-7.26,10.49a3.87,3.87,0,0,0,1,5.39,3.8,3.8,0,0,0,2.21.71,3.92,3.92,0,0,0,3.2-1.67L322,269.16l14.14,3c6.77,2,10.32,8.76,10.32,14.54v5c0,.65-.91,1.39-2.13,1.39H327.07a3.87,3.87,0,1,0,0,7.74h17.29c5.44,0,9.89-4.08,9.89-9.13v-5C354.26,278,348.73,267.58,338.16,264.63Z"/></g></g></g></g></svg>