<svg xmlns="http://www.w3.org/2000/svg" viewBox="0 0 458.19 458.19"><defs><style>.cls-1{fill:none;stroke:#2b2a29;stroke-width:7px;}</style></defs><title>защита</title><g id="Слой_2" data-name="Слой 2"><g id="Слой_1-2" data-name="Слой 1"><g id="Слой_1-3" data-name="Слой_1"><g id="_1964458595472" data-name=" 1964458595472"><path d="M318.88,141.75c-55.67,0-80.65-28.74-81-29.17a3.94,3.94,0,0,0-5.84,0c-.26.28-24.94,29.14-81,29.14a3.85,3.85,0,0,0-3.83,3.83v72.82c0,39.8,17.91,77.64,47.88,101.2A116.34,116.34,0,0,0,233.87,340a3.5,3.5,0,0,0,2.15,0,116.34,116.34,0,0,0,38.81-20.41c30-23.56,47.88-61.4,47.88-101.2V145.54A3.8,3.8,0,0,0,318.88,141.75Zm-3.8,76.62c0,37.47-16.81,73.08-45,95.19a109.27,109.27,0,0,1-35.18,18.79,109.56,109.56,0,0,1-35.18-18.79c-28.15-22.11-45-57.71-45-95.19V149.31c46.71-1,72-21,80.14-28.77,8.14,7.8,33.42,27.75,80.14,28.77Z"/><path d="M232.79,141.75c-11.48,7.82-31.12,17.89-59.36,21.49a3.82,3.82,0,0,0-3.34,3.8v51.34c0,32.85,14.63,63.95,39.12,83.2a95.71,95.71,0,0,0,24.35,14.12,3.48,3.48,0,0,0,1.39.28,3.73,3.73,0,0,0,2.15-.68,3.77,3.77,0,0,0,1.67-3.15V144.89a3.82,3.82,0,0,0-6-3.15Zm-1.67,164.58a92.25,92.25,0,0,1-17.21-10.77c-22.65-17.8-36.2-46.66-36.2-77.19v-48c23.67-3.51,41.41-11.34,53.4-18.51Z"/></g><rect class="cls-1" x="3.5" y="3.5" width="451.19" height="451.19" rx="22.68" ry="22.68"/></g></g></g></svg>