<svg xmlns="http://www.w3.org/2000/svg" viewBox="0 0 458.19 458.19"><defs><style>.cls-1{fill:none;stroke:#2b2a29;stroke-width:7px;}</style></defs><title>защита в фас</title><g id="Слой_2" data-name="Слой 2"><g id="Слой_1-2" data-name="Слой 1"><g id="Слой_1-3" data-name="Слой_1"><g id="_1964471887456" data-name=" 1964471887456"><path d="M329.17,277H325v-4.2a11.52,11.52,0,0,0-11.54-11.51H258.53A11.52,11.52,0,0,0,247,272.79V277h-4.17a11.52,11.52,0,0,0-11.54,11.51v7.85A3.68,3.68,0,0,0,235,300H337a3.68,3.68,0,0,0,3.69-3.69V288.5A11.52,11.52,0,0,0,329.17,277Zm-74.83-4.2a4.18,4.18,0,0,1,4.2-4.17h54.94a4.17,4.17,0,0,1,4.17,4.17V277h-63.3Zm79,19.87H238.63V288.5a4.18,4.18,0,0,1,4.2-4.17h86.34a4.17,4.17,0,0,1,4.17,4.17v4.17Z"/><path d="M239.48,212.61l-.17.17a11.51,11.51,0,0,0,0,16.3,11.53,11.53,0,0,0,16.3,0l22.22-22.2a11.57,11.57,0,0,0,3.37-8.16,11.57,11.57,0,0,0-11.54-11.54,11.57,11.57,0,0,0-8.16,3.37l-.17.2-6.58-6.58a7.56,7.56,0,0,0-1.93-7.48l-27.75-27.75A7.56,7.56,0,0,0,217.6,147L211,140.44l.17-.17a11.54,11.54,0,1,0-16.3-16.33l-22.2,22.22a11.53,11.53,0,0,0,16.3,16.3l.17-.17,6.58,6.58a7.36,7.36,0,0,0-.31,2.1,7.55,7.55,0,0,0,2.24,5.39l2.95,2.95-14.06,14a11.4,11.4,0,0,0-3.32,8.9l-66.36,66.33a11.57,11.57,0,0,0,0,16.33,11.57,11.57,0,0,0,16.33,0l66.33-66.36a6.45,6.45,0,0,0,.74.06,11.48,11.48,0,0,0,8.14-3.37l14.06-14.06,2.95,2.95a7.72,7.72,0,0,0,7.48,1.93l6.58,6.58Zm30.19-18.06a4.17,4.17,0,0,1,2.95,7.11l-22.2,22.22A4.19,4.19,0,1,1,244.5,218l2.78-2.75h0l19.45-19.45A4.14,4.14,0,0,1,269.67,194.56Zm-25,12.84-5.9-5.9L250.23,190l5.92,5.9L244.7,207.4Zm2.95-25.51a.3.3,0,0,1,0,.37L231,198.89h0a.19.19,0,0,1-.17.09c-.11,0-.17-.06-.17-.09h0l-5.56-5.56h0l-22.2-22.2a.24.24,0,0,1-.09-.17c0-.11.06-.17.09-.17l16.64-16.67h0a.21.21,0,0,1,.17-.06c.06,0,.14,0,.17.06l27.78,27.75Zm-66.81-23.41a4.14,4.14,0,0,1-2.95-1.22h0a4,4,0,0,1-1.22-2.95,4.14,4.14,0,0,1,1.22-2.95l22.22-22.2a4,4,0,0,1,2.95-1.22,4.14,4.14,0,0,1,2.95,1.22,4.19,4.19,0,0,1,0,5.9l-2.78,2.78h0l-19.45,19.42A4,4,0,0,1,180.84,158.47Zm25-12.84,5.9,5.9L200.28,163l-5.9-5.9,11.45-11.45ZM128,279.68a4.19,4.19,0,0,1-5.9,0,4.17,4.17,0,0,1,0-5.9l64.29-64.32.17.2,5.56,5.56a1.2,1.2,0,0,0,.2.14L128,279.68ZM203.23,210a4.19,4.19,0,0,1-5.9,0l-5.56-5.56a4.19,4.19,0,0,1,0-5.9l14.06-14.06,11.45,11.45Z"/></g><rect class="cls-1" x="3.5" y="3.5" width="451.19" height="451.19" rx="22.68" ry="22.68"/></g></g></g></svg>