<svg xmlns="http://www.w3.org/2000/svg" viewBox="0 0 458.19 458.19"><defs><style>.cls-1{fill:none;stroke:#2b2a29;stroke-width:7px;}</style></defs><title>эцп</title><g id="Слой_2" data-name="Слой 2"><g id="Слой_1-2" data-name="Слой 1"><g id="Слой_1-3" data-name="Слой_1"><rect class="cls-1" x="3.5" y="3.5" width="451.19" height="451.19" rx="22.68" ry="22.68"/><g id="_1964438778480" data-name=" 1964438778480"><path d="M274.55,161.47h-10.4V119.38a4.05,4.05,0,0,0-4.05-4.05h-62a4.05,4.05,0,0,0-4.05,4.05v42.09H183.64a4,4,0,0,0-4.05,4V303.89a39,39,0,0,0,39,39h21.06a39,39,0,0,0,39-39V165.5A4,4,0,0,0,274.55,161.47Zm-72.4-38.07H256v38.07H202.15Zm37.47,211.38H218.56a30.93,30.93,0,0,1-30.87-30.9V169.55h82.8V303.89h0A30.91,30.91,0,0,1,239.63,334.79Z"/><path d="M258.36,177.66H199.83a4,4,0,0,0-4.05,4v122.2a22.83,22.83,0,0,0,22.79,22.79h21.06a22.83,22.83,0,0,0,22.79-22.79V181.69A4,4,0,0,0,258.36,177.66Zm-4,126.23a14.73,14.73,0,0,1-14.71,14.71H218.56a14.71,14.71,0,0,1-14.68-14.71V185.74h50.46Z"/><path d="M217.91,129.76a4,4,0,0,0-4,4.05v17.26a4,4,0,1,0,8.08,0V133.81A4.05,4.05,0,0,0,217.91,129.76Z"/><path d="M240.28,129.76a4.05,4.05,0,0,0-4.05,4.05v17.26a4.05,4.05,0,1,0,8.11,0V133.81A4.05,4.05,0,0,0,240.28,129.76Z"/></g></g></g></g></svg>