<svg xmlns="http://www.w3.org/2000/svg" viewBox="0 0 458.19 458.19"><defs><style>.cls-1{fill:none;stroke:#2b2a29;stroke-width:7px;}</style></defs><title>шапка</title><g id="Слой_2" data-name="Слой 2"><g id="Слой_1-2" data-name="Слой 1"><g id="Слой_1-3" data-name="Слой_1"><g id="_1964662941392" data-name=" 1964662941392"><path d="M332.63,180.21a11.69,11.69,0,1,0,0-23.39H244a11.7,11.7,0,0,0-10.91-15.93h-8a11.7,11.7,0,0,0-10.89,15.93H125.59a11.69,11.69,0,1,0,0,23.39h48v11.48L159.49,227a7.75,7.75,0,0,0,4.59,10.15l55.81,19.7a27.71,27.71,0,0,0,9.21,1.56,27.42,27.42,0,0,0,9.18-1.56l55.84-19.7A7.75,7.75,0,0,0,298.73,227l-14.12-35.29V180.21h36.31V272.9a11.68,11.68,0,0,0-4.82,19,11.73,11.73,0,0,0-3.15,8v23.9a3.73,3.73,0,0,0,3.74,3.71h15.93a3.73,3.73,0,0,0,3.74-3.71v-23.9a11.6,11.6,0,0,0-3.15-8,11.68,11.68,0,0,0-4.82-19V180.21Zm-3.74,139.86h-8.45V299.92a4.22,4.22,0,0,1,8.45,0Zm-4.22-31.86a4.22,4.22,0,1,1,4.22-4.22A4.23,4.23,0,0,1,324.67,288.21ZM220.89,152.57a4.23,4.23,0,0,1,4.22-4.22h8a4.24,4.24,0,0,1,0,8.48h-8A4.24,4.24,0,0,1,220.89,152.57ZM121.34,168.5a4.24,4.24,0,0,1,4.25-4.22h207a4.24,4.24,0,0,1,0,8.48h-207A4.25,4.25,0,0,1,121.34,168.5ZM291.78,230c-.06.09-.11.11-.14.11l-55.84,19.7a20.15,20.15,0,0,1-13.41,0l-55.81-19.7a.17.17,0,0,1-.14-.11.28.28,0,0,1,0-.2l13.46-33.62h98.48l13.44,33.62A.42.42,0,0,1,291.78,230Zm-14.66-41.3H181.06v-8.45h96.07Z"/></g><rect class="cls-1" x="3.5" y="3.5" width="451.19" height="451.19" rx="22.68" ry="22.68"/></g></g></g></svg>