<svg xmlns="http://www.w3.org/2000/svg" viewBox="0 0 458.19 458.19"><defs><style>.cls-1{fill:none;stroke:#2b2a29;stroke-width:7px;}</style></defs><title>подача заявки</title><g id="Слой_2" data-name="Слой 2"><g id="Слой_1-2" data-name="Слой 1"><g id="Слой_1-3" data-name="Слой_1"><g id="_1964729730240" data-name=" 1964729730240"><path d="M300.43,126.33H189.2a2.48,2.48,0,0,0-.45.06h0a2.39,2.39,0,0,0-.48.14l-.09,0a2.19,2.19,0,0,0-.45.2h0c-.17.09-.28.17-.43.26l-.09.09a2,2,0,0,0-.37.31h0L147.19,167h0a3.59,3.59,0,0,0-.31.37.15.15,0,0,0-.06.11,2,2,0,0,0-.28.4v0a2.86,2.86,0,0,0-.2.43s0,.06,0,.09-.09.31-.14.48v0c0,.14,0,.28-.06.45V344.05a11.64,11.64,0,0,0,11.65,11.62H300.43a11.66,11.66,0,0,0,11.65-11.62V137.95A11.66,11.66,0,0,0,300.43,126.33ZM185.74,139v22.73a4.23,4.23,0,0,1-4.2,4.22H158.78ZM304.65,344.05a4.21,4.21,0,0,1-4.22,4.2H157.76a4.21,4.21,0,0,1-4.22-4.2V173.38h28a11.64,11.64,0,0,0,11.62-11.65v-28H300.43a4.21,4.21,0,0,1,4.22,4.2Z"/><path d="M181.54,232.82h95.1a3.71,3.71,0,1,0,0-7.43h-95.1a3.71,3.71,0,1,0,0,7.43Z"/><path d="M181.54,252.64h95.1a3.71,3.71,0,1,0,0-7.43h-95.1a3.71,3.71,0,1,0,0,7.43Z"/><path d="M181.54,272.45h47.54a3.71,3.71,0,0,0,0-7.43H181.54a3.71,3.71,0,1,0,0,7.43Z"/><path d="M232.79,288.55a3.71,3.71,0,0,0-3.71-3.71H181.54a3.71,3.71,0,1,0,0,7.43h47.54A3.69,3.69,0,0,0,232.79,288.55Z"/><path d="M248.67,190.47a3.73,3.73,0,0,0-7.46,0c0,7.23,6.72,13.1,15.87,14.34v.51a3.71,3.71,0,0,0,7.43,0v-.51c9.13-1.25,15.85-7.11,15.85-14.34s-6.72-13.1-15.85-14.37V161.87c4.48.94,8.42,3.49,8.42,6.8a3.71,3.71,0,0,0,7.43,0c0-7.26-6.72-13.1-15.85-14.37v-.48a3.71,3.71,0,1,0-7.43,0v.48c-9.16,1.28-15.87,7.11-15.87,14.37s6.72,13.1,15.87,14.34v14.23C252.61,196.31,248.67,193.79,248.67,190.47Zm24.26,0c0,3.32-3.94,5.84-8.42,6.77V183.67C269,184.61,272.93,187.16,272.93,190.47Zm-24.26-21.8c0-3.32,3.94-5.87,8.42-6.8v13.58C252.61,174.54,248.67,172,248.67,168.67Z"/><path d="M284,285.09a3.72,3.72,0,0,0-5.07,1.39L271.26,300l-1-.79a3.71,3.71,0,0,0-3.12-.68,3.82,3.82,0,0,0-2.49,2l-3.86,7.82-1.22-1.45a7.71,7.71,0,0,0-7.26-2.49,7.6,7.6,0,0,0-5.78,5l-4.28,12.25-10.15-12.81a3.67,3.67,0,0,0-2.55-1.39,3.75,3.75,0,0,0-2.81.91l-10.77,9.38a3.73,3.73,0,0,0,4.9,5.61l7.82-6.83,9.69,12.22A5.67,5.67,0,0,0,242.8,331a5.54,5.54,0,0,0,1-.09,5.69,5.69,0,0,0,4.42-3.74l5.3-15.25a.25.25,0,0,1,.2-.17c.14,0,.2,0,.23.09l4.9,5.61a3.7,3.7,0,0,0,6.12-.79l4.34-8.76.85.65a3.67,3.67,0,0,0,3,.71,3.8,3.8,0,0,0,2.49-1.81l9.75-17.26A3.71,3.71,0,0,0,284,285.09Z"/></g><rect class="cls-1" x="3.5" y="3.5" width="451.19" height="451.19" rx="22.68" ry="22.68"/></g></g></g></svg>