<svg xmlns="http://www.w3.org/2000/svg" viewBox="0 0 166.94 166.93"><title>mail</title><g id="Слой_2" data-name="Слой 2"><g id="Слой_1-2" data-name="Слой 1"><g id="Слой_1-3" data-name="Слой_1"><g id="_2169020555216" data-name=" 2169020555216"><path d="M110.47,98.32a1.36,1.36,0,0,1-.92-.36L94.27,83.61a1.33,1.33,0,1,1,1.82-1.93L111.37,96a1.33,1.33,0,0,1-.9,2.3Z"/><path d="M59.43,98.32a1.36,1.36,0,0,1-1-.42A1.34,1.34,0,0,1,58.52,96L73.81,81.68a1.33,1.33,0,1,1,1.82,1.93L60.34,98A1.34,1.34,0,0,1,59.43,98.32Z"/><path d="M119.51,111.66H50.39A6.66,6.66,0,0,1,43.74,105V59.72a6.65,6.65,0,0,1,6.65-6.64h69.11a6.64,6.64,0,0,1,6.64,6.64V105A6.65,6.65,0,0,1,119.51,111.66ZM50.39,55.73a4,4,0,0,0-4,4V105a4,4,0,0,0,4,4h69.11a4,4,0,0,0,4-4V59.72a4,4,0,0,0-4-4Z"/><path d="M119.51,112.42H50.39A7.43,7.43,0,0,1,43,105V59.72a7.41,7.41,0,0,1,7.41-7.4h69.11a7.39,7.39,0,0,1,7.4,7.4V105a7.41,7.41,0,0,1-7.4,7.41ZM50.39,110.9h69.11a5.88,5.88,0,0,0,5.88-5.89V59.72a5.87,5.87,0,0,0-5.88-5.88H50.39a5.88,5.88,0,0,0-5.89,5.88V105a5.9,5.9,0,0,0,5.89,5.89Zm0-54.4a3.23,3.23,0,0,0-3.22,3.22V105a3.23,3.23,0,0,0,3.22,3.22h69.11a3.23,3.23,0,0,0,3.22-3.22V59.72a3.23,3.23,0,0,0-3.22-3.22ZM47,56.36A4.7,4.7,0,0,1,50.39,55h69.11a4.76,4.76,0,0,1,4.75,4.75V105a4.76,4.76,0,0,1-4.75,4.75H50.39A4.76,4.76,0,0,1,45.65,105V59.72A4.7,4.7,0,0,1,47,56.36Z"/><path d="M84.95,89a7.43,7.43,0,0,1-4.87-1.76L46,57.52a1.33,1.33,0,0,1,1.75-2L81.81,85.27a5,5,0,0,0,6.26,0l34.07-29.71a1.34,1.34,0,0,1,1.88.13,1.32,1.32,0,0,1-.13,1.87L89.83,87.27A7.4,7.4,0,0,1,84.95,89Z"/><path d="M10.68,0H156.27a10.69,10.69,0,0,1,10.68,10.68V156.26a10.69,10.69,0,0,1-10.68,10.68H10.68A10.71,10.71,0,0,1,0,156.26V10.68A10.71,10.71,0,0,1,10.68,0ZM156.27,5.08H10.68a5.61,5.61,0,0,0-5.59,5.59V156.26a5.62,5.62,0,0,0,5.59,5.59H156.27a5.62,5.62,0,0,0,5.59-5.59V10.68a5.61,5.61,0,0,0-5.59-5.59Z"/></g></g></g></g></svg>