<svg xmlns="http://www.w3.org/2000/svg" viewBox="0 0 458.19 458.19"><defs><style>.cls-1{fill:#fff;}.cls-2{fill:none;stroke:#fff;stroke-width:7px;}</style></defs><title>mail-white</title><g id="Слой_2" data-name="Слой 2"><g id="Слой_1-2" data-name="Слой 1"><g id="Слой_1-3" data-name="Слой_1"><g id="_1964784490288" data-name=" 1964784490288"><path class="cls-1" d="M304.34,270.5a3.73,3.73,0,0,1-2.52-1l-42.63-40a3.7,3.7,0,1,1,5.07-5.39l42.63,40a3.71,3.71,0,0,1-2.55,6.41Z"/><path class="cls-1" d="M162.07,270.5a3.67,3.67,0,0,1-2.69-1.16,3.71,3.71,0,0,1,.14-5.24l42.63-40a3.71,3.71,0,0,1,5.24.17,3.66,3.66,0,0,1-.17,5.22l-42.63,40A3.73,3.73,0,0,1,162.07,270.5Z"/><path class="cls-1" d="M329.54,307.69H136.87a18.54,18.54,0,0,1-18.51-18.54V162.89a18.54,18.54,0,0,1,18.51-18.54H329.54a18.56,18.56,0,0,1,18.54,18.54V289.15A18.56,18.56,0,0,1,329.54,307.69ZM136.87,151.78a11.13,11.13,0,0,0-11.11,11.11V289.15a11.13,11.13,0,0,0,11.11,11.11H329.54a11.13,11.13,0,0,0,11.11-11.11V162.89a11.13,11.13,0,0,0-11.11-11.11Z"/><path class="cls-1" d="M233.22,244.64a20.74,20.74,0,0,1-13.61-4.9l-95.1-83a3.7,3.7,0,1,1,4.85-5.58l95.1,82.94a13.83,13.83,0,0,0,17.46,0l95-82.83a3.71,3.71,0,1,1,4.88,5.58l-95,82.83A20.6,20.6,0,0,1,233.22,244.64Z"/></g><rect class="cls-2" x="3.5" y="3.5" width="451.19" height="451.19" rx="22.68" ry="22.68"/></g></g></g></svg>