<svg xmlns="http://www.w3.org/2000/svg" viewBox="0 0 458.19 458.19"><defs><style>.cls-1{fill:none;stroke:#2b2a29;stroke-width:7px;}</style></defs><title>поиск тендеров</title><g id="Слой_2" data-name="Слой 2"><g id="Слой_1-2" data-name="Слой 1"><g id="Слой_1-3" data-name="Слой_1"><rect class="cls-1" x="3.5" y="3.5" width="451.19" height="451.19" rx="22.68" ry="22.68"/><path d="M219.7,162.81a45.8,45.8,0,1,0,64.77,0A45.85,45.85,0,0,0,219.7,162.81Zm66.81,52.64V174.94A40.14,40.14,0,0,1,286.51,215.45Zm-5.87-48.16V223.1a3.4,3.4,0,0,0-.31.34,40,40,0,0,1-56.47,0,39.36,39.36,0,0,1-5.92-7.57h3.37a2.93,2.93,0,1,0,0-5.87H215a39.82,39.82,0,0,1-2.69-18.14h23.1a2.95,2.95,0,0,0,0-5.9H213.26A39.71,39.71,0,0,1,223,167.82h37.62a2.93,2.93,0,1,0,0-5.87H230a40,40,0,0,1,50.34,5Z"/><path d="M341.84,270,299.3,227.47a57.15,57.15,0,0,0-21.6-83.37V117.82a3,3,0,0,0-2.95-2.95H146a2.94,2.94,0,0,0-2.1.88l-29.76,29.76a2.91,2.91,0,0,0-.85,2.07V340.37a2.92,2.92,0,0,0,2.95,2.92H274.75a2.92,2.92,0,0,0,2.95-2.92V246.29a54.22,54.22,0,0,0,6.63-3.91l42.55,42.55a10.57,10.57,0,1,0,15-14.94Zm-38.47-74.78a51.25,51.25,0,1,1-15-36.28A50.92,50.92,0,0,1,303.38,195.21ZM143,124.91v18.54c.11,1-.43,1.28-1.39,1.19H123.32ZM271.83,337.42H119.15V150.5H146a2.92,2.92,0,0,0,2.92-2.92V120.77H271.83v20.81a57.33,57.33,0,0,0-69.34,25.14H174.94a2.95,2.95,0,0,0,0,5.9h24.6a58.34,58.34,0,0,0-3.66,12H141.77a2.93,2.93,0,1,0,0,5.87h53.35c-.11,1.56-.2,3.12-.2,4.71a57.37,57.37,0,0,0,.48,7.34H167.88a2.93,2.93,0,0,0,0,5.87h28.57a56.6,56.6,0,0,0,4.34,12h-59a2.93,2.93,0,1,0,0,5.87h62.36a57.29,57.29,0,0,0,7.54,9.3c1,1,2,1.87,3,2.75H204.59a2.93,2.93,0,1,0,0,5.87h18.14a57.47,57.47,0,0,0,49.1,4.59Zm20.69-101.79c1.11-1.13,2.15-2.3,3.17-3.46l30.1,30.1-6.63,6.63L289,238.78Q290.82,237.29,292.52,235.63Zm45.16,45.16a4.67,4.67,0,0,1-6.63,0L323.3,273l6.66-6.63,7.71,7.74a4.65,4.65,0,0,1,0,6.63Z"/><path d="M141.77,172.61h23.47a2.95,2.95,0,0,0,0-5.9H141.77a2.95,2.95,0,0,0,0,5.9Z"/><path d="M143.62,172.61h38.27c2.66,0,4.79-1.33,4.79-2.95s-2.13-2.95-4.79-2.95H143.62c-2.64,0-4.79,1.33-4.79,2.95S141,172.61,143.62,172.61Z"/><path d="M141.77,208.42H157.9a2.93,2.93,0,1,0,0-5.87H141.77a2.93,2.93,0,1,0,0,5.87Z"/><path d="M144.07,208.42H172.9c2.89,0,5.24-1.3,5.24-2.92s-2.35-2.95-5.24-2.95H144.07c-2.89,0-5.24,1.3-5.24,2.95S141.18,208.42,144.07,208.42Z"/><path d="M141.77,244.25H196a2.93,2.93,0,0,0,0-5.87h-54.2a2.93,2.93,0,1,0,0,5.87Z"/><path d="M249.21,256.27H164.08a2.95,2.95,0,1,0,0,5.9h85.12a2.95,2.95,0,1,0,0-5.9Z"/><path d="M141.77,262.16h12.9a2.95,2.95,0,1,0,0-5.9h-12.9a2.95,2.95,0,1,0,0,5.9Z"/><path d="M249.21,292.1H193.73a2.93,2.93,0,1,0,0,5.87h55.47a2.93,2.93,0,1,0,0-5.87Z"/><path d="M141.77,298h42.75a2.93,2.93,0,0,0,0-5.87H141.77a2.93,2.93,0,1,0,0,5.87Z"/><path d="M249.21,310H217.8a2.93,2.93,0,0,0,0,5.87h31.41a2.93,2.93,0,1,0,0-5.87Z"/><path d="M209.07,310H156.51a2.93,2.93,0,1,0,0,5.87h52.55a2.93,2.93,0,0,0,0-5.87Z"/><path d="M227.32,310H157.48c-2.15,0-3.91,1.3-3.91,2.92s1.76,2.95,3.91,2.95h69.85c2.15,0,3.91-1.3,3.91-2.95S229.48,310,227.32,310Z"/><path d="M147.64,310h-5.87a2.93,2.93,0,1,0,0,5.87h5.87a2.93,2.93,0,0,0,0-5.87Z"/><path d="M249.21,274.18H231.32a2.93,2.93,0,1,0,0,5.87h17.89a2.93,2.93,0,1,0,0-5.87Z"/><path d="M247,274.18H215.28c-2.86,0-5.19,1.33-5.19,2.95s2.32,2.92,5.19,2.92H247c2.86,0,5.19-1.3,5.19-2.92S249.83,274.18,247,274.18Z"/><path d="M141.77,280H221a2.93,2.93,0,1,0,0-5.87H141.77a2.93,2.93,0,1,0,0,5.87Z"/><path d="M260.66,186H250.4a2.95,2.95,0,1,0,0,5.9h10.26a2.95,2.95,0,0,0,0-5.9Z"/><path d="M256.66,186H232.34c-3.86,0-7,1.33-7,2.95s3.12,2.95,7,2.95h24.32c3.83,0,6.94-1.33,6.94-2.95S260.49,186,256.66,186Z"/><path d="M260.66,210h-27a2.93,2.93,0,0,0,0,5.87h27a2.93,2.93,0,1,0,0-5.87Z"/><path d="M260.66,210h-27a2.93,2.93,0,0,0,0,5.87h27a2.93,2.93,0,1,0,0-5.87Z"/></g></g></g></svg>