<?xml version="1.0" encoding="utf-8"?>
<!-- Generator: Adobe Illustrator 20.1.0, SVG Export Plug-In . SVG Version: 6.00 Build 0)  -->
<svg version="1.1" id="Слой_1" xmlns="http://www.w3.org/2000/svg" xmlns:xlink="http://www.w3.org/1999/xlink" x="0px" y="0px"
	 viewBox="0 0 301 301" style="enable-background:new 0 0 301 301;" xml:space="preserve">
<title>Ресурс 2</title>
<g id="Слой_2">
	<g id="Слой_1-2">
		<path d="M217.3,31.8l-12.1-21c-1.2-0.5-2.4-0.9-3.7-1.4h-22.9l-12.9,22.4l3.8,6.5c16.1,0.2,29.8,2,41,5.5L217.3,31.8z"/>
		<polygon points="155,140.3 170.2,140.3 163.2,128.1 137.4,128.1 124.5,150.5 137.4,172.9 163.2,172.9 166,168 155,168 		"/>
		<polygon points="137.4,80.7 124.5,103 137.4,125.3 163.2,125.3 176.1,103 163.2,80.7 		"/>
		<path d="M163.4,33.2h-25.8l-5.2,9c11.1-2.6,22.5-3.9,33.9-3.9L163.4,33.2z"/>
		<path d="M134.5,72.6l3.1,5.3h25.8l6.1-10.7c-1,0-2,0-3,0C155.6,67.1,144.8,68.9,134.5,72.6z"/>
		<path d="M163.2,270.6h-25.8L124.5,293l3.4,5.8c14.9,2.2,30,2.3,44.8,0.1l3.4-5.9L163.2,270.6z"/>
		<path d="M131.1,256.9l6.3,10.9h25.8l4.7-8.1c-2.1,0.1-4.3,0.1-6.4,0.1C151.3,259.8,141.1,258.9,131.1,256.9z"/>
		<path d="M167.8,231.1l-4.6-7.9h-25.8l-2.3,3.9c8.9,2.8,18.3,4.2,27.6,4.1C164.5,231.1,166.2,231.1,167.8,231.1z"/>
		<polygon points="163.4,220.4 176.3,198 163.4,175.6 137.6,175.6 124.7,198 137.6,220.4 		"/>
		<path d="M137.6,30.4h25.8l12.9-22.4l-3.4-5.9c-14.8-2.2-29.9-2.2-44.8,0l-3.4,5.9L137.6,30.4z"/>
		<polygon points="257.6,150.5 244.7,128.1 218.9,128.1 211.9,140.3 228.1,140.3 228.1,172.9 244.7,172.9 		"/>
		<polygon points="244.7,80.7 218.9,80.7 206,103 218.9,125.3 244.7,125.3 257.6,103 		"/>
		<path d="M244.9,33.2H244l1.8,1.4L244.9,33.2z"/>
		<path d="M215.1,71l4,6.9h25.8l12.9-22.3l-12.1-20.9l-1.7-1.4h-24.9l-6.5,11.3c3.1,1,6.1,2.3,9.1,3.8L215.1,71z"/>
		<path d="M218.9,270.6L208.3,289c11.4-4.8,22.2-10.9,32.1-18.4L218.9,270.6z"/>
		<path d="M244.7,267.8l0.6-1.1l-1.3,1.1H244.7z"/>
		<path d="M244.7,223.1h-16.6v25.1c-5.7,2.1-11.6,3.9-17.4,5.4l8.2,14.2H244l1.4-1.1l12.3-21.3L244.7,223.1z"/>
		<polygon points="257.8,198 244.9,175.6 228.1,175.6 228.1,220.4 244.9,220.4 		"/>
		<path d="M240.4,30.4c-9.8-7.4-20.5-13.5-31.9-18.3l10.6,18.3H240.4z"/>
		<polygon points="285.1,151.8 259.3,151.8 246.4,174.1 259.3,196.5 285.1,196.5 298,174.1 		"/>
		<polygon points="285.1,104.3 259.3,104.3 246.4,126.7 259.3,149 285.1,149 298,126.7 		"/>
		<path d="M246.6,79.2l12.9,22.3h25.8l4.2-7.3c-5.5-13.5-12.8-26-21.9-37.4h-8.1L246.6,79.2z"/>
		<path d="M265.5,246.8h-6.2l-9.1,15.8C255.7,257.7,260.8,252.4,265.5,246.8z"/>
		<path d="M285.3,199.3h-25.8l-12.9,22.4l12.9,22.4h8.3c9-11.3,16.4-23.9,21.8-37.3L285.3,199.3z"/>
		<path d="M265.4,54.1c-4.5-5.4-9.4-10.4-14.6-15.1l8.7,15.1L265.4,54.1z"/>
		<path d="M286.7,198l3.8,6.6c3.3-8.4,5.7-17.1,7.4-26L286.7,198z"/>
		<path d="M299,129.5l-12.2,21.1l12.2,21.1C301,157.7,301,143.5,299,129.5z"/>
		<path d="M286.9,103l10.9,18.8c-1.7-8.6-4.1-17-7.2-25.2L286.9,103z"/>
		<path d="M122.5,196.4l12.9-22.4l-12.9-22.4H96.7l-9,15.6c1.4,10.2,4.8,20.1,9.8,29.1L122.5,196.4z"/>
		<path d="M87.6,132.9l9.3,16.2h25.8l12.9-22.3l-12.9-22.4H97.1c-0.2,0.4-0.4,0.8-0.7,1.2C91.8,114.1,88.9,123.3,87.6,132.9z"/>
		<path d="M98.8,101.5h24l12.8-22.4l-3.3-5.7c-2.7,1.1-5.4,2.4-7.9,3.8C113.9,82.9,105.1,91.3,98.8,101.5z"/>
		<path d="M96.9,56.8l-0.5,0.9l1.4-0.9H96.9z"/>
		<path d="M107.3,294.2c5.8,1.7,11.7,3.1,17.7,4.1l-2.4-4.1H107.3z"/>
		<path d="M96.7,291.4h2.1c-0.9-0.3-1.8-0.7-2.8-1L96.7,291.4z"/>
		<path d="M101.4,246.7h-4.7L83.8,269l12.3,21.3c0.9,0.4,1.8,0.7,2.8,1h23.7l12.9-22.3l-7.4-12.7c-9.2-2-18.1-5.2-26.5-9.6
			L101.4,246.7z"/>
		<path d="M132.9,226.3l2.7-4.7l-12.9-22.4H99.3c2.3,3.6,4.9,6.9,7.8,10C114.2,216.9,123.1,222.7,132.9,226.3z"/>
		<path d="M96.9,9.3l-0.8,1.4c1.2-0.4,2.5-0.9,3.7-1.4H96.9z"/>
		<path d="M129.1,43l6.6-11.4L122.7,9.3H99.8c-1.2,0.5-2.4,0.9-3.7,1.4L84,31.6L96.9,54h5.4c1-0.5,1.9-1.1,2.9-1.6
			C112.8,48.4,120.8,45.2,129.1,43z"/>
		<path d="M87.2,163.4l7.5-12.9L87,137.2c-0.4,3.9-0.6,7.9-0.6,11.8C86.4,153.8,86.7,158.6,87.2,163.4z"/>
		<path d="M50.4,137.8l-7.3,12.7l7,12.2c-0.3-3.5-0.4-7.1-0.4-10.8C49.7,147.1,49.9,142.4,50.4,137.8z"/>
		<path d="M71.7,80.8H56.1l-12.9,22.4l10,17.3c2.3-9.9,6-19.4,11-28.3C66.5,88.2,68.9,84.4,71.7,80.8z"/>
		<path d="M56.2,33.2l-0.8,1.3l1.6-1.3H56.2z"/>
		<path d="M91.8,60.9l3.1-5.4L82,33.2H57l-1.6,1.3l-12.1,21l12.9,22.4H74C79.2,71.5,85.2,65.8,91.8,60.9z"/>
		<path d="M60.6,270.6c9.8,7.3,20.4,13.4,31.7,18.2l-10.5-18.2H60.6z"/>
		<path d="M56,267.8h1c-0.7-0.5-1.3-1-1.9-1.6L56,267.8z"/>
		<path d="M72.3,223.1H56l-12.9,22.4l12,20.8c0.6,0.5,1.3,1,1.9,1.6h24.8l12.9-22.4l-2.4-4.2C84.7,236.3,78,230.1,72.3,223.1z"/>
		<path d="M52.8,181.5L43.3,198l12.9,22.4h13.9c-2.6-3.5-5-7.2-7-11C58.3,200.6,54.9,191.2,52.8,181.5z"/>
		<path d="M92.6,12.1c-11.4,4.8-22.1,10.9-32,18.3H82L92.6,12.1z"/>
		<path d="M125.5,2.6c-6.8,1.1-13.6,2.8-20.2,4.8h17.4L125.5,2.6z"/>
		<path d="M195.6,7.4c-6.5-2-13.1-3.6-19.9-4.8l2.8,4.8H195.6z"/>
		<path d="M2.3,174.1l0.1,0.1L2.3,174.1L2.3,174.1z"/>
		<path d="M41,151.8H15.2L2.3,174.1v0.2l12.9,22.2H41l11-18.9c-0.6-3-1-6.1-1.4-9.2L41,151.8z"/>
		<path d="M41.2,104.5H15.4L2.5,126.8l12.9,22.4h25.8l9.8-17c0.4-2.8,0.9-5.5,1.4-8.2L41.2,104.5z"/>
		<path d="M52.4,123.9c-0.6,2.7-1,5.4-1.4,8.2"/>
		<path d="M41.2,56.8h-7.9c-9.1,11.4-16.5,24.1-22,37.6l4.1,7.1h25.8l12.9-22.3L41.2,56.8z"/>
		<path d="M35.5,246.8c4.3,5.2,9,10.1,14,14.6L41,246.8H35.5z"/>
		<path d="M15.4,199.3l-4.1,7.2c5.4,13.5,12.8,26.2,21.9,37.6h8l12.9-22.4l-12.9-22.4H15.4z"/>
		<path d="M49.7,39.4c-5,4.6-9.7,9.5-14.1,14.7h5.6L49.7,39.4z"/>
		<path d="M1.9,130.3c-1.8,13.4-1.8,26.9,0,40.3l11.6-20.1L1.9,130.3z"/>
		<path d="M10.2,97.3c-2.9,7.7-5.2,15.5-6.8,23.6l10.2-17.7L10.2,97.3z"/>
		<path d="M3.5,180.3c1.6,8,3.9,15.9,6.8,23.6l3.4-5.9L3.5,180.3z"/>
		<polygon points="169,168 165.4,174.2 178.3,196.5 194.6,196.5 194.6,168 		"/>
		<polygon points="217.1,126.7 204.2,104.3 178.3,104.3 165.4,126.7 173.3,140.3 209.2,140.3 		"/>
		<path d="M172.5,67.3l-6.9,11.9l12.9,22.3h25.8l12.9-22.3l-3-5.2l-0.6,2.2C202.1,70.9,188.4,67.9,172.5,67.3z"/>
		<path d="M176,298.3c5.9-1,11.7-2.4,17.4-4.1h-15L176,298.3z"/>
		<path d="M204.2,291.5l0.6-1.1c-1,0.4-2,0.8-3,1.1H204.2z"/>
		<path d="M165.4,269.1l12.9,22.4h23.5c1-0.4,2-0.7,3-1.1l12.3-21.2l-8.6-15c-12.3,3-24.8,4.8-37.5,5.4L165.4,269.1z"/>
		<path d="M194.6,199.3h-16.1l-12.9,22.4l5.4,9.3c10.4-0.5,18.3-1.9,23.6-4.3L194.6,199.3z"/>
	</g>
</g>
</svg>
