<?xml version="1.0" standalone="no"?>
<!DOCTYPE svg PUBLIC "-//W3C//DTD SVG 20010904//EN"
 "http://www.w3.org/TR/2001/REC-SVG-20010904/DTD/svg10.dtd">
<svg version="1.0" xmlns="http://www.w3.org/2000/svg"
 width="260.000000pt" height="260.000000pt" viewBox="0 0 260.000000 260.000000"
 preserveAspectRatio="xMidYMid meet">
<metadata>
Created by potrace 1.11, written by Peter Selinger 2001-2013
</metadata>
<g transform="translate(0.000000,260.000000) scale(0.100000,-0.100000)"
fill="#000000" stroke="none">
<path d="M480 1425 l0 -675 65 0 65 0 0 310 0 310 318 2 317 3 0 55 0 55 -317
3 -318 2 0 245 0 245 380 0 380 0 0 60 0 60 -445 0 -445 0 0 -675z"/>
<path d="M1250 1740 l0 -60 240 0 240 0 0 -615 0 -615 70 0 70 0 0 615 0 615
240 0 240 0 0 60 0 60 -550 0 -550 0 0 -60z"/>
</g>
</svg>
