<?xml version="1.0" standalone="no"?>
<!DOCTYPE svg PUBLIC "-//W3C//DTD SVG 20010904//EN"
 "http://www.w3.org/TR/2001/REC-SVG-20010904/DTD/svg10.dtd">
<svg version="1.0" xmlns="http://www.w3.org/2000/svg"
 width="260.000000pt" height="260.000000pt" viewBox="0 0 260.000000 260.000000"
 preserveAspectRatio="xMidYMid meet">
<metadata>
Created by potrace 1.11, written by Peter Selinger 2001-2013
</metadata>
<g transform="translate(0.000000,260.000000) scale(0.100000,-0.100000)"
fill="#000000" stroke="none">
<path d="M1132 2590 c-301 -43 -565 -179 -775 -400 -171 -180 -278 -385 -333
-641 -26 -118 -26 -380 0 -498 59 -273 167 -474 360 -667 193 -193 394 -301
667 -360 118 -26 380 -26 498 0 273 59 474 167 667 360 193 193 301 394 360
667 14 62 18 127 18 249 0 122 -4 187 -18 249 -59 273 -167 474 -360 667 -190
189 -384 296 -646 355 -98 22 -340 33 -438 19z m-183 -655 c201 -30 403 -91
554 -167 205 -105 334 -243 380 -408 33 -116 30 -220 -8 -349 l-16 -53 -46 78
c-135 231 -319 404 -560 527 -90 45 -239 107 -260 107 -3 0 35 -31 84 -69 312
-242 574 -557 687 -828 45 -105 81 -244 72 -276 -8 -32 -55 -52 -92 -40 -25 8
-30 19 -55 115 -15 59 -40 137 -56 174 l-28 67 -135 3 c-367 6 -536 137 -605
469 -78 369 -109 456 -211 579 -30 37 -52 71 -49 76 9 15 225 12 344 -5z"/>
</g>
</svg>
