<?xml version="1.0" encoding="utf-8"?>
<!-- Generator: Adobe Illustrator 20.1.0, SVG Export Plug-In . SVG Version: 6.00 Build 0)  -->
<svg version="1.1" id="Слой_1" xmlns="http://www.w3.org/2000/svg" xmlns:xlink="http://www.w3.org/1999/xlink" x="0px" y="0px"
	 viewBox="0 0 21.7 38.3" style="enable-background:new 0 0 21.7 38.3;" xml:space="preserve">
<style type="text/css">
	.st0{fill:#FFFFFF;}
</style>
<title>dollar</title>
<g id="Слой_2">
	<g id="Слой_1-2">
		<path class="st0" d="M4,25.9c2.1,2.9,8.4,3.1,10.5,1.9c0.8-0.5,1-1.8,1-2.6c0-0.5-0.2-1-0.5-1.4c-0.6-0.7-1.3-1.2-2.2-1.5
			c-5-1.3-8.5-2.9-9.9-4.1c-1.7-1.5-2-2.4-2-5c-0.1-2.3,0.7-4.6,2.4-6.2C5,5.4,7.4,4.6,10.6,4.6c3,0,7.3,0.8,9.3,3.3l-3.5,3.8
			c-1.9-1.6-3.4-1.8-5.8-1.8c-1-0.1-2,0.1-2.9,0.6c-0.6,0.3-1,0.9-1,1.6c0,0.6,0.3,1.2,0.9,1.5c1.6,0.9,3.3,1.5,5.1,1.9
			c3.4,0.9,5.7,2.1,6.9,3.4c1.3,1.5,1.9,3.4,1.8,5.3c0.1,2.5-1,4.9-2.8,6.6c-2,2-4.6,3.1-7.4,3.1c-4.1,0-9.7-1.5-11.3-4.3"/>
		<path class="st0" d="M8.7,0v6.8H12V0H8.7 M8.7,32.1v6.2H12v-6.2H8.7"/>
	</g>
</g>
</svg>
