<svg xmlns="http://www.w3.org/2000/svg" viewBox="0 0 71.26 144.31"><defs><style>.cls-1{fill:#fff;}</style></defs><title>facebook-icon</title><g id="Слой_2" data-name="Слой 2"><g id="Слой_1-2" data-name="Слой 1"><g id="_ffffffff" data-name="#ffffffff"><path class="cls-1" d="M39.78.68A71.91,71.91,0,0,1,71.26,3.45c-1.38,6.3-2.36,12.69-3.82,19A45,45,0,0,0,52.69,21c-3.19.12-6.51,2-7.48,5.16-1.67,5.06-.89,10.47-1,15.69,7,0,14.06.12,21.08-.06.08,7.29,0,14.59.06,21.89-7,0-14.05,0-21.08,0-.2,26.89,0,53.78-.11,80.67q-13.5-.15-27,0c-.09-26.87,0-53.75,0-80.62-5.67,0-11.34-.08-17,.09-.1-7.34-.08-14.68,0-22,5.67.23,11.34.08,17,.12.14-8.74-.61-17.76,2.21-26.19C22.28,7.07,31.19,2.08,39.78.68Z"/></g></g></g></svg>