<?xml version="1.0" encoding="utf-8"?>
<!-- Generator: Adobe Illustrator 20.1.0, SVG Export Plug-In . SVG Version: 6.00 Build 0)  -->
<svg version="1.1" id="Слой_1" xmlns="http://www.w3.org/2000/svg" xmlns:xlink="http://www.w3.org/1999/xlink" x="0px" y="0px"
	 viewBox="0 0 16 16.1" style="enable-background:new 0 0 16 16.1;" xml:space="preserve">
<style type="text/css">
	.st0{fill:#EB4F4E;}
	.st1{fill:none;stroke:#EB4F4E;stroke-miterlimit:10;}
</style>
<title>logoРесурс 1</title>
<g id="Слой_2">
	<g id="Layer_1">
		<path class="st0" d="M16,9.5V6.6l-1.8-0.3c-0.2-0.5-0.4-1-0.6-1.4l1.1-1.5l-2.1-2.1l-1.5,1.1c-0.4-0.3-0.9-0.5-1.4-0.6L9.5,0H6.6
			L6.3,1.8c-0.5,0.1-1,0.3-1.4,0.6L3.4,1.3L1.3,3.4l1,1.5C2.1,5.3,1.9,5.8,1.7,6.3L0,6.5v2.9l1.8,0.3c0.1,0.5,0.3,1,0.6,1.4l-1,1.5
			l2.1,2.1l1.5-1c0.4,0.2,0.9,0.4,1.4,0.6l0.3,1.8h3l0.3-1.8c0.5-0.1,1-0.3,1.4-0.6l1.5,1.1l2.1-2.1l-1.1-1.5
			c0.3-0.4,0.5-0.9,0.6-1.4L16,9.5z M8,11c-1.7,0-3-1.3-3-3s1.3-3,3-3s3,1.3,3,3S9.7,11,8,11z"/>
	</g>
</g>
<circle class="st1" cx="8" cy="8" r="2.6"/>
</svg>
