<svg xmlns="http://www.w3.org/2000/svg" viewBox="0 0 92.15 92.17"><defs><style>.cls-1{fill:#e74c3c;}.cls-2{opacity:0.28;}.cls-3{fill:#fff;}</style></defs><title>Ресурс 2</title><g id="Слой_2" data-name="Слой 2"><g id="Слой_1-2" data-name="Слой 1"><ellipse class="cls-1" cx="46.08" cy="46.08" rx="46.08" ry="46.08"/><g id="_ffffffff" data-name="#ffffffff"><g class="cls-2"><path d="M59.82,18.78H58.46a15.91,15.91,0,0,0-12.38,7.83,15.88,15.88,0,0,0-12-7.83H31.52A15,15,0,0,0,18.08,32.64v2.29a16,16,0,0,0,7.75,12,15.67,15.67,0,0,0-7.75,13.15v.39a14.87,14.87,0,0,0,9.07,13.21c6.85,3,15.34-.12,18.93-6.6a15.29,15.29,0,0,0,16.08,7.45A14.81,14.81,0,0,0,74.08,60.45V60a15.59,15.59,0,0,0-7.61-13,16.11,16.11,0,0,0,7.61-12.36V32.49C73.5,25.19,67.22,18.93,59.82,18.78ZM27.63,29.21c2.77-3.54,9-3,11.18.9s2.64,8.39,3.28,12.71c-4.26-.76-8.67-1.39-12.55-3.43A6.81,6.81,0,0,1,27.63,29.21ZM38.81,62.56c-2.29,3.92-8.59,4.37-11.36.73a6.32,6.32,0,0,1,1.9-9.3c4-2,8.44-2.51,12.76-3.21C41.38,54.78,40.82,58.95,38.81,62.56Zm19.14,3.09c-6.56-1.45-6.7-9.56-7.89-14.87,5,1.08,11.28,1,14.89,5.15C68.45,60.56,63.33,67.18,57.95,65.65ZM65.5,36.29c-2.87,5.49-10.15,5.26-15.43,6.53,1.2-5.27,1-12.44,6.4-15.38S68.21,30.88,65.5,36.29Z"/></g><path class="cls-3" d="M59.82,17.78H58.46a15.91,15.91,0,0,0-12.38,7.83,15.88,15.88,0,0,0-12-7.83H31.52A15,15,0,0,0,18.08,31.64v2.29a16,16,0,0,0,7.75,12,15.67,15.67,0,0,0-7.75,13.15v.39a14.87,14.87,0,0,0,9.07,13.21c6.85,3,15.34-.12,18.93-6.6a15.29,15.29,0,0,0,16.08,7.45A14.81,14.81,0,0,0,74.08,59.45V59a15.59,15.59,0,0,0-7.61-13,16.11,16.11,0,0,0,7.61-12.36V31.49C73.5,24.19,67.22,17.93,59.82,17.78ZM27.63,28.21c2.77-3.54,9-3,11.18.9s2.64,8.39,3.28,12.71c-4.26-.76-8.67-1.39-12.55-3.43A6.81,6.81,0,0,1,27.63,28.21ZM38.81,61.56c-2.29,3.92-8.59,4.37-11.36.73a6.32,6.32,0,0,1,1.9-9.3c4-2,8.44-2.51,12.76-3.21C41.38,53.78,40.82,57.95,38.81,61.56Zm19.14,3.09c-6.56-1.45-6.7-9.56-7.89-14.87,5,1.08,11.28,1,14.89,5.15C68.45,59.56,63.33,66.18,57.95,64.65ZM65.5,35.29c-2.87,5.49-10.15,5.26-15.43,6.53,1.2-5.27,1-12.44,6.4-15.38S68.21,29.88,65.5,35.29Z"/></g><path class="cls-3" d="M92,42.08H.18C.07,43.4,0,44.73,0,46.08s.07,2.68.18,4H92c.11-1.32.18-2.65.18-4S92.08,43.4,92,42.08Z"/><path class="cls-3" d="M46.08,0c-1.36,0-2.69.07-4,.19V92c1.33.11,2.66.19,4,.19s2.67-.07,4-.18V.18C48.74.07,47.42,0,46.08,0Z"/></g></g></svg>