<?xml version="1.0" encoding="utf-8"?>
<!-- Generator: Adobe Illustrator 20.1.0, SVG Export Plug-In . SVG Version: 6.00 Build 0)  -->
<svg version="1.1" id="Слой_1" xmlns="http://www.w3.org/2000/svg" xmlns:xlink="http://www.w3.org/1999/xlink" x="0px" y="0px"
	 viewBox="0 0 45,8 45,8" style="enable-background:new 0 0 45,8 45,8;" xml:space="preserve">
<style type="text/css">
	.st0{fill:#E74C3C;}
	.st1{fill:none;stroke:#FFFFFF;stroke-width:3;stroke-miterlimit:10;}
	.st2{opacity:0,1;enable-background:new    ;}
</style>
<title>Ресурс 1</title>
<g id="Слой_2">
	<g id="Слой_1-2">
		<g id="Слой_2-2">
			<g id="Слой_1-2-2">
				<circle class="st0" cx="22,9" cy="22,9" r="22,9"/>
				<path class="st1" d="M22,8,22,7c-1,3,5,-5,8,7,9-9,8,7,1c-3,-0,6-6,-3,4-6,-7,1c-0,-3,7,3,-6,6,6,-7,2
					C17,,14,7,21,6,17,7,22,8,22,7z"/>
				<path class="st2" d="M24,6,25,4L23,26,6l-0,2-0,3l-0,6,0,9c-0,3-0,5-0,6-1,1-0,8-1,7s-0,4-1,1-0,6-1,6l0,1-0,3
					c0,1-0,3,0,2-0,5,0,3-0,8l1-0,7L24,6,25,4z"/>
				<path class="st1" d="M22,8,22,7c1,2,5,,5,8,7,9,9,8,7,1c3,-0,7,5,9-3,5,5,9-7,2c-0,-3,6-3,-6,4-5,9-7,1
					C28,6,14,7,24,,17,6,22,8,22,7z"/>
				<path d="M23,27,8"/>
			</g>
		</g>
	</g>
</g>
</svg>
