<svg xmlns="http://www.w3.org/2000/svg" viewBox="0 0 45.76 45.76"><defs><style>.cls-1{fill:#e74c3c;}.cls-2{fill:none;stroke:#fff;stroke-miterlimit:10;stroke-width:3px;}.cls-3{opacity:0.1;isolation:isolate;}</style></defs><title>Ресурс 1</title><g id="Слой_2" data-name="Слой 2"><g id="Слой_1-2" data-name="Слой 1"><g id="Слой_2-2" data-name="Слой 2"><g id="Слой_1-2-2" data-name="Слой 1-2"><circle class="cls-1" cx="22.88" cy="22.88" r="22.88"/><path class="cls-2" d="M22.81,22.72c-1.45,4.72-5.74,7.59-9.81,7.06-3.31-.43-7.12-3.2-7.13-7.12S9.68,16,13,15.53C17.09,15,21.4,17.93,22.81,22.72Z"/><path class="cls-3" d="M24.61,25.44,23,26.57l-.21-.3-.6.89c-.28-.52-.57-1.1-.84-1.73s-.44-1.1-.61-1.61l.15-.29a7.49,7.49,0,0,0,.34-.82l1-.68Z"/><path class="cls-2" d="M22.79,22.72c1.45,4.72,5.74,7.59,9.81,7.06,3.31-.43,7.12-3.2,7.13-7.12s-3.81-6.7-7.12-7.13C28.51,15,24.2,17.93,22.79,22.72Z"/><path d="M23,27.81"/></g></g></g></g></svg>