<svg xmlns="http://www.w3.org/2000/svg" viewBox="0 0 143.08 92.37"><defs><style>.cls-1{fill:#fff;}</style></defs><title>logoРесурс 1</title><g id="Слой_2" data-name="Слой 2"><g id="Слой_1-2" data-name="Слой 1"><g id="_ffffffff" data-name="#ffffffff"><path class="cls-1" d="M90.33,4a24,24,0,0,1,10-4C99.42,2.36,97,3.45,95,4.7c3.4-1.06,6.84-2.56,10.47-2.38q2.08.4,1,2.19c-3.14,2.39-7.36,2.13-10.8,3.88,14.5.32,27.33,11.81,30,25.91,5.6,1.2,11.24,0,16.65-1.46-2.6,5.85-9.24,6.83-14.57,8.72,5,1.42,10.18,1.28,15.3,1.5-4.71,4.05-10.86,5.72-17,5.85-4,15-15.91,26.71-29.36,33.83A86,86,0,0,1,37.1,90C22.71,86.44,9.18,78.57,0,66.81c4.69,2.92,9.42,6,14.91,7.15,12.81,3.31,27.88.38,37.19-9.37-3.64.09-8.31-.77-9.64-4.69-.81-3.2,2.37-5,4.49-6.68a18.06,18.06,0,0,1-16.87-8.36c2.53-2.17,5.76-3,8.95-3.58-3.78-1.51-8-2.45-10.91-5.56A17.76,17.76,0,0,1,23.94,28c2.67-.53,5.36-1,8-1.37C25.87,23.3,20.24,17.46,20.58,10A274.79,274.79,0,0,1,58.89,26c3.66,1.82,6.22,5.18,9.76,7.19C73.4,21,79.49,8.15,90.92,1,90.73,2,90.53,3,90.33,4Z"/></g></g></g></svg>