<?xml version="1.0" standalone="no"?>
<!DOCTYPE svg PUBLIC "-//W3C//DTD SVG 20010904//EN"
 "http://www.w3.org/TR/2001/REC-SVG-20010904/DTD/svg10.dtd">
<svg version="1.0" xmlns="http://www.w3.org/2000/svg"
 width="301.000000pt" height="301.000000pt" viewBox="0 0 301.000000 301.000000"
 preserveAspectRatio="xMidYMid meet">
<metadata>
Created by potrace 1.11, written by Peter Selinger 2001-2013
</metadata>
<g transform="translate(0.000000,301.000000) scale(0.100000,-0.100000)"
fill="#000000" stroke="none">
<path d="M1340 2994 c-350 -44 -660 -194 -900 -435 -371 -373 -519 -907 -394
-1419 159 -645 716 -1102 1384 -1136 736 -38 1384 462 1542 1189 19 87 22 133
22 307 0 174 -3 220 -22 307 -64 295 -198 540 -412 754 -214 214 -466 350
-760 410 -93 20 -376 33 -460 23z m444 -774 c65 -10 154 -35 173 -48 10 -6 8
-27 -11 -91 -13 -45 -26 -84 -28 -86 -2 -2 -33 5 -68 17 -94 30 -293 37 -389
13 -230 -56 -371 -254 -371 -520 0 -289 160 -491 415 -525 81 -11 189 -6 258
11 l37 10 -2 192 -3 192 -127 3 -128 3 0 89 0 90 235 0 235 0 0 -355 0 -354
-67 -21 c-109 -32 -237 -50 -358 -50 -286 0 -496 96 -621 285 -138 207 -150
551 -27 788 44 86 170 218 253 264 64 37 186 79 262 92 73 12 261 13 332 1z"/>
</g>
</svg>
