<?xml version="1.0" standalone="no"?>
<!DOCTYPE svg PUBLIC "-//W3C//DTD SVG 20010904//EN"
 "http://www.w3.org/TR/2001/REC-SVG-20010904/DTD/svg10.dtd">
<svg version="1.0" xmlns="http://www.w3.org/2000/svg"
 width="300.000000pt" height="300.000000pt" viewBox="0 0 300.000000 300.000000"
 preserveAspectRatio="xMidYMid meet">
<metadata>
Created by potrace 1.11, written by Peter Selinger 2001-2013
</metadata>
<g transform="translate(0.000000,300.000000) scale(0.100000,-0.100000)"
fill="#000000" stroke="none">
<path d="M1340 2994 c-352 -45 -659 -192 -900 -434 -214 -213 -356 -481 -416
-785 -26 -126 -26 -424 0 -550 123 -617 584 -1078 1201 -1201 126 -26 424 -26
550 0 617 123 1078 584 1201 1201 26 126 26 424 0 550 -123 615 -586 1080
-1196 1200 -83 16 -364 28 -440 19z m373 -851 c-18 -82 -100 -436 -181 -788
l-148 -640 -62 -3 c-34 -2 -62 -1 -62 2 0 5 342 1494 355 1549 7 26 10 27 70
27 l62 0 -34 -147z m-553 -232 l0 -89 -320 -164 c-176 -89 -320 -165 -320
-168 0 -3 144 -78 320 -168 l320 -164 0 -93 0 -94 -138 72 c-76 40 -262 137
-415 217 l-277 144 0 87 0 86 408 211 c224 117 410 212 415 212 4 0 7 -40 7
-89z m1101 -122 l409 -212 0 -86 0 -87 -277 -144 c-153 -80 -339 -177 -415
-217 l-138 -72 0 94 0 93 320 164 c176 90 320 165 320 168 0 3 -144 79 -320
168 l-320 164 0 89 c0 49 3 89 6 89 4 0 191 -95 415 -211z"/>
</g>
</svg>
