<?xml version="1.0" encoding="utf-8"?>
<!-- Generator: Adobe Illustrator 20.1.0, SVG Export Plug-In . SVG Version: 6.00 Build 0)  -->
<svg version="1.1" id="Слой_1" xmlns="http://www.w3.org/2000/svg" xmlns:xlink="http://www.w3.org/1999/xlink" x="0px" y="0px"
	 viewBox="0 0 300 300" style="enable-background:new 0 0 300 300;" xml:space="preserve">
<style type="text/css">
	.st0{fill:#9B9B9B;}
</style>
<g transform="translate(0.000000,300.000000) scale(0.100000,-0.100000)">
	<path class="st0" d="M1250,2943C660,2856,168,2415,20,1841c-37-143-49-246-45-411c4-212,35-362,113-550C249,489,588,174,989,40
		c161-54,280-73,461-74c91-1,188,2,217,6c571,83,1035,464,1222,1004c51,146,73,279,76,454c5,277-41,476-167,721
		c-213,416-611,706-1083,789C1613,2958,1362,2960,1250,2943z"/>
</g>
</svg>
