<?xml version="1.0" standalone="no"?>
<!DOCTYPE svg PUBLIC "-//W3C//DTD SVG 20010904//EN"
 "http://www.w3.org/TR/2001/REC-SVG-20010904/DTD/svg10.dtd">
<svg version="1.0" xmlns="http://www.w3.org/2000/svg"
 width="260.000000pt" height="260.000000pt" viewBox="0 0 260.000000 260.000000"
 preserveAspectRatio="xMidYMid meet">
<metadata>
Created by potrace 1.11, written by Peter Selinger 2001-2013
</metadata>
<g transform="translate(0.000000,260.000000) scale(0.100000,-0.100000)"
fill="#000000" stroke="none">
<path d="M1132 2590 c-301 -43 -565 -179 -775 -400 -171 -180 -278 -385 -333
-641 -26 -118 -26 -380 0 -498 59 -273 167 -474 360 -667 193 -193 394 -301
667 -360 118 -26 380 -26 498 0 273 59 474 167 667 360 193 193 301 394 360
667 14 62 18 127 18 249 0 122 -4 187 -18 249 -59 273 -167 474 -360 667 -190
189 -384 296 -646 355 -98 22 -340 33 -438 19z m236 -240 c15 -12 26 -35 29
-58 5 -34 1 -42 -25 -64 -31 -26 -35 -39 -33 -94 1 -30 2 -30 74 -42 224 -38
422 -169 531 -352 56 -95 68 -146 73 -323 l5 -157 -718 2 -719 3 -1 135 c-1
76 4 159 11 190 51 225 281 432 551 495 36 8 78 15 95 15 28 0 29 2 29 45 0
40 -5 50 -35 76 -42 37 -47 81 -14 123 17 22 28 26 72 26 37 -1 59 -6 75 -20z
m838 -1153 c4 -4 7 -108 8 -232 l1 -225 -37 0 c-49 -1 -1558 -1 -1688 0 l-100
0 0 229 0 230 28 3 c55 6 1782 2 1788 -5z"/>
<path d="M943 1700 c-65 -39 -86 -109 -52 -170 26 -46 68 -71 122 -73 157 -5
212 178 75 249 -39 20 -107 17 -145 -6z"/>
<path d="M1502 1700 c-66 -40 -90 -118 -53 -173 53 -80 155 -95 229 -32 69 58
65 141 -10 195 -50 37 -115 41 -166 10z"/>
</g>
</svg>
