<?xml version="1.0" encoding="UTF-8" ?>
<!DOCTYPE svg PUBLIC "-//W3C//DTD SVG 1.1//EN" "http://www.w3.org/Graphics/SVG/1.1/DTD/svg11.dtd">
<svg width="80pt" height="65pt" viewBox="0 0 80 65" version="1.1" xmlns="http://www.w3.org/2000/svg">
<g id="#576263ff">
<path fill="#576263" opacity="1.00" d=" M 36.21 1.00 C 39.07 1.00 41.93 1.00 44.79 1.00 C 46.15 3.79 47.43 7.01 50.27 8.61 C 53.48 9.30 56.61 7.97 59.60 6.97 C 61.58 8.98 63.59 10.97 65.57 12.99 C 64.58 15.84 63.27 18.87 63.91 21.95 C 65.61 24.97 69.00 26.35 72.00 27.73 C 72.00 30.64 72.06 33.56 71.87 36.47 C 68.91 37.68 65.59 39.11 64.00 42.05 C 63.34 45.23 64.73 48.34 65.75 51.28 C 63.67 53.30 61.72 55.47 59.50 57.34 C 56.80 56.18 53.87 55.16 50.89 55.54 C 47.64 57.23 46.23 60.84 44.81 63.98 C 41.96 63.99 39.12 63.99 36.27 63.98 C 34.91 61.06 33.69 57.75 30.86 55.92 C 27.63 54.89 24.28 56.41 21.22 57.43 C 19.23 55.44 17.25 53.44 15.22 51.48 C 16.21 48.27 18.04 44.74 16.65 41.39 C 14.75 38.82 11.67 37.68 8.95 36.24 C 9.04 33.43 9.00 30.61 9.00 27.79 C 11.82 26.51 14.83 25.21 16.76 22.66 C 17.86 19.32 16.33 15.90 15.23 12.78 C 17.30 10.85 19.30 8.87 21.28 6.86 C 24.26 7.95 27.41 9.28 30.65 8.63 C 33.56 7.09 34.83 3.80 36.21 1.00 M 37.19 19.17 C 31.05 20.57 26.35 26.74 27.04 33.08 C 27.43 40.06 34.10 45.79 41.05 45.30 C 48.41 45.26 54.82 38.24 53.95 30.88 C 53.51 22.90 44.81 16.99 37.19 19.17 Z" />
</g>
<g id="#d34272ff">
<path fill="#d34272" opacity="1.00" d=" M 37.19 19.17 C 44.81 16.99 53.51 22.90 53.95 30.88 C 54.82 38.24 48.41 45.26 41.05 45.30 C 34.10 45.79 27.43 40.06 27.04 33.08 C 26.35 26.74 31.05 20.57 37.19 19.17 M 36.30 23.40 C 29.80 25.91 28.63 35.69 34.41 39.63 C 40.03 44.35 49.92 40.41 50.34 32.96 C 51.36 25.71 42.64 20.08 36.30 23.40 Z" />
</g>
<g id="#ffffffff">
<path fill="#ffffff" opacity="1.00" d=" M 36.30 23.40 C 42.64 20.08 51.36 25.71 50.34 32.96 C 49.92 40.41 40.03 44.35 34.41 39.63 C 28.63 35.69 29.80 25.91 36.30 23.40 Z" />
</g>
</svg>
