<svg xmlns="http://www.w3.org/2000/svg" viewBox="0 0 25 25"><title>logo_1</title><g id="Слой_2" data-name="Слой 2"><g id="Слой_1-2" data-name="Слой 1"><g id="Слой_2-2" data-name="Слой 2"><g id="Слой_1-2-2" data-name="Слой 1-2"><path d="M18.07,2.61l-1-1.75L16.75.75H14.84L13.77,2.61l.32.54a12.11,12.11,0,0,1,3.42.46Z"/><polygon points="12.88 11.65 14.14 11.65 13.56 10.63 11.41 10.63 10.33 12.5 11.41 14.37 13.56 14.37 13.79 13.96 12.88 13.96 12.88 11.65"/><polygon points="11.41 6.69 10.33 8.54 11.41 10.4 13.56 10.4 14.63 8.54 13.56 6.69 11.41 6.69"/><path d="M13.58,2.73H11.42L11,3.48a12.41,12.41,0,0,1,2.83-.32Z"/><path d="M11.17,6l.26.44h2.15l.51-.89h-.25A7.67,7.67,0,0,0,11.17,6Z"/><path d="M13.56,22.51H11.41l-1.08,1.87.28.48a12.75,12.75,0,0,0,3.73,0l.28-.49Z"/><path d="M10.88,21.37l.53.91h2.15L14,21.6h-.53A12.93,12.93,0,0,1,10.88,21.37Z"/><path d="M13.94,19.22l-.38-.66H11.41l-.19.32a7.44,7.44,0,0,0,2.3.34Z"/><polygon points="13.58 18.33 14.65 16.46 13.58 14.59 11.43 14.59 10.35 16.46 11.43 18.33 13.58 18.33"/><path d="M11.42,2.5h2.15L14.65.63,14.37.14a12.75,12.75,0,0,0-3.73,0l-.28.49Z"/><polygon points="21.43 12.5 20.35 10.63 18.2 10.63 17.62 11.65 18.97 11.65 18.97 14.37 20.35 14.37 21.43 12.5"/><polygon points="20.35 6.69 18.2 6.69 17.13 8.54 18.2 10.4 20.35 10.4 21.43 8.54 20.35 6.69"/><path d="M20.37,2.73h-.08l.15.12Z"/><path d="M17.89,5.88l.33.57h2.15l1.08-1.86-1-1.74-.14-.12H18.22l-.54.94a5.41,5.41,0,0,1,.76.32Z"/><path d="M18.2,22.51,17.32,24A12.37,12.37,0,0,0,20,22.51Z"/><path d="M20.35,22.27l.05-.09-.11.09Z"/><path d="M20.35,18.55H19v2.09c-.48.17-1,.32-1.45.45l.68,1.18h2.09l.12-.09,1-1.77Z"/><polygon points="21.45 16.46 20.37 14.59 18.97 14.59 18.97 18.33 20.37 18.33 21.45 16.46"/><path d="M20,2.5A12.37,12.37,0,0,0,17.34,1l.88,1.52Z"/><polygon points="23.72 12.61 21.57 12.61 20.5 14.47 21.57 16.33 23.72 16.33 24.8 14.47 23.72 12.61"/><polygon points="23.72 8.65 21.57 8.65 20.5 10.52 21.57 12.38 23.72 12.38 24.8 10.52 23.72 8.65"/><path d="M20.51,6.56l1.08,1.86h2.15l.35-.61a12.58,12.58,0,0,0-1.83-3.12h-.68Z"/><path d="M22.09,20.53h-.52l-.76,1.32A12.67,12.67,0,0,0,22.09,20.53Z"/><path d="M23.74,16.57H21.59l-1.08,1.87,1.08,1.87h.69a12.5,12.5,0,0,0,1.82-3.11Z"/><path d="M22.08,4.47a12.4,12.4,0,0,0-1.22-1.26l.73,1.26Z"/><path d="M23.85,16.46l.32.55a12.13,12.13,0,0,0,.62-2.17Z"/><path d="M24.88,10.75l-1,1.76,1,1.76A12.42,12.42,0,0,0,24.88,10.75Z"/><path d="M23.87,8.54l.91,1.57a13.12,13.12,0,0,0-.6-2.1Z"/><path d="M10.17,16.33l1.08-1.87-1.08-1.87H8l-.75,1.3a7,7,0,0,0,.82,2.42Z"/><path d="M7.26,11,8,12.39h2.15l1.08-1.86L10.18,8.66H8L8,8.76A6.62,6.62,0,0,0,7.26,11Z"/><path d="M8.19,8.42h2l1.07-1.87L11,6.08a6,6,0,0,0-.66.32A5.72,5.72,0,0,0,8.19,8.42Z"/><path d="M8,4.69l0,.07.12-.07Z"/><path d="M8.9,24.47a12.63,12.63,0,0,0,1.48.34l-.2-.34Z"/><path d="M8,24.24h.18L8,24.16Z"/><path d="M8.41,20.52H8L6.94,22.37l1,1.77.23.08h2l1.08-1.86-.62-1.06a8.77,8.77,0,0,1-2.21-.8Z"/><path d="M11,18.82l.23-.39-1.08-1.87h-2a5.73,5.73,0,0,0,.65.83A5.5,5.5,0,0,0,11,18.82Z"/><path d="M8,.74,8,.85,8.27.74Z"/><path d="M10.72,3.55l.55-.95L10.18.74H8.27L8,.85,7,2.6,8,4.46h.45l.24-.13A9.52,9.52,0,0,1,10.72,3.55Z"/><path d="M7.22,13.58l.63-1.07-.64-1.11a9.71,9.71,0,0,0-.05,1A11.57,11.57,0,0,0,7.22,13.58Z"/><path d="M4.16,11.44,3.55,12.5l.58,1c0-.29,0-.59,0-.9A10.87,10.87,0,0,1,4.16,11.44Z"/><path d="M5.93,6.69H4.63L3.56,8.56,4.39,10a8.94,8.94,0,0,1,.92-2.36A8.12,8.12,0,0,1,5.93,6.69Z"/><path d="M4.64,2.73l-.07.11.13-.11Z"/><path d="M7.61,5l.26-.45L6.79,2.73H4.71l-.13.11-1,1.75L4.64,6.45H6.12A8.24,8.24,0,0,1,7.61,5Z"/><path d="M5,22.51A12.78,12.78,0,0,0,7.65,24l-.88-1.52Z"/><path d="M4.62,22.27h.08l-.16-.13Z"/><path d="M6,18.55H4.62L3.55,20.42l1,1.73.16.13H6.77l1.08-1.87-.2-.35A7.41,7.41,0,0,1,6,18.55Z"/><path d="M4.36,15.08l-.79,1.37,1.08,1.87H5.8a7.09,7.09,0,0,1-.58-.92A8.68,8.68,0,0,1,4.36,15.08Z"/><path d="M7.67,1A12.63,12.63,0,0,0,5,2.5H6.79Z"/><path d="M10.42.18a13,13,0,0,0-1.68.4h1.45Z"/><path d="M16.26.58A13.75,13.75,0,0,0,14.6.18l.23.4Z"/><path d="M.15,14.47h0Z"/><path d="M3.37,12.61H1.22L.15,14.47v0l1.08,1.85H3.37l.92-1.57c-.05-.25-.08-.51-.12-.77Z"/><path d="M3.39,8.67H1.24L.16,10.53l1.08,1.87H3.39L4.21,11c0-.23.08-.46.12-.68Z"/><path d="M4.32,10.29c-.05.22-.08.45-.12.68"/><path d="M3.39,4.69H2.73A12.71,12.71,0,0,0,.9,7.83l.34.59H3.39L4.46,6.56Z"/><path d="M2.91,20.53a11.5,11.5,0,0,0,1.17,1.22l-.71-1.22Z"/><path d="M1.24,16.57l-.34.6A12.43,12.43,0,0,0,2.72,20.3h.67l1.08-1.87L3.39,16.57H1.24Z"/><path d="M4.1,3.25A13.6,13.6,0,0,0,2.92,4.47h.47Z"/><path d="M.11,10.82a12.58,12.58,0,0,0,0,3.36l1-1.67Z"/><path d="M.8,8.07a12.33,12.33,0,0,0-.57,2l.85-1.47Z"/><path d="M.25,15a12.59,12.59,0,0,0,.57,2l.28-.49Z"/><polygon points="14.04 13.96 13.74 14.48 14.82 16.33 16.18 16.33 16.18 13.96 14.04 13.96"/><polygon points="18.05 10.52 16.98 8.65 14.82 8.65 13.74 10.52 14.4 11.65 17.39 11.65 18.05 10.52"/><path d="M14.33,5.57l-.58,1,1.08,1.86H17l1.08-1.86-.25-.43-.05.18A9,9,0,0,0,14.33,5.57Z"/><path d="M14.63,24.82a12.23,12.23,0,0,0,1.45-.34H14.83Z"/><path d="M17,24.25l.05-.09-.25.09Z"/><path d="M13.74,22.38l1.08,1.87h2l.25-.09,1-1.77-.72-1.25a16.44,16.44,0,0,1-3.13.45Z"/><path d="M16.18,16.57H14.83l-1.08,1.87.45.77a5.67,5.67,0,0,0,2-.36Z"/></g></g></g></g></svg>