<?xml version="1.0" encoding="UTF-8" ?>
<!DOCTYPE svg PUBLIC "-//W3C//DTD SVG 1.1//EN" "http://www.w3.org/Graphics/SVG/1.1/DTD/svg11.dtd">
<svg width="95pt" height="95pt" viewBox="0 0 95 95" version="1.1" xmlns="http://www.w3.org/2000/svg">
<g id="#787878ff">
<path fill="#787878" opacity="1.00" d=" M 43.42 3.55 C 54.20 2.48 65.21 5.68 74.04 11.87 C 82.97 18.28 89.32 28.10 91.67 38.82 C 94.64 51.47 91.51 65.33 83.72 75.69 C 77.88 83.49 69.46 89.39 60.03 91.94 C 48.02 95.60 34.57 93.60 23.93 87.05 C 13.14 80.66 5.53 69.38 3.22 57.10 C 0.56 44.29 4.13 30.45 12.30 20.29 C 19.77 10.69 31.39 4.75 43.42 3.55 M 42.48 6.65 C 31.76 7.89 21.64 13.46 14.88 21.86 C 8.16 29.95 4.74 40.64 5.41 51.12 C 6.06 62.72 11.79 73.87 20.79 81.21 C 28.64 87.71 38.92 91.15 49.10 90.74 C 60.83 90.38 72.30 84.84 79.82 75.82 C 86.35 68.15 89.98 58.09 89.78 48.01 C 89.72 36.13 84.27 24.45 75.27 16.71 C 66.43 8.92 54.17 5.16 42.48 6.65 Z" />
<path fill="#787878" opacity="1.00" d=" M 39.38 29.59 C 47.94 27.91 56.41 25.76 65.00 24.28 C 67.16 24.83 66.51 27.38 66.63 28.99 C 66.43 38.65 66.62 48.31 66.28 57.96 C 65.30 64.81 55.90 67.11 50.87 63.08 C 47.42 60.81 46.47 55.50 49.35 52.41 C 52.48 48.57 58.11 48.37 62.38 50.24 C 62.39 45.81 62.44 41.37 62.46 36.94 C 54.84 38.56 47.21 40.18 39.59 41.83 C 39.47 49.07 39.63 56.32 39.34 63.55 C 38.70 69.57 31.13 72.31 26.04 70.04 C 21.86 68.62 19.15 63.40 21.55 59.38 C 24.29 54.57 30.74 53.84 35.43 56.00 C 35.47 48.04 35.43 40.07 35.65 32.11 C 35.45 30.03 37.98 30.05 39.38 29.59 M 39.63 33.77 C 39.63 35.41 39.64 37.04 39.64 38.67 C 47.24 37.05 54.84 35.42 62.44 33.80 C 62.47 32.16 62.50 30.52 62.54 28.88 C 54.89 30.46 47.26 32.12 39.63 33.77 M 54.42 53.61 C 52.74 54.24 51.18 56.04 51.84 57.93 C 53.59 62.26 61.72 61.99 62.32 57.00 C 61.85 53.50 57.28 52.34 54.42 53.61 M 27.33 59.43 C 25.62 60.10 24.05 62.15 25.02 64.00 C 27.06 67.96 34.46 67.61 35.41 62.97 C 35.04 59.26 30.28 58.05 27.33 59.43 Z" />
</g>
<g id="#f9f9f9ff">
<path fill="#f9f9f9" opacity="1.00" d=" M 39.63 33.77 C 47.26 32.12 54.89 30.46 62.54 28.88 C 62.50 30.52 62.47 32.16 62.44 33.80 C 54.84 35.42 47.24 37.05 39.64 38.67 C 39.64 37.04 39.63 35.41 39.63 33.77 Z" />
<path fill="#f9f9f9" opacity="1.00" d=" M 54.42 53.61 C 57.28 52.34 61.85 53.50 62.32 57.00 C 61.72 61.99 53.59 62.26 51.84 57.93 C 51.18 56.04 52.74 54.24 54.42 53.61 Z" />
<path fill="#f9f9f9" opacity="1.00" d=" M 27.33 59.43 C 30.28 58.05 35.04 59.26 35.41 62.97 C 34.46 67.61 27.06 67.96 25.02 64.00 C 24.05 62.15 25.62 60.10 27.33 59.43 Z" />
</g>
</svg>
