<svg xmlns="http://www.w3.org/2000/svg" viewBox="0 0 300 300"><defs><style>.cls-1{fill:#000105;opacity:0.9;}</style></defs><title>filter1</title><g id="Слой_2" data-name="Слой 2"><g id="Слой_1-2" data-name="Слой 1"><path class="cls-1" d="M0,0V300H300V0ZM233.25,151.88a10.62,10.62,0,0,1-10.62,10.63H165.5a3,3,0,0,0-3,3v57.13a10.62,10.62,0,0,1-10.62,10.63h-3.75a10.62,10.62,0,0,1-10.62-10.62V165.5a3,3,0,0,0-3-3H77.38a10.62,10.62,0,0,1-10.62-10.62v-3.75A10.62,10.62,0,0,1,77.38,137.5H134.5a3,3,0,0,0,3-3V77.38a10.62,10.62,0,0,1,10.63-10.62h3.75A10.62,10.62,0,0,1,162.5,77.38V134.5a3,3,0,0,0,3,3h57.13a10.62,10.62,0,0,1,10.63,10.63Z"/></g></g></svg>