<svg xmlns="http://www.w3.org/2000/svg" viewBox="0 0 300 300"><defs><style>.cls-1{fill:#202429;}</style></defs><title>filter1_2</title><g id="Слой_2" data-name="Слой 2"><g id="Слой_1-2" data-name="Слой 1"><path class="cls-1" d="M0,0V300H300V0ZM72.38,130.59a58.22,58.22,0,1,1,58.22,58.22A58.22,58.22,0,0,1,72.38,130.59Zm151,92.77a14.55,14.55,0,0,1-20.58,0l-35.62-35.62a68.56,68.56,0,0,0,20.58-20.58l35.62,35.62A14.55,14.55,0,0,1,223.36,223.36Z"/><path class="cls-1" d="M132.82,87.9a42.75,42.75,0,1,0,40.47,40.47A42.76,42.76,0,0,0,132.82,87.9Zm20.73,45.17a3,3,0,0,1-3,3H137.88a3,3,0,0,0-3,3v12.67a3,3,0,0,1-3,3h-2.57a3,3,0,0,1-3-3V139.07a3,3,0,0,0-3-3H110.64a3,3,0,0,1-3-3V130.5a3,3,0,0,1,3-3h12.67a3,3,0,0,0,3-3V111.83a3,3,0,0,1,3-3h2.57a3,3,0,0,1,3,3V124.5a3,3,0,0,0,3,3h12.67a3,3,0,0,1,3,3Z"/></g></g></svg>